<svg xmlns="http://www.w3.org/2000/svg" version="1.1" xmlns:xlink="http://www.w3.org/1999/xlink" xmlns:svgjs="http://svgjs.dev/svgjs" width="300" height="800" preserveAspectRatio="none" viewBox="0 0 300 800"><g mask="url(&quot;#SvgjsMask2764&quot;)" fill="none"><rect width="300" height="800" x="0" y="0" fill="url(&quot;#SvgjsLinearGradient2765&quot;)"></rect><path d="M300 0L230.61 0L300 316.84z" fill="rgba(255, 255, 255, .1)"></path><path d="M230.61 0L300 316.84L300 443.45L162.87 0z" fill="rgba(255, 255, 255, .075)"></path><path d="M162.87 0L300 443.45L300 627.31L112.45 0z" fill="rgba(255, 255, 255, .05)"></path><path d="M112.44999999999999 0L300 627.31L300 745.24L90.17999999999999 0z" fill="rgba(255, 255, 255, .025)"></path><path d="M0 800L88.57 800L0 702.96z" fill="rgba(0, 0, 0, .1)"></path><path d="M0 702.96L88.57 800L146.01999999999998 800L0 535.34z" fill="rgba(0, 0, 0, .075)"></path><path d="M0 535.3399999999999L146.01999999999998 800L181.21999999999997 800L0 268.1499999999999z" fill="rgba(0, 0, 0, .05)"></path><path d="M0 268.15L181.21999999999997 800L256.21 800L0 241.37999999999997z" fill="rgba(0, 0, 0, .025)"></path></g><defs><mask id="SvgjsMask2764"><rect width="300" height="800" fill="#ffffff"></rect></mask><linearGradient x1="0%" y1="50%" x2="100%" y2="50%" gradientUnits="userSpaceOnUse" id="SvgjsLinearGradient2765"><stop stop-color="rgba(255, 255, 255, 0.29)" offset="0.55"></stop><stop stop-color="rgba(184, 181, 173, 0.29)" offset="0.96"></stop></linearGradient></defs></svg>