<svg xmlns="http://www.w3.org/2000/svg" version="1.1" xmlns:xlink="http://www.w3.org/1999/xlink" xmlns:svgjs="http://svgjs.dev/svgjs" width="200" height="1440" preserveAspectRatio="none" viewBox="0 0 200 1440"><g mask="url(&quot;#SvgjsMask1038&quot;)" fill="none"><rect width="200" height="1440" x="0" y="0" fill="rgba(0, 0, 0, 1)"></rect><path d="M-78.89 685.32L-78.89 685.32" stroke="#132e65" stroke-width="1.5"></path><path d="M-78.89 685.32L-83.03 818.62" stroke="#132e65" stroke-width="1.5"></path><path d="M-78.89 685.32L87.17 707.04" stroke="#132e65" stroke-width="1.5"></path><path d="M-78.89 685.32L96.6 554.21" stroke="#132e65" stroke-width="1.5"></path><path d="M-83.03 818.62L-83.03 818.62" stroke="#132e65" stroke-width="1.5"></path><path d="M-83.03 818.62L-58.32 968.69" stroke="#132e65" stroke-width="1.5"></path><path d="M-58.32 968.69L-58.32 968.69" stroke="#132e65" stroke-width="1.5"></path><path d="M-58.32 968.69L-103.84 1118" stroke="#132e65" stroke-width="1.5"></path><path d="M-58.32 968.69L70.38 858.77" stroke="#132e65" stroke-width="1.5"></path><path d="M-58.32 968.69L52.96 1151.93" stroke="#132e65" stroke-width="1.5"></path><path d="M-58.32 968.69L206.92 997.82" stroke="#132e65" stroke-width="1.5"></path><path d="M-58.32 968.69L-78.89 685.32" stroke="#132e65" stroke-width="1.5"></path><path d="M-103.84 1118L-103.84 1118" stroke="#132e65" stroke-width="1.5"></path><path d="M-103.84 1118L52.96 1151.93" stroke="#132e65" stroke-width="1.5"></path><path d="M-103.84 1118L-68.69 1309.77" stroke="#132e65" stroke-width="1.5"></path><path d="M-103.84 1118L55.22 1281.04" stroke="#132e65" stroke-width="1.5"></path><path d="M-103.84 1118L-90.06 1408.15" stroke="#132e65" stroke-width="1.5"></path><path d="M-68.69 1309.77L-68.69 1309.77" stroke="#132e65" stroke-width="1.5"></path><path d="M-68.69 1309.77L-90.06 1408.15" stroke="#132e65" stroke-width="1.5"></path><path d="M-68.69 1309.77L55.22 1281.04" stroke="#132e65" stroke-width="1.5"></path><path d="M-68.69 1309.77L106.3 1388.94" stroke="#132e65" stroke-width="1.5"></path><path d="M-90.06 1408.15L-90.06 1408.15" stroke="#132e65" stroke-width="1.5"></path><path d="M-90.06 1408.15L-104.15 1592.98" stroke="#132e65" stroke-width="1.5"></path><path d="M-90.06 1408.15L55.22 1281.04" stroke="#132e65" stroke-width="1.5"></path><path d="M-90.06 1408.15L106.3 1388.94" stroke="#132e65" stroke-width="1.5"></path><path d="M-104.15 1592.98L-104.15 1592.98" stroke="#132e65" stroke-width="1.5"></path><path d="M-104.15 1592.98L62.8 1610.46" stroke="#132e65" stroke-width="1.5"></path><path d="M-104.15 1592.98L-68.69 1309.77" stroke="#132e65" stroke-width="1.5"></path><path d="M-104.15 1592.98L106.3 1388.94" stroke="#132e65" stroke-width="1.5"></path><path d="M96.6 554.21L96.6 554.21" stroke="#132e65" stroke-width="1.5"></path><path d="M96.6 554.21L87.17 707.04" stroke="#132e65" stroke-width="1.5"></path><path d="M96.6 554.21L365.75 527.31" stroke="#132e65" stroke-width="1.5"></path><path d="M87.17 707.04L87.17 707.04" stroke="#132e65" stroke-width="1.5"></path><path d="M87.17 707.04L70.38 858.77" stroke="#132e65" stroke-width="1.5"></path><path d="M87.17 707.04L239.65 799.93" stroke="#132e65" stroke-width="1.5"></path><path d="M87.17 707.04L-83.03 818.62" stroke="#132e65" stroke-width="1.5"></path><path d="M87.17 707.04L369.36 697.19" stroke="#132e65" stroke-width="1.5"></path><path d="M70.38 858.77L70.38 858.77" stroke="#132e65" stroke-width="1.5"></path><path d="M70.38 858.77L-83.03 818.62" stroke="#132e65" stroke-width="1.5"></path><path d="M70.38 858.77L239.65 799.93" stroke="#132e65" stroke-width="1.5"></path><path d="M70.38 858.77L206.92 997.82" stroke="#132e65" stroke-width="1.5"></path><path d="M70.38 858.77L-78.89 685.32" stroke="#132e65" stroke-width="1.5"></path><path d="M52.96 1151.93L52.96 1151.93" stroke="#132e65" stroke-width="1.5"></path><path d="M52.96 1151.93L55.22 1281.04" stroke="#132e65" stroke-width="1.5"></path><path d="M52.96 1151.93L188.26 1119.94" stroke="#132e65" stroke-width="1.5"></path><path d="M55.22 1281.04L55.22 1281.04" stroke="#132e65" stroke-width="1.5"></path><path d="M55.22 1281.04L106.3 1388.94" stroke="#132e65" stroke-width="1.5"></path><path d="M106.3 1388.94L106.3 1388.94" stroke="#132e65" stroke-width="1.5"></path><path d="M106.3 1388.94L192.82 1286.67" stroke="#132e65" stroke-width="1.5"></path><path d="M62.8 1610.46L62.8 1610.46" stroke="#132e65" stroke-width="1.5"></path><path d="M62.8 1610.46L244.93 1610.47" stroke="#132e65" stroke-width="1.5"></path><path d="M62.8 1610.46L106.3 1388.94" stroke="#132e65" stroke-width="1.5"></path><path d="M62.8 1610.46L247.85 1458.5" stroke="#132e65" stroke-width="1.5"></path><path d="M259.82 -84.78L259.82 -84.78" stroke="#132e65" stroke-width="1.5"></path><path d="M259.82 -84.78L406.12 -56.14" stroke="#132e65" stroke-width="1.5"></path><path d="M259.82 -84.78L242.06 109.81" stroke="#132e65" stroke-width="1.5"></path><path d="M242.06 109.81L242.06 109.81" stroke="#132e65" stroke-width="1.5"></path><path d="M242.06 109.81L259.5 258.87" stroke="#132e65" stroke-width="1.5"></path><path d="M242.06 109.81L408.73 82.07" stroke="#132e65" stroke-width="1.5"></path><path d="M242.06 109.81L387.08 257.86" stroke="#132e65" stroke-width="1.5"></path><path d="M242.06 109.81L406.12 -56.14" stroke="#132e65" stroke-width="1.5"></path><path d="M242.06 109.81L397.59 362.34" stroke="#132e65" stroke-width="1.5"></path><path d="M259.5 258.87L259.5 258.87" stroke="#132e65" stroke-width="1.5"></path><path d="M259.5 258.87L387.08 257.86" stroke="#132e65" stroke-width="1.5"></path><path d="M259.5 258.87L397.59 362.34" stroke="#132e65" stroke-width="1.5"></path><path d="M259.5 258.87L408.73 82.07" stroke="#132e65" stroke-width="1.5"></path><path d="M259.5 258.87L365.75 527.31" stroke="#132e65" stroke-width="1.5"></path><path d="M239.65 799.93L239.65 799.93" stroke="#132e65" stroke-width="1.5"></path><path d="M239.65 799.93L353.4 850.83" stroke="#132e65" stroke-width="1.5"></path><path d="M239.65 799.93L369.36 697.19" stroke="#132e65" stroke-width="1.5"></path><path d="M206.92 997.82L206.92 997.82" stroke="#132e65" stroke-width="1.5"></path><path d="M206.92 997.82L188.26 1119.94" stroke="#132e65" stroke-width="1.5"></path><path d="M206.92 997.82L401.55 979.97" stroke="#132e65" stroke-width="1.5"></path><path d="M206.92 997.82L239.65 799.93" stroke="#132e65" stroke-width="1.5"></path><path d="M188.26 1119.94L188.26 1119.94" stroke="#132e65" stroke-width="1.5"></path><path d="M188.26 1119.94L192.82 1286.67" stroke="#132e65" stroke-width="1.5"></path><path d="M188.26 1119.94L377.32 1161.64" stroke="#132e65" stroke-width="1.5"></path><path d="M188.26 1119.94L55.22 1281.04" stroke="#132e65" stroke-width="1.5"></path><path d="M188.26 1119.94L376.09 1279.46" stroke="#132e65" stroke-width="1.5"></path><path d="M192.82 1286.67L192.82 1286.67" stroke="#132e65" stroke-width="1.5"></path><path d="M192.82 1286.67L55.22 1281.04" stroke="#132e65" stroke-width="1.5"></path><path d="M192.82 1286.67L247.85 1458.5" stroke="#132e65" stroke-width="1.5"></path><path d="M247.85 1458.5L247.85 1458.5" stroke="#132e65" stroke-width="1.5"></path><path d="M247.85 1458.5L244.93 1610.47" stroke="#132e65" stroke-width="1.5"></path><path d="M247.85 1458.5L106.3 1388.94" stroke="#132e65" stroke-width="1.5"></path><path d="M247.85 1458.5L411.46 1429.27" stroke="#132e65" stroke-width="1.5"></path><path d="M247.85 1458.5L365.99 1591.5" stroke="#132e65" stroke-width="1.5"></path><path d="M244.93 1610.47L244.93 1610.47" stroke="#132e65" stroke-width="1.5"></path><path d="M244.93 1610.47L365.99 1591.5" stroke="#132e65" stroke-width="1.5"></path><path d="M406.12 -56.14L406.12 -56.14" stroke="#132e65" stroke-width="1.5"></path><path d="M406.12 -56.14L408.73 82.07" stroke="#132e65" stroke-width="1.5"></path><path d="M408.73 82.07L408.73 82.07" stroke="#132e65" stroke-width="1.5"></path><path d="M387.08 257.86L387.08 257.86" stroke="#132e65" stroke-width="1.5"></path><path d="M387.08 257.86L397.59 362.34" stroke="#132e65" stroke-width="1.5"></path><path d="M397.59 362.34L397.59 362.34" stroke="#132e65" stroke-width="1.5"></path><path d="M397.59 362.34L365.75 527.31" stroke="#132e65" stroke-width="1.5"></path><path d="M397.59 362.34L408.73 82.07" stroke="#132e65" stroke-width="1.5"></path><path d="M397.59 362.34L369.36 697.19" stroke="#132e65" stroke-width="1.5"></path><path d="M365.75 527.31L365.75 527.31" stroke="#132e65" stroke-width="1.5"></path><path d="M365.75 527.31L369.36 697.19" stroke="#132e65" stroke-width="1.5"></path><path d="M365.75 527.31L387.08 257.86" stroke="#132e65" stroke-width="1.5"></path><path d="M369.36 697.19L369.36 697.19" stroke="#132e65" stroke-width="1.5"></path><path d="M369.36 697.19L353.4 850.83" stroke="#132e65" stroke-width="1.5"></path><path d="M353.4 850.83L353.4 850.83" stroke="#132e65" stroke-width="1.5"></path><path d="M353.4 850.83L401.55 979.97" stroke="#132e65" stroke-width="1.5"></path><path d="M353.4 850.83L206.92 997.82" stroke="#132e65" stroke-width="1.5"></path><path d="M353.4 850.83L70.38 858.77" stroke="#132e65" stroke-width="1.5"></path><path d="M401.55 979.97L401.55 979.97" stroke="#132e65" stroke-width="1.5"></path><path d="M401.55 979.97L377.32 1161.64" stroke="#132e65" stroke-width="1.5"></path><path d="M377.32 1161.64L377.32 1161.64" stroke="#132e65" stroke-width="1.5"></path><path d="M377.32 1161.64L376.09 1279.46" stroke="#132e65" stroke-width="1.5"></path><path d="M377.32 1161.64L192.82 1286.67" stroke="#132e65" stroke-width="1.5"></path><path d="M377.32 1161.64L206.92 997.82" stroke="#132e65" stroke-width="1.5"></path><path d="M376.09 1279.46L376.09 1279.46" stroke="#132e65" stroke-width="1.5"></path><path d="M376.09 1279.46L411.46 1429.27" stroke="#132e65" stroke-width="1.5"></path><path d="M376.09 1279.46L192.82 1286.67" stroke="#132e65" stroke-width="1.5"></path><path d="M376.09 1279.46L247.85 1458.5" stroke="#132e65" stroke-width="1.5"></path><path d="M411.46 1429.27L411.46 1429.27" stroke="#132e65" stroke-width="1.5"></path><path d="M411.46 1429.27L365.99 1591.5" stroke="#132e65" stroke-width="1.5"></path><path d="M411.46 1429.27L244.93 1610.47" stroke="#132e65" stroke-width="1.5"></path><path d="M411.46 1429.27L192.82 1286.67" stroke="#132e65" stroke-width="1.5"></path><path d="M365.99 1591.5L365.99 1591.5" stroke="#132e65" stroke-width="1.5"></path><circle r="5" cx="-78.89" cy="685.32" fill="#132e65"></circle><circle r="5" cx="-83.03" cy="818.62" fill="#132e65"></circle><circle r="5" cx="-58.32" cy="968.69" fill="#132e65"></circle><circle r="5" cx="-103.84" cy="1118" fill="#132e65"></circle><circle r="5" cx="-68.69" cy="1309.77" fill="#132e65"></circle><circle r="5" cx="-90.06" cy="1408.15" fill="#132e65"></circle><circle r="5" cx="-104.15" cy="1592.98" fill="#132e65"></circle><circle r="5" cx="96.6" cy="554.21" fill="#132e65"></circle><circle r="5" cx="87.17" cy="707.04" fill="#132e65"></circle><circle r="5" cx="70.38" cy="858.77" fill="#132e65"></circle><circle r="5" cx="52.96" cy="1151.93" fill="#132e65"></circle><circle r="5" cx="55.22" cy="1281.04" fill="#132e65"></circle><circle r="5" cx="106.3" cy="1388.94" fill="#132e65"></circle><circle r="5" cx="62.8" cy="1610.46" fill="#132e65"></circle><circle r="5" cx="259.82" cy="-84.78" fill="#132e65"></circle><circle r="5" cx="242.06" cy="109.81" fill="#132e65"></circle><circle r="5" cx="259.5" cy="258.87" fill="#132e65"></circle><circle r="5" cx="239.65" cy="799.93" fill="#132e65"></circle><circle r="5" cx="206.92" cy="997.82" fill="#132e65"></circle><circle r="5" cx="188.26" cy="1119.94" fill="#132e65"></circle><circle r="5" cx="192.82" cy="1286.67" fill="#132e65"></circle><circle r="5" cx="247.85" cy="1458.5" fill="#132e65"></circle><circle r="5" cx="244.93" cy="1610.47" fill="#132e65"></circle><circle r="5" cx="406.12" cy="-56.14" fill="#132e65"></circle><circle r="5" cx="408.73" cy="82.07" fill="#132e65"></circle><circle r="5" cx="387.08" cy="257.86" fill="#132e65"></circle><circle r="5" cx="397.59" cy="362.34" fill="#132e65"></circle><circle r="5" cx="365.75" cy="527.31" fill="#132e65"></circle><circle r="5" cx="369.36" cy="697.19" fill="#132e65"></circle><circle r="5" cx="353.4" cy="850.83" fill="#132e65"></circle><circle r="5" cx="401.55" cy="979.97" fill="#132e65"></circle><circle r="5" cx="377.32" cy="1161.64" fill="#132e65"></circle><circle r="5" cx="376.09" cy="1279.46" fill="#132e65"></circle><circle r="5" cx="411.46" cy="1429.27" fill="#132e65"></circle><circle r="5" cx="365.99" cy="1591.5" fill="#132e65"></circle><path d="M102.62 1295.4L102.62 1295.4" stroke="hsl(228.5, 77.2%, 51.5%)" stroke-width="1.5"></path><path d="M102.62 1295.4L213.28 1244.41" stroke="hsl(228.5, 77.2%, 51.5%)" stroke-width="1.5"></path><path d="M102.62 1295.4L60.96 1131.51" stroke="hsl(228.5, 77.2%, 51.5%)" stroke-width="1.5"></path><path d="M77.1 1589.87L77.1 1589.87" stroke="hsl(228.5, 77.2%, 51.5%)" stroke-width="1.5"></path><path d="M77.1 1589.87L241.96 1571.43" stroke="hsl(228.5, 77.2%, 51.5%)" stroke-width="1.5"></path><path d="M77.1 1589.87L-101.11 1392.27" stroke="hsl(228.5, 77.2%, 51.5%)" stroke-width="1.5"></path><path d="M209.5 372.26L209.5 372.26" stroke="hsl(228.5, 77.2%, 51.5%)" stroke-width="1.5"></path><path d="M209.5 372.26L367.72 407.68" stroke="hsl(228.5, 77.2%, 51.5%)" stroke-width="1.5"></path><path d="M209.5 372.26L340.28 255.03" stroke="hsl(228.5, 77.2%, 51.5%)" stroke-width="1.5"></path><path d="M209.5 372.26L189.08 547.9" stroke="hsl(228.5, 77.2%, 51.5%)" stroke-width="1.5"></path><path d="M189.08 547.9L189.08 547.9" stroke="hsl(228.5, 77.2%, 51.5%)" stroke-width="1.5"></path><path d="M189.08 547.9L257.24 708.95" stroke="hsl(228.5, 77.2%, 51.5%)" stroke-width="1.5"></path><path d="M189.08 547.9L374.19 517.72" stroke="hsl(228.5, 77.2%, 51.5%)" stroke-width="1.5"></path><path d="M189.08 547.9L361.25 675.41" stroke="hsl(228.5, 77.2%, 51.5%)" stroke-width="1.5"></path><path d="M258.03 1392.53L258.03 1392.53" stroke="hsl(228.5, 77.2%, 51.5%)" stroke-width="1.5"></path><path d="M258.03 1392.53L213.28 1244.41" stroke="hsl(228.5, 77.2%, 51.5%)" stroke-width="1.5"></path><path d="M258.03 1392.53L411.25 1437" stroke="hsl(228.5, 77.2%, 51.5%)" stroke-width="1.5"></path><path d="M340.28 255.03L340.28 255.03" stroke="hsl(228.5, 77.2%, 51.5%)" stroke-width="1.5"></path><path d="M340.28 255.03L220.4 189.54" stroke="hsl(228.5, 77.2%, 51.5%)" stroke-width="1.5"></path><path d="M340.28 255.03L367.72 407.68" stroke="hsl(228.5, 77.2%, 51.5%)" stroke-width="1.5"></path><path d="M340.28 255.03L390.59 105.93" stroke="hsl(228.5, 77.2%, 51.5%)" stroke-width="1.5"></path><path d="M367.72 407.68L367.72 407.68" stroke="hsl(228.5, 77.2%, 51.5%)" stroke-width="1.5"></path><path d="M367.72 407.68L374.19 517.72" stroke="hsl(228.5, 77.2%, 51.5%)" stroke-width="1.5"></path><path d="M361.25 675.41L361.25 675.41" stroke="hsl(228.5, 77.2%, 51.5%)" stroke-width="1.5"></path><path d="M361.25 675.41L257.24 708.95" stroke="hsl(228.5, 77.2%, 51.5%)" stroke-width="1.5"></path><path d="M361.25 675.41L374.19 517.72" stroke="hsl(228.5, 77.2%, 51.5%)" stroke-width="1.5"></path><path d="M361.25 675.41L228.34 819.22" stroke="hsl(228.5, 77.2%, 51.5%)" stroke-width="1.5"></path><path d="M361.25 675.41L367.72 407.68" stroke="hsl(228.5, 77.2%, 51.5%)" stroke-width="1.5"></path><path d="M361.25 675.41L347.45 1007.21" stroke="hsl(228.5, 77.2%, 51.5%)" stroke-width="1.5"></path><path d="M347.45 1007.21L347.45 1007.21" stroke="hsl(228.5, 77.2%, 51.5%)" stroke-width="1.5"></path><path d="M347.45 1007.21L378.29 1105.82" stroke="hsl(228.5, 77.2%, 51.5%)" stroke-width="1.5"></path><path d="M347.45 1007.21L238.76 1089.25" stroke="hsl(228.5, 77.2%, 51.5%)" stroke-width="1.5"></path><path d="M347.45 1007.21L188.38 1012.35" stroke="hsl(228.5, 77.2%, 51.5%)" stroke-width="1.5"></path><path d="M411.25 1437L411.25 1437" stroke="hsl(228.5, 77.2%, 51.5%)" stroke-width="1.5"></path><path d="M411.25 1437L378.99 1576.46" stroke="hsl(228.5, 77.2%, 51.5%)" stroke-width="1.5"></path><path d="M-47.22 1142.99L-47.22 1142.99" stroke="hsl(228.5, 77.2%, 51.5%)" stroke-width="1.5"></path><path d="M-47.22 1142.99L60.96 1131.51" stroke="hsl(228.5, 77.2%, 51.5%)" stroke-width="1.5"></path><path d="M-47.22 1142.99L102.62 1295.4" stroke="hsl(228.5, 77.2%, 51.5%)" stroke-width="1.5"></path><path d="M-47.22 1142.99L-101.11 1392.27" stroke="hsl(228.5, 77.2%, 51.5%)" stroke-width="1.5"></path><path d="M-101.11 1392.27L-101.11 1392.27" stroke="hsl(228.5, 77.2%, 51.5%)" stroke-width="1.5"></path><path d="M-101.11 1392.27L102.62 1295.4" stroke="hsl(228.5, 77.2%, 51.5%)" stroke-width="1.5"></path><path d="M60.96 1131.51L60.96 1131.51" stroke="hsl(228.5, 77.2%, 51.5%)" stroke-width="1.5"></path><path d="M212.07 -107.58L212.07 -107.58" stroke="hsl(228.5, 77.2%, 51.5%)" stroke-width="1.5"></path><path d="M212.07 -107.58L251.41 62.47" stroke="hsl(228.5, 77.2%, 51.5%)" stroke-width="1.5"></path><path d="M212.07 -107.58L400.02 -77.61" stroke="hsl(228.5, 77.2%, 51.5%)" stroke-width="1.5"></path><path d="M212.07 -107.58L390.59 105.93" stroke="hsl(228.5, 77.2%, 51.5%)" stroke-width="1.5"></path><path d="M212.07 -107.58L220.4 189.54" stroke="hsl(228.5, 77.2%, 51.5%)" stroke-width="1.5"></path><path d="M212.07 -107.58L340.28 255.03" stroke="hsl(228.5, 77.2%, 51.5%)" stroke-width="1.5"></path><path d="M251.41 62.47L251.41 62.47" stroke="hsl(228.5, 77.2%, 51.5%)" stroke-width="1.5"></path><path d="M251.41 62.47L220.4 189.54" stroke="hsl(228.5, 77.2%, 51.5%)" stroke-width="1.5"></path><path d="M251.41 62.47L390.59 105.93" stroke="hsl(228.5, 77.2%, 51.5%)" stroke-width="1.5"></path><path d="M251.41 62.47L400.02 -77.61" stroke="hsl(228.5, 77.2%, 51.5%)" stroke-width="1.5"></path><path d="M220.4 189.54L220.4 189.54" stroke="hsl(228.5, 77.2%, 51.5%)" stroke-width="1.5"></path><path d="M220.4 189.54L209.5 372.26" stroke="hsl(228.5, 77.2%, 51.5%)" stroke-width="1.5"></path><path d="M257.24 708.95L257.24 708.95" stroke="hsl(228.5, 77.2%, 51.5%)" stroke-width="1.5"></path><path d="M257.24 708.95L228.34 819.22" stroke="hsl(228.5, 77.2%, 51.5%)" stroke-width="1.5"></path><path d="M257.24 708.95L374.19 517.72" stroke="hsl(228.5, 77.2%, 51.5%)" stroke-width="1.5"></path><path d="M228.34 819.22L228.34 819.22" stroke="hsl(228.5, 77.2%, 51.5%)" stroke-width="1.5"></path><path d="M228.34 819.22L188.38 1012.35" stroke="hsl(228.5, 77.2%, 51.5%)" stroke-width="1.5"></path><path d="M228.34 819.22L347.45 1007.21" stroke="hsl(228.5, 77.2%, 51.5%)" stroke-width="1.5"></path><path d="M228.34 819.22L238.76 1089.25" stroke="hsl(228.5, 77.2%, 51.5%)" stroke-width="1.5"></path><path d="M188.38 1012.35L188.38 1012.35" stroke="hsl(228.5, 77.2%, 51.5%)" stroke-width="1.5"></path><path d="M188.38 1012.35L238.76 1089.25" stroke="hsl(228.5, 77.2%, 51.5%)" stroke-width="1.5"></path><path d="M188.38 1012.35L60.96 1131.51" stroke="hsl(228.5, 77.2%, 51.5%)" stroke-width="1.5"></path><path d="M238.76 1089.25L238.76 1089.25" stroke="hsl(228.5, 77.2%, 51.5%)" stroke-width="1.5"></path><path d="M213.28 1244.41L213.28 1244.41" stroke="hsl(228.5, 77.2%, 51.5%)" stroke-width="1.5"></path><path d="M213.28 1244.41L238.76 1089.25" stroke="hsl(228.5, 77.2%, 51.5%)" stroke-width="1.5"></path><path d="M213.28 1244.41L60.96 1131.51" stroke="hsl(228.5, 77.2%, 51.5%)" stroke-width="1.5"></path><path d="M213.28 1244.41L402.96 1266.22" stroke="hsl(228.5, 77.2%, 51.5%)" stroke-width="1.5"></path><path d="M241.96 1571.43L241.96 1571.43" stroke="hsl(228.5, 77.2%, 51.5%)" stroke-width="1.5"></path><path d="M241.96 1571.43L378.99 1576.46" stroke="hsl(228.5, 77.2%, 51.5%)" stroke-width="1.5"></path><path d="M241.96 1571.43L258.03 1392.53" stroke="hsl(228.5, 77.2%, 51.5%)" stroke-width="1.5"></path><path d="M241.96 1571.43L411.25 1437" stroke="hsl(228.5, 77.2%, 51.5%)" stroke-width="1.5"></path><path d="M241.96 1571.43L102.62 1295.4" stroke="hsl(228.5, 77.2%, 51.5%)" stroke-width="1.5"></path><path d="M400.02 -77.61L400.02 -77.61" stroke="hsl(228.5, 77.2%, 51.5%)" stroke-width="1.5"></path><path d="M400.02 -77.61L390.59 105.93" stroke="hsl(228.5, 77.2%, 51.5%)" stroke-width="1.5"></path><path d="M400.02 -77.61L220.4 189.54" stroke="hsl(228.5, 77.2%, 51.5%)" stroke-width="1.5"></path><path d="M400.02 -77.61L340.28 255.03" stroke="hsl(228.5, 77.2%, 51.5%)" stroke-width="1.5"></path><path d="M390.59 105.93L390.59 105.93" stroke="hsl(228.5, 77.2%, 51.5%)" stroke-width="1.5"></path><path d="M374.19 517.72L374.19 517.72" stroke="hsl(228.5, 77.2%, 51.5%)" stroke-width="1.5"></path><path d="M378.29 1105.82L378.29 1105.82" stroke="hsl(228.5, 77.2%, 51.5%)" stroke-width="1.5"></path><path d="M378.29 1105.82L238.76 1089.25" stroke="hsl(228.5, 77.2%, 51.5%)" stroke-width="1.5"></path><path d="M378.29 1105.82L402.96 1266.22" stroke="hsl(228.5, 77.2%, 51.5%)" stroke-width="1.5"></path><path d="M402.96 1266.22L402.96 1266.22" stroke="hsl(228.5, 77.2%, 51.5%)" stroke-width="1.5"></path><path d="M402.96 1266.22L411.25 1437" stroke="hsl(228.5, 77.2%, 51.5%)" stroke-width="1.5"></path><path d="M402.96 1266.22L258.03 1392.53" stroke="hsl(228.5, 77.2%, 51.5%)" stroke-width="1.5"></path><path d="M378.99 1576.46L378.99 1576.46" stroke="hsl(228.5, 77.2%, 51.5%)" stroke-width="1.5"></path><path d="M378.99 1576.46L258.03 1392.53" stroke="hsl(228.5, 77.2%, 51.5%)" stroke-width="1.5"></path><path d="M378.99 1576.46L77.1 1589.87" stroke="hsl(228.5, 77.2%, 51.5%)" stroke-width="1.5"></path><circle r="25" cx="102.62" cy="1295.4" fill="url(&quot;#SvgjsRadialGradient1039&quot;)"></circle><circle r="25" cx="77.1" cy="1589.87" fill="url(&quot;#SvgjsRadialGradient1039&quot;)"></circle><circle r="25" cx="209.5" cy="372.26" fill="url(&quot;#SvgjsRadialGradient1039&quot;)"></circle><circle r="25" cx="189.08" cy="547.9" fill="url(&quot;#SvgjsRadialGradient1039&quot;)"></circle><circle r="25" cx="258.03" cy="1392.53" fill="url(&quot;#SvgjsRadialGradient1039&quot;)"></circle><circle r="25" cx="340.28" cy="255.03" fill="url(&quot;#SvgjsRadialGradient1039&quot;)"></circle><circle r="25" cx="367.72" cy="407.68" fill="url(&quot;#SvgjsRadialGradient1039&quot;)"></circle><circle r="25" cx="361.25" cy="675.41" fill="url(&quot;#SvgjsRadialGradient1039&quot;)"></circle><circle r="25" cx="347.45" cy="1007.21" fill="url(&quot;#SvgjsRadialGradient1039&quot;)"></circle><circle r="25" cx="411.25" cy="1437" fill="url(&quot;#SvgjsRadialGradient1039&quot;)"></circle><circle r="5" cx="-47.22" cy="1142.99" fill="#8b9ad9"></circle><circle r="5" cx="-101.11" cy="1392.27" fill="#8b9ad9"></circle><circle r="5" cx="60.96" cy="1131.51" fill="#8b9ad9"></circle><circle r="5" cx="212.07" cy="-107.58" fill="#8b9ad9"></circle><circle r="5" cx="251.41" cy="62.47" fill="#8b9ad9"></circle><circle r="5" cx="220.4" cy="189.54" fill="#8b9ad9"></circle><circle r="5" cx="257.24" cy="708.95" fill="#8b9ad9"></circle><circle r="5" cx="228.34" cy="819.22" fill="#8b9ad9"></circle><circle r="5" cx="188.38" cy="1012.35" fill="#8b9ad9"></circle><circle r="5" cx="238.76" cy="1089.25" fill="#8b9ad9"></circle><circle r="5" cx="213.28" cy="1244.41" fill="#8b9ad9"></circle><circle r="5" cx="241.96" cy="1571.43" fill="#8b9ad9"></circle><circle r="5" cx="400.02" cy="-77.61" fill="#8b9ad9"></circle><circle r="5" cx="390.59" cy="105.93" fill="#8b9ad9"></circle><circle r="5" cx="374.19" cy="517.72" fill="#8b9ad9"></circle><circle r="5" cx="378.29" cy="1105.82" fill="#8b9ad9"></circle><circle r="5" cx="402.96" cy="1266.22" fill="#8b9ad9"></circle><circle r="5" cx="378.99" cy="1576.46" fill="#8b9ad9"></circle></g><defs><mask id="SvgjsMask1038"><rect width="200" height="1440" fill="#ffffff"></rect></mask><radialGradient id="SvgjsRadialGradient1039"><stop stop-color="#ffffff" offset="0.1"></stop><stop stop-color="#1735b3" offset="0.2"></stop><stop stop-color="rgba(23, 53, 179, 0)" offset="1"></stop></radialGradient></defs></svg>