<svg xmlns="http://www.w3.org/2000/svg" version="1.1" xmlns:xlink="http://www.w3.org/1999/xlink" xmlns:svgjs="http://svgjs.dev/svgjs" width="1440" height="200" preserveAspectRatio="none" viewBox="0 0 1440 200"><g mask="url(&quot;#SvgjsMask1010&quot;)" fill="none"><rect width="1440" height="200" x="0" y="0" fill="rgba(0, 0, 0, 0.92)"></rect><path d="M-95.73 192.23L-95.73 192.23" stroke="#132e65" stroke-width="1.5"></path><path d="M-95.73 192.23L78.8 211.78" stroke="#132e65" stroke-width="1.5"></path><path d="M-95.73 192.23L-87.66 374.24" stroke="#132e65" stroke-width="1.5"></path><path d="M-95.73 192.23L81.47 403.72" stroke="#132e65" stroke-width="1.5"></path><path d="M-95.73 192.23L227.8 217.59" stroke="#132e65" stroke-width="1.5"></path><path d="M-95.73 192.23L212.26 385.88" stroke="#132e65" stroke-width="1.5"></path><path d="M-95.73 192.23L382.72 251.89" stroke="#132e65" stroke-width="1.5"></path><path d="M-87.66 374.24L-87.66 374.24" stroke="#132e65" stroke-width="1.5"></path><path d="M-87.66 374.24L81.47 403.72" stroke="#132e65" stroke-width="1.5"></path><path d="M-87.66 374.24L78.8 211.78" stroke="#132e65" stroke-width="1.5"></path><path d="M-87.66 374.24L212.26 385.88" stroke="#132e65" stroke-width="1.5"></path><path d="M78.8 211.78L78.8 211.78" stroke="#132e65" stroke-width="1.5"></path><path d="M78.8 211.78L227.8 217.59" stroke="#132e65" stroke-width="1.5"></path><path d="M78.8 211.78L81.47 403.72" stroke="#132e65" stroke-width="1.5"></path><path d="M78.8 211.78L212.26 385.88" stroke="#132e65" stroke-width="1.5"></path><path d="M78.8 211.78L382.72 251.89" stroke="#132e65" stroke-width="1.5"></path><path d="M81.47 403.72L81.47 403.72" stroke="#132e65" stroke-width="1.5"></path><path d="M81.47 403.72L212.26 385.88" stroke="#132e65" stroke-width="1.5"></path><path d="M81.47 403.72L227.8 217.59" stroke="#132e65" stroke-width="1.5"></path><path d="M227.8 217.59L227.8 217.59" stroke="#132e65" stroke-width="1.5"></path><path d="M227.8 217.59L382.72 251.89" stroke="#132e65" stroke-width="1.5"></path><path d="M227.8 217.59L212.26 385.88" stroke="#132e65" stroke-width="1.5"></path><path d="M227.8 217.59L390.28 366.05" stroke="#132e65" stroke-width="1.5"></path><path d="M212.26 385.88L212.26 385.88" stroke="#132e65" stroke-width="1.5"></path><path d="M382.72 251.89L382.72 251.89" stroke="#132e65" stroke-width="1.5"></path><path d="M382.72 251.89L390.28 366.05" stroke="#132e65" stroke-width="1.5"></path><path d="M382.72 251.89L528.84 216.71" stroke="#132e65" stroke-width="1.5"></path><path d="M390.28 366.05L390.28 366.05" stroke="#132e65" stroke-width="1.5"></path><path d="M390.28 366.05L551.5 355.02" stroke="#132e65" stroke-width="1.5"></path><path d="M390.28 366.05L212.26 385.88" stroke="#132e65" stroke-width="1.5"></path><path d="M390.28 366.05L528.84 216.71" stroke="#132e65" stroke-width="1.5"></path><path d="M390.28 366.05L671.9 366.81" stroke="#132e65" stroke-width="1.5"></path><path d="M528.84 216.71L528.84 216.71" stroke="#132e65" stroke-width="1.5"></path><path d="M528.84 216.71L551.5 355.02" stroke="#132e65" stroke-width="1.5"></path><path d="M528.84 216.71L691.15 259.28" stroke="#132e65" stroke-width="1.5"></path><path d="M551.5 355.02L551.5 355.02" stroke="#132e65" stroke-width="1.5"></path><path d="M551.5 355.02L671.9 366.81" stroke="#132e65" stroke-width="1.5"></path><path d="M551.5 355.02L691.15 259.28" stroke="#132e65" stroke-width="1.5"></path><path d="M699.14 80.14L699.14 80.14" stroke="#132e65" stroke-width="1.5"></path><path d="M699.14 80.14L819.83 84" stroke="#132e65" stroke-width="1.5"></path><path d="M699.14 80.14L691.15 259.28" stroke="#132e65" stroke-width="1.5"></path><path d="M691.15 259.28L691.15 259.28" stroke="#132e65" stroke-width="1.5"></path><path d="M691.15 259.28L671.9 366.81" stroke="#132e65" stroke-width="1.5"></path><path d="M691.15 259.28L862.42 255.26" stroke="#132e65" stroke-width="1.5"></path><path d="M671.9 366.81L671.9 366.81" stroke="#132e65" stroke-width="1.5"></path><path d="M671.9 366.81L837.06 370.4" stroke="#132e65" stroke-width="1.5"></path><path d="M819.83 84L819.83 84" stroke="#132e65" stroke-width="1.5"></path><path d="M819.83 84L862.42 255.26" stroke="#132e65" stroke-width="1.5"></path><path d="M819.83 84L1006.92 39.13" stroke="#132e65" stroke-width="1.5"></path><path d="M862.42 255.26L862.42 255.26" stroke="#132e65" stroke-width="1.5"></path><path d="M862.42 255.26L837.06 370.4" stroke="#132e65" stroke-width="1.5"></path><path d="M862.42 255.26L992.02 251.62" stroke="#132e65" stroke-width="1.5"></path><path d="M862.42 255.26L961.82 383.7" stroke="#132e65" stroke-width="1.5"></path><path d="M862.42 255.26L671.9 366.81" stroke="#132e65" stroke-width="1.5"></path><path d="M837.06 370.4L837.06 370.4" stroke="#132e65" stroke-width="1.5"></path><path d="M837.06 370.4L961.82 383.7" stroke="#132e65" stroke-width="1.5"></path><path d="M837.06 370.4L691.15 259.28" stroke="#132e65" stroke-width="1.5"></path><path d="M1006.92 39.13L1006.92 39.13" stroke="#132e65" stroke-width="1.5"></path><path d="M1006.92 39.13L1114.11 55.3" stroke="#132e65" stroke-width="1.5"></path><path d="M1006.92 39.13L1142.22 -44.11" stroke="#132e65" stroke-width="1.5"></path><path d="M1006.92 39.13L992.02 251.62" stroke="#132e65" stroke-width="1.5"></path><path d="M1006.92 39.13L1099.16 254.83" stroke="#132e65" stroke-width="1.5"></path><path d="M992.02 251.62L992.02 251.62" stroke="#132e65" stroke-width="1.5"></path><path d="M992.02 251.62L1099.16 254.83" stroke="#132e65" stroke-width="1.5"></path><path d="M992.02 251.62L961.82 383.7" stroke="#132e65" stroke-width="1.5"></path><path d="M961.82 383.7L961.82 383.7" stroke="#132e65" stroke-width="1.5"></path><path d="M961.82 383.7L1120.13 358.05" stroke="#132e65" stroke-width="1.5"></path><path d="M961.82 383.7L1099.16 254.83" stroke="#132e65" stroke-width="1.5"></path><path d="M1142.22 -44.11L1142.22 -44.11" stroke="#132e65" stroke-width="1.5"></path><path d="M1142.22 -44.11L1114.11 55.3" stroke="#132e65" stroke-width="1.5"></path><path d="M1142.22 -44.11L1263.1 -85.29" stroke="#132e65" stroke-width="1.5"></path><path d="M1114.11 55.3L1114.11 55.3" stroke="#132e65" stroke-width="1.5"></path><path d="M1114.11 55.3L1266.71 58.39" stroke="#132e65" stroke-width="1.5"></path><path d="M1114.11 55.3L1099.16 254.83" stroke="#132e65" stroke-width="1.5"></path><path d="M1114.11 55.3L1263.1 -85.29" stroke="#132e65" stroke-width="1.5"></path><path d="M1099.16 254.83L1099.16 254.83" stroke="#132e65" stroke-width="1.5"></path><path d="M1099.16 254.83L1120.13 358.05" stroke="#132e65" stroke-width="1.5"></path><path d="M1120.13 358.05L1120.13 358.05" stroke="#132e65" stroke-width="1.5"></path><path d="M1263.1 -85.29L1263.1 -85.29" stroke="#132e65" stroke-width="1.5"></path><path d="M1263.1 -85.29L1266.71 58.39" stroke="#132e65" stroke-width="1.5"></path><path d="M1263.1 -85.29L1448.11 -77.36" stroke="#132e65" stroke-width="1.5"></path><path d="M1266.71 58.39L1266.71 58.39" stroke="#132e65" stroke-width="1.5"></path><path d="M1266.71 58.39L1419.17 57.66" stroke="#132e65" stroke-width="1.5"></path><path d="M1288.37 215.16L1288.37 215.16" stroke="#132e65" stroke-width="1.5"></path><path d="M1288.37 215.16L1398 245.95" stroke="#132e65" stroke-width="1.5"></path><path d="M1288.37 215.16L1266.71 58.39" stroke="#132e65" stroke-width="1.5"></path><path d="M1288.37 215.16L1279.51 397.07" stroke="#132e65" stroke-width="1.5"></path><path d="M1288.37 215.16L1099.16 254.83" stroke="#132e65" stroke-width="1.5"></path><path d="M1288.37 215.16L1419.17 57.66" stroke="#132e65" stroke-width="1.5"></path><path d="M1279.51 397.07L1279.51 397.07" stroke="#132e65" stroke-width="1.5"></path><path d="M1279.51 397.07L1424.31 383.72" stroke="#132e65" stroke-width="1.5"></path><path d="M1279.51 397.07L1120.13 358.05" stroke="#132e65" stroke-width="1.5"></path><path d="M1279.51 397.07L1398 245.95" stroke="#132e65" stroke-width="1.5"></path><path d="M1448.11 -77.36L1448.11 -77.36" stroke="#132e65" stroke-width="1.5"></path><path d="M1448.11 -77.36L1565.01 -65.62" stroke="#132e65" stroke-width="1.5"></path><path d="M1448.11 -77.36L1419.17 57.66" stroke="#132e65" stroke-width="1.5"></path><path d="M1448.11 -77.36L1558.06 62.25" stroke="#132e65" stroke-width="1.5"></path><path d="M1448.11 -77.36L1266.71 58.39" stroke="#132e65" stroke-width="1.5"></path><path d="M1419.17 57.66L1419.17 57.66" stroke="#132e65" stroke-width="1.5"></path><path d="M1419.17 57.66L1558.06 62.25" stroke="#132e65" stroke-width="1.5"></path><path d="M1398 245.95L1398 245.95" stroke="#132e65" stroke-width="1.5"></path><path d="M1398 245.95L1424.31 383.72" stroke="#132e65" stroke-width="1.5"></path><path d="M1398 245.95L1419.17 57.66" stroke="#132e65" stroke-width="1.5"></path><path d="M1424.31 383.72L1424.31 383.72" stroke="#132e65" stroke-width="1.5"></path><path d="M1424.31 383.72L1578.58 352.47" stroke="#132e65" stroke-width="1.5"></path><path d="M1424.31 383.72L1594.6 260.26" stroke="#132e65" stroke-width="1.5"></path><path d="M1565.01 -65.62L1565.01 -65.62" stroke="#132e65" stroke-width="1.5"></path><path d="M1565.01 -65.62L1558.06 62.25" stroke="#132e65" stroke-width="1.5"></path><path d="M1565.01 -65.62L1419.17 57.66" stroke="#132e65" stroke-width="1.5"></path><path d="M1565.01 -65.62L1263.1 -85.29" stroke="#132e65" stroke-width="1.5"></path><path d="M1565.01 -65.62L1266.71 58.39" stroke="#132e65" stroke-width="1.5"></path><path d="M1565.01 -65.62L1594.6 260.26" stroke="#132e65" stroke-width="1.5"></path><path d="M1558.06 62.25L1558.06 62.25" stroke="#132e65" stroke-width="1.5"></path><path d="M1594.6 260.26L1594.6 260.26" stroke="#132e65" stroke-width="1.5"></path><path d="M1594.6 260.26L1578.58 352.47" stroke="#132e65" stroke-width="1.5"></path><path d="M1594.6 260.26L1398 245.95" stroke="#132e65" stroke-width="1.5"></path><path d="M1594.6 260.26L1558.06 62.25" stroke="#132e65" stroke-width="1.5"></path><path d="M1594.6 260.26L1419.17 57.66" stroke="#132e65" stroke-width="1.5"></path><path d="M1594.6 260.26L1288.37 215.16" stroke="#132e65" stroke-width="1.5"></path><path d="M1578.58 352.47L1578.58 352.47" stroke="#132e65" stroke-width="1.5"></path><path d="M1578.58 352.47L1398 245.95" stroke="#132e65" stroke-width="1.5"></path><path d="M1578.58 352.47L1558.06 62.25" stroke="#132e65" stroke-width="1.5"></path><path d="M1578.58 352.47L1279.51 397.07" stroke="#132e65" stroke-width="1.5"></path><path d="M1578.58 352.47L1288.37 215.16" stroke="#132e65" stroke-width="1.5"></path><circle r="5" cx="-95.73" cy="192.23" fill="#132e65"></circle><circle r="5" cx="-87.66" cy="374.24" fill="#132e65"></circle><circle r="5" cx="78.8" cy="211.78" fill="#132e65"></circle><circle r="5" cx="81.47" cy="403.72" fill="#132e65"></circle><circle r="5" cx="227.8" cy="217.59" fill="#132e65"></circle><circle r="5" cx="212.26" cy="385.88" fill="#132e65"></circle><circle r="5" cx="382.72" cy="251.89" fill="#132e65"></circle><circle r="5" cx="390.28" cy="366.05" fill="#132e65"></circle><circle r="5" cx="528.84" cy="216.71" fill="#132e65"></circle><circle r="5" cx="551.5" cy="355.02" fill="#132e65"></circle><circle r="5" cx="699.14" cy="80.14" fill="#132e65"></circle><circle r="5" cx="691.15" cy="259.28" fill="#132e65"></circle><circle r="5" cx="671.9" cy="366.81" fill="#132e65"></circle><circle r="5" cx="819.83" cy="84" fill="#132e65"></circle><circle r="5" cx="862.42" cy="255.26" fill="#132e65"></circle><circle r="5" cx="837.06" cy="370.4" fill="#132e65"></circle><circle r="5" cx="1006.92" cy="39.13" fill="#132e65"></circle><circle r="5" cx="992.02" cy="251.62" fill="#132e65"></circle><circle r="5" cx="961.82" cy="383.7" fill="#132e65"></circle><circle r="5" cx="1142.22" cy="-44.11" fill="#132e65"></circle><circle r="5" cx="1114.11" cy="55.3" fill="#132e65"></circle><circle r="5" cx="1099.16" cy="254.83" fill="#132e65"></circle><circle r="5" cx="1120.13" cy="358.05" fill="#132e65"></circle><circle r="5" cx="1263.1" cy="-85.29" fill="#132e65"></circle><circle r="5" cx="1266.71" cy="58.39" fill="#132e65"></circle><circle r="5" cx="1288.37" cy="215.16" fill="#132e65"></circle><circle r="5" cx="1279.51" cy="397.07" fill="#132e65"></circle><circle r="5" cx="1448.11" cy="-77.36" fill="#132e65"></circle><circle r="5" cx="1419.17" cy="57.66" fill="#132e65"></circle><circle r="5" cx="1398" cy="245.95" fill="#132e65"></circle><circle r="5" cx="1424.31" cy="383.72" fill="#132e65"></circle><circle r="5" cx="1565.01" cy="-65.62" fill="#132e65"></circle><circle r="5" cx="1558.06" cy="62.25" fill="#132e65"></circle><circle r="5" cx="1594.6" cy="260.26" fill="#132e65"></circle><circle r="5" cx="1578.58" cy="352.47" fill="#132e65"></circle><path d="M-56.09 400.43L-56.09 400.43" stroke="hsl(228.5, 77.2%, 51.5%)" stroke-width="1.5"></path><path d="M-56.09 400.43L-102.02 245.92" stroke="hsl(228.5, 77.2%, 51.5%)" stroke-width="1.5"></path><path d="M-56.09 400.43L109.88 339.61" stroke="hsl(228.5, 77.2%, 51.5%)" stroke-width="1.5"></path><path d="M109.88 339.61L109.88 339.61" stroke="hsl(228.5, 77.2%, 51.5%)" stroke-width="1.5"></path><path d="M109.88 339.61L87.02 204.44" stroke="hsl(228.5, 77.2%, 51.5%)" stroke-width="1.5"></path><path d="M109.88 339.61L216.75 240.78" stroke="hsl(228.5, 77.2%, 51.5%)" stroke-width="1.5"></path><path d="M109.88 339.61L254.16 383.82" stroke="hsl(228.5, 77.2%, 51.5%)" stroke-width="1.5"></path><path d="M216.75 240.78L216.75 240.78" stroke="hsl(228.5, 77.2%, 51.5%)" stroke-width="1.5"></path><path d="M216.75 240.78L87.02 204.44" stroke="hsl(228.5, 77.2%, 51.5%)" stroke-width="1.5"></path><path d="M254.16 383.82L254.16 383.82" stroke="hsl(228.5, 77.2%, 51.5%)" stroke-width="1.5"></path><path d="M254.16 383.82L395.6 340.88" stroke="hsl(228.5, 77.2%, 51.5%)" stroke-width="1.5"></path><path d="M254.16 383.82L216.75 240.78" stroke="hsl(228.5, 77.2%, 51.5%)" stroke-width="1.5"></path><path d="M395.6 340.88L395.6 340.88" stroke="hsl(228.5, 77.2%, 51.5%)" stroke-width="1.5"></path><path d="M395.6 340.88L373.63 224.55" stroke="hsl(228.5, 77.2%, 51.5%)" stroke-width="1.5"></path><path d="M395.6 340.88L531.35 404.6" stroke="hsl(228.5, 77.2%, 51.5%)" stroke-width="1.5"></path><path d="M395.6 340.88L496.95 206.76" stroke="hsl(228.5, 77.2%, 51.5%)" stroke-width="1.5"></path><path d="M395.6 340.88L216.75 240.78" stroke="hsl(228.5, 77.2%, 51.5%)" stroke-width="1.5"></path><path d="M991.17 239.85L991.17 239.85" stroke="hsl(228.5, 77.2%, 51.5%)" stroke-width="1.5"></path><path d="M991.17 239.85L1093.3 227.21" stroke="hsl(228.5, 77.2%, 51.5%)" stroke-width="1.5"></path><path d="M991.17 239.85L1002.96 383.46" stroke="hsl(228.5, 77.2%, 51.5%)" stroke-width="1.5"></path><path d="M991.17 239.85L834.47 248.59" stroke="hsl(228.5, 77.2%, 51.5%)" stroke-width="1.5"></path><path d="M1599.88 359.61L1599.88 359.61" stroke="hsl(228.5, 77.2%, 51.5%)" stroke-width="1.5"></path><path d="M1599.88 359.61L1539.29 250.37" stroke="hsl(228.5, 77.2%, 51.5%)" stroke-width="1.5"></path><path d="M1599.88 359.61L1439.52 382.01" stroke="hsl(228.5, 77.2%, 51.5%)" stroke-width="1.5"></path><path d="M1599.88 359.61L1573.66 84.8" stroke="hsl(228.5, 77.2%, 51.5%)" stroke-width="1.5"></path><path d="M-102.02 245.92L-102.02 245.92" stroke="hsl(228.5, 77.2%, 51.5%)" stroke-width="1.5"></path><path d="M-102.02 245.92L87.02 204.44" stroke="hsl(228.5, 77.2%, 51.5%)" stroke-width="1.5"></path><path d="M-102.02 245.92L109.88 339.61" stroke="hsl(228.5, 77.2%, 51.5%)" stroke-width="1.5"></path><path d="M-102.02 245.92L216.75 240.78" stroke="hsl(228.5, 77.2%, 51.5%)" stroke-width="1.5"></path><path d="M-102.02 245.92L254.16 383.82" stroke="hsl(228.5, 77.2%, 51.5%)" stroke-width="1.5"></path><path d="M-102.02 245.92L373.63 224.55" stroke="hsl(228.5, 77.2%, 51.5%)" stroke-width="1.5"></path><path d="M87.02 204.44L87.02 204.44" stroke="hsl(228.5, 77.2%, 51.5%)" stroke-width="1.5"></path><path d="M373.63 224.55L373.63 224.55" stroke="hsl(228.5, 77.2%, 51.5%)" stroke-width="1.5"></path><path d="M373.63 224.55L496.95 206.76" stroke="hsl(228.5, 77.2%, 51.5%)" stroke-width="1.5"></path><path d="M373.63 224.55L216.75 240.78" stroke="hsl(228.5, 77.2%, 51.5%)" stroke-width="1.5"></path><path d="M373.63 224.55L254.16 383.82" stroke="hsl(228.5, 77.2%, 51.5%)" stroke-width="1.5"></path><path d="M496.95 206.76L496.95 206.76" stroke="hsl(228.5, 77.2%, 51.5%)" stroke-width="1.5"></path><path d="M496.95 206.76L679.6 207.61" stroke="hsl(228.5, 77.2%, 51.5%)" stroke-width="1.5"></path><path d="M531.35 404.6L531.35 404.6" stroke="hsl(228.5, 77.2%, 51.5%)" stroke-width="1.5"></path><path d="M531.35 404.6L496.95 206.76" stroke="hsl(228.5, 77.2%, 51.5%)" stroke-width="1.5"></path><path d="M531.35 404.6L373.63 224.55" stroke="hsl(228.5, 77.2%, 51.5%)" stroke-width="1.5"></path><path d="M531.35 404.6L679.6 207.61" stroke="hsl(228.5, 77.2%, 51.5%)" stroke-width="1.5"></path><path d="M679.6 207.61L679.6 207.61" stroke="hsl(228.5, 77.2%, 51.5%)" stroke-width="1.5"></path><path d="M679.6 207.61L834.47 248.59" stroke="hsl(228.5, 77.2%, 51.5%)" stroke-width="1.5"></path><path d="M679.6 207.61L812.98 388.58" stroke="hsl(228.5, 77.2%, 51.5%)" stroke-width="1.5"></path><path d="M679.6 207.61L373.63 224.55" stroke="hsl(228.5, 77.2%, 51.5%)" stroke-width="1.5"></path><path d="M679.6 207.61L991.17 239.85" stroke="hsl(228.5, 77.2%, 51.5%)" stroke-width="1.5"></path><path d="M834.47 248.59L834.47 248.59" stroke="hsl(228.5, 77.2%, 51.5%)" stroke-width="1.5"></path><path d="M834.47 248.59L812.98 388.58" stroke="hsl(228.5, 77.2%, 51.5%)" stroke-width="1.5"></path><path d="M834.47 248.59L1002.96 383.46" stroke="hsl(228.5, 77.2%, 51.5%)" stroke-width="1.5"></path><path d="M834.47 248.59L1093.3 227.21" stroke="hsl(228.5, 77.2%, 51.5%)" stroke-width="1.5"></path><path d="M834.47 248.59L1107.57 366.98" stroke="hsl(228.5, 77.2%, 51.5%)" stroke-width="1.5"></path><path d="M812.98 388.58L812.98 388.58" stroke="hsl(228.5, 77.2%, 51.5%)" stroke-width="1.5"></path><path d="M812.98 388.58L1002.96 383.46" stroke="hsl(228.5, 77.2%, 51.5%)" stroke-width="1.5"></path><path d="M812.98 388.58L991.17 239.85" stroke="hsl(228.5, 77.2%, 51.5%)" stroke-width="1.5"></path><path d="M812.98 388.58L531.35 404.6" stroke="hsl(228.5, 77.2%, 51.5%)" stroke-width="1.5"></path><path d="M1002.96 383.46L1002.96 383.46" stroke="hsl(228.5, 77.2%, 51.5%)" stroke-width="1.5"></path><path d="M1002.96 383.46L1107.57 366.98" stroke="hsl(228.5, 77.2%, 51.5%)" stroke-width="1.5"></path><path d="M1002.96 383.46L1093.3 227.21" stroke="hsl(228.5, 77.2%, 51.5%)" stroke-width="1.5"></path><path d="M1126.14 58.41L1126.14 58.41" stroke="hsl(228.5, 77.2%, 51.5%)" stroke-width="1.5"></path><path d="M1126.14 58.41L1241.74 76.73" stroke="hsl(228.5, 77.2%, 51.5%)" stroke-width="1.5"></path><path d="M1126.14 58.41L1093.3 227.21" stroke="hsl(228.5, 77.2%, 51.5%)" stroke-width="1.5"></path><path d="M1126.14 58.41L1254.12 196.59" stroke="hsl(228.5, 77.2%, 51.5%)" stroke-width="1.5"></path><path d="M1126.14 58.41L991.17 239.85" stroke="hsl(228.5, 77.2%, 51.5%)" stroke-width="1.5"></path><path d="M1126.14 58.41L1299.17 -104.34" stroke="hsl(228.5, 77.2%, 51.5%)" stroke-width="1.5"></path><path d="M1126.14 58.41L1433.86 62.14" stroke="hsl(228.5, 77.2%, 51.5%)" stroke-width="1.5"></path><path d="M1093.3 227.21L1093.3 227.21" stroke="hsl(228.5, 77.2%, 51.5%)" stroke-width="1.5"></path><path d="M1093.3 227.21L1107.57 366.98" stroke="hsl(228.5, 77.2%, 51.5%)" stroke-width="1.5"></path><path d="M1093.3 227.21L1254.12 196.59" stroke="hsl(228.5, 77.2%, 51.5%)" stroke-width="1.5"></path><path d="M1107.57 366.98L1107.57 366.98" stroke="hsl(228.5, 77.2%, 51.5%)" stroke-width="1.5"></path><path d="M1299.17 -104.34L1299.17 -104.34" stroke="hsl(228.5, 77.2%, 51.5%)" stroke-width="1.5"></path><path d="M1299.17 -104.34L1448.13 -46.5" stroke="hsl(228.5, 77.2%, 51.5%)" stroke-width="1.5"></path><path d="M1299.17 -104.34L1241.74 76.73" stroke="hsl(228.5, 77.2%, 51.5%)" stroke-width="1.5"></path><path d="M1299.17 -104.34L1433.86 62.14" stroke="hsl(228.5, 77.2%, 51.5%)" stroke-width="1.5"></path><path d="M1241.74 76.73L1241.74 76.73" stroke="hsl(228.5, 77.2%, 51.5%)" stroke-width="1.5"></path><path d="M1241.74 76.73L1254.12 196.59" stroke="hsl(228.5, 77.2%, 51.5%)" stroke-width="1.5"></path><path d="M1241.74 76.73L1433.86 62.14" stroke="hsl(228.5, 77.2%, 51.5%)" stroke-width="1.5"></path><path d="M1241.74 76.73L1093.3 227.21" stroke="hsl(228.5, 77.2%, 51.5%)" stroke-width="1.5"></path><path d="M1254.12 196.59L1254.12 196.59" stroke="hsl(228.5, 77.2%, 51.5%)" stroke-width="1.5"></path><path d="M1299.98 412.05L1299.98 412.05" stroke="hsl(228.5, 77.2%, 51.5%)" stroke-width="1.5"></path><path d="M1299.98 412.05L1439.52 382.01" stroke="hsl(228.5, 77.2%, 51.5%)" stroke-width="1.5"></path><path d="M1299.98 412.05L1107.57 366.98" stroke="hsl(228.5, 77.2%, 51.5%)" stroke-width="1.5"></path><path d="M1448.13 -46.5L1448.13 -46.5" stroke="hsl(228.5, 77.2%, 51.5%)" stroke-width="1.5"></path><path d="M1448.13 -46.5L1433.86 62.14" stroke="hsl(228.5, 77.2%, 51.5%)" stroke-width="1.5"></path><path d="M1433.86 62.14L1433.86 62.14" stroke="hsl(228.5, 77.2%, 51.5%)" stroke-width="1.5"></path><path d="M1433.86 62.14L1573.66 84.8" stroke="hsl(228.5, 77.2%, 51.5%)" stroke-width="1.5"></path><path d="M1439.52 382.01L1439.52 382.01" stroke="hsl(228.5, 77.2%, 51.5%)" stroke-width="1.5"></path><path d="M1573.66 84.8L1573.66 84.8" stroke="hsl(228.5, 77.2%, 51.5%)" stroke-width="1.5"></path><path d="M1573.66 84.8L1539.29 250.37" stroke="hsl(228.5, 77.2%, 51.5%)" stroke-width="1.5"></path><path d="M1573.66 84.8L1448.13 -46.5" stroke="hsl(228.5, 77.2%, 51.5%)" stroke-width="1.5"></path><path d="M1573.66 84.8L1439.52 382.01" stroke="hsl(228.5, 77.2%, 51.5%)" stroke-width="1.5"></path><path d="M1573.66 84.8L1241.74 76.73" stroke="hsl(228.5, 77.2%, 51.5%)" stroke-width="1.5"></path><path d="M1539.29 250.37L1539.29 250.37" stroke="hsl(228.5, 77.2%, 51.5%)" stroke-width="1.5"></path><path d="M1539.29 250.37L1439.52 382.01" stroke="hsl(228.5, 77.2%, 51.5%)" stroke-width="1.5"></path><circle r="25" cx="-56.09" cy="400.43" fill="url(&quot;#SvgjsRadialGradient1011&quot;)"></circle><circle r="25" cx="109.88" cy="339.61" fill="url(&quot;#SvgjsRadialGradient1011&quot;)"></circle><circle r="25" cx="216.75" cy="240.78" fill="url(&quot;#SvgjsRadialGradient1011&quot;)"></circle><circle r="25" cx="254.16" cy="383.82" fill="url(&quot;#SvgjsRadialGradient1011&quot;)"></circle><circle r="25" cx="395.6" cy="340.88" fill="url(&quot;#SvgjsRadialGradient1011&quot;)"></circle><circle r="25" cx="991.17" cy="239.85" fill="url(&quot;#SvgjsRadialGradient1011&quot;)"></circle><circle r="25" cx="1599.88" cy="359.61" fill="url(&quot;#SvgjsRadialGradient1011&quot;)"></circle><circle r="5" cx="-102.02" cy="245.92" fill="#8b9ad9"></circle><circle r="5" cx="87.02" cy="204.44" fill="#8b9ad9"></circle><circle r="5" cx="373.63" cy="224.55" fill="#8b9ad9"></circle><circle r="5" cx="496.95" cy="206.76" fill="#8b9ad9"></circle><circle r="5" cx="531.35" cy="404.6" fill="#8b9ad9"></circle><circle r="5" cx="679.6" cy="207.61" fill="#8b9ad9"></circle><circle r="5" cx="834.47" cy="248.59" fill="#8b9ad9"></circle><circle r="5" cx="812.98" cy="388.58" fill="#8b9ad9"></circle><circle r="5" cx="1002.96" cy="383.46" fill="#8b9ad9"></circle><circle r="5" cx="1126.14" cy="58.41" fill="#8b9ad9"></circle><circle r="5" cx="1093.3" cy="227.21" fill="#8b9ad9"></circle><circle r="5" cx="1107.57" cy="366.98" fill="#8b9ad9"></circle><circle r="5" cx="1299.17" cy="-104.34" fill="#8b9ad9"></circle><circle r="5" cx="1241.74" cy="76.73" fill="#8b9ad9"></circle><circle r="5" cx="1254.12" cy="196.59" fill="#8b9ad9"></circle><circle r="5" cx="1299.98" cy="412.05" fill="#8b9ad9"></circle><circle r="5" cx="1448.13" cy="-46.5" fill="#8b9ad9"></circle><circle r="5" cx="1433.86" cy="62.14" fill="#8b9ad9"></circle><circle r="5" cx="1439.52" cy="382.01" fill="#8b9ad9"></circle><circle r="5" cx="1573.66" cy="84.8" fill="#8b9ad9"></circle><circle r="5" cx="1539.29" cy="250.37" fill="#8b9ad9"></circle></g><defs><mask id="SvgjsMask1010"><rect width="1440" height="200" fill="#ffffff"></rect></mask><radialGradient id="SvgjsRadialGradient1011"><stop stop-color="#ffffff" offset="0.1"></stop><stop stop-color="#1735b3" offset="0.2"></stop><stop stop-color="rgba(23, 53, 179, 0)" offset="1"></stop></radialGradient></defs></svg>