<svg xmlns="http://www.w3.org/2000/svg" version="1.1" xmlns:xlink="http://www.w3.org/1999/xlink" xmlns:svgjs="http://svgjs.dev/svgjs" width="300" height="800" preserveAspectRatio="none" viewBox="0 0 300 800"><g mask="url(&quot;#SvgjsMask1109&quot;)" fill="none"><path d="M-46.24 555.66L-46.24 555.66" stroke="rgba(19, 46, 101, 0.32)" stroke-width="1.5"></path><path d="M-46.24 555.66L-39.62 625.02" stroke="rgba(19, 46, 101, 0.32)" stroke-width="1.5"></path><path d="M-46.24 555.66L41.41 545.82" stroke="rgba(19, 46, 101, 0.32)" stroke-width="1.5"></path><path d="M-46.24 555.66L70.2 663.63" stroke="rgba(19, 46, 101, 0.32)" stroke-width="1.5"></path><path d="M-46.24 555.66L131.44 572.74" stroke="rgba(19, 46, 101, 0.32)" stroke-width="1.5"></path><path d="M-46.24 555.66L-72.16 760.7" stroke="rgba(19, 46, 101, 0.32)" stroke-width="1.5"></path><path d="M-46.24 555.66L71.95 732.47" stroke="rgba(19, 46, 101, 0.32)" stroke-width="1.5"></path><path d="M-39.62 625.02L-39.62 625.02" stroke="rgba(19, 46, 101, 0.32)" stroke-width="1.5"></path><path d="M-39.62 625.02L41.41 545.82" stroke="rgba(19, 46, 101, 0.32)" stroke-width="1.5"></path><path d="M-72.16 760.7L-72.16 760.7" stroke="rgba(19, 46, 101, 0.32)" stroke-width="1.5"></path><path d="M-72.16 760.7L-55.1 866.93" stroke="rgba(19, 46, 101, 0.32)" stroke-width="1.5"></path><path d="M-72.16 760.7L-39.62 625.02" stroke="rgba(19, 46, 101, 0.32)" stroke-width="1.5"></path><path d="M-72.16 760.7L71.95 732.47" stroke="rgba(19, 46, 101, 0.32)" stroke-width="1.5"></path><path d="M-72.16 760.7L41.99 854.92" stroke="rgba(19, 46, 101, 0.32)" stroke-width="1.5"></path><path d="M-72.16 760.7L70.2 663.63" stroke="rgba(19, 46, 101, 0.32)" stroke-width="1.5"></path><path d="M-55.1 866.93L-55.1 866.93" stroke="rgba(19, 46, 101, 0.32)" stroke-width="1.5"></path><path d="M-55.1 866.93L41.99 854.92" stroke="rgba(19, 46, 101, 0.32)" stroke-width="1.5"></path><path d="M-55.1 866.93L71.95 732.47" stroke="rgba(19, 46, 101, 0.32)" stroke-width="1.5"></path><path d="M-55.1 866.93L140.59 852.96" stroke="rgba(19, 46, 101, 0.32)" stroke-width="1.5"></path><path d="M41.41 545.82L41.41 545.82" stroke="rgba(19, 46, 101, 0.32)" stroke-width="1.5"></path><path d="M41.41 545.82L131.44 572.74" stroke="rgba(19, 46, 101, 0.32)" stroke-width="1.5"></path><path d="M41.41 545.82L70.2 663.63" stroke="rgba(19, 46, 101, 0.32)" stroke-width="1.5"></path><path d="M70.2 663.63L70.2 663.63" stroke="rgba(19, 46, 101, 0.32)" stroke-width="1.5"></path><path d="M70.2 663.63L71.95 732.47" stroke="rgba(19, 46, 101, 0.32)" stroke-width="1.5"></path><path d="M70.2 663.63L131.44 572.74" stroke="rgba(19, 46, 101, 0.32)" stroke-width="1.5"></path><path d="M70.2 663.63L-39.62 625.02" stroke="rgba(19, 46, 101, 0.32)" stroke-width="1.5"></path><path d="M70.2 663.63L140.22 769.57" stroke="rgba(19, 46, 101, 0.32)" stroke-width="1.5"></path><path d="M71.95 732.47L71.95 732.47" stroke="rgba(19, 46, 101, 0.32)" stroke-width="1.5"></path><path d="M71.95 732.47L140.22 769.57" stroke="rgba(19, 46, 101, 0.32)" stroke-width="1.5"></path><path d="M71.95 732.47L41.99 854.92" stroke="rgba(19, 46, 101, 0.32)" stroke-width="1.5"></path><path d="M71.95 732.47L140.59 852.96" stroke="rgba(19, 46, 101, 0.32)" stroke-width="1.5"></path><path d="M71.95 732.47L-39.62 625.02" stroke="rgba(19, 46, 101, 0.32)" stroke-width="1.5"></path><path d="M41.99 854.92L41.99 854.92" stroke="rgba(19, 46, 101, 0.32)" stroke-width="1.5"></path><path d="M41.99 854.92L140.59 852.96" stroke="rgba(19, 46, 101, 0.32)" stroke-width="1.5"></path><path d="M41.99 854.92L140.22 769.57" stroke="rgba(19, 46, 101, 0.32)" stroke-width="1.5"></path><path d="M41.99 854.92L70.2 663.63" stroke="rgba(19, 46, 101, 0.32)" stroke-width="1.5"></path><path d="M169.38 332.17L169.38 332.17" stroke="rgba(19, 46, 101, 0.32)" stroke-width="1.5"></path><path d="M169.38 332.17L237.59 228.55" stroke="rgba(19, 46, 101, 0.32)" stroke-width="1.5"></path><path d="M169.38 332.17L158.01 473.37" stroke="rgba(19, 46, 101, 0.32)" stroke-width="1.5"></path><path d="M169.38 332.17L255.58 457.29" stroke="rgba(19, 46, 101, 0.32)" stroke-width="1.5"></path><path d="M169.38 332.17L232.45 170.26" stroke="rgba(19, 46, 101, 0.32)" stroke-width="1.5"></path><path d="M169.38 332.17L346.21 273.75" stroke="rgba(19, 46, 101, 0.32)" stroke-width="1.5"></path><path d="M169.38 332.17L364.53 371.59" stroke="rgba(19, 46, 101, 0.32)" stroke-width="1.5"></path><path d="M158.01 473.37L158.01 473.37" stroke="rgba(19, 46, 101, 0.32)" stroke-width="1.5"></path><path d="M158.01 473.37L226.02 540.71" stroke="rgba(19, 46, 101, 0.32)" stroke-width="1.5"></path><path d="M158.01 473.37L255.58 457.29" stroke="rgba(19, 46, 101, 0.32)" stroke-width="1.5"></path><path d="M131.44 572.74L131.44 572.74" stroke="rgba(19, 46, 101, 0.32)" stroke-width="1.5"></path><path d="M131.44 572.74L226.02 540.71" stroke="rgba(19, 46, 101, 0.32)" stroke-width="1.5"></path><path d="M131.44 572.74L158.01 473.37" stroke="rgba(19, 46, 101, 0.32)" stroke-width="1.5"></path><path d="M131.44 572.74L251.55 632.44" stroke="rgba(19, 46, 101, 0.32)" stroke-width="1.5"></path><path d="M140.22 769.57L140.22 769.57" stroke="rgba(19, 46, 101, 0.32)" stroke-width="1.5"></path><path d="M140.22 769.57L140.59 852.96" stroke="rgba(19, 46, 101, 0.32)" stroke-width="1.5"></path><path d="M140.59 852.96L140.59 852.96" stroke="rgba(19, 46, 101, 0.32)" stroke-width="1.5"></path><path d="M140.59 852.96L264.6 840.57" stroke="rgba(19, 46, 101, 0.32)" stroke-width="1.5"></path><path d="M140.59 852.96L325.23 834.92" stroke="rgba(19, 46, 101, 0.32)" stroke-width="1.5"></path><path d="M240.15 44.68L240.15 44.68" stroke="rgba(19, 46, 101, 0.32)" stroke-width="1.5"></path><path d="M240.15 44.68L232.45 170.26" stroke="rgba(19, 46, 101, 0.32)" stroke-width="1.5"></path><path d="M240.15 44.68L373.36 169.61" stroke="rgba(19, 46, 101, 0.32)" stroke-width="1.5"></path><path d="M240.15 44.68L237.59 228.55" stroke="rgba(19, 46, 101, 0.32)" stroke-width="1.5"></path><path d="M232.45 170.26L232.45 170.26" stroke="rgba(19, 46, 101, 0.32)" stroke-width="1.5"></path><path d="M232.45 170.26L237.59 228.55" stroke="rgba(19, 46, 101, 0.32)" stroke-width="1.5"></path><path d="M237.59 228.55L237.59 228.55" stroke="rgba(19, 46, 101, 0.32)" stroke-width="1.5"></path><path d="M237.59 228.55L346.21 273.75" stroke="rgba(19, 46, 101, 0.32)" stroke-width="1.5"></path><path d="M237.59 228.55L373.36 169.61" stroke="rgba(19, 46, 101, 0.32)" stroke-width="1.5"></path><path d="M255.58 457.29L255.58 457.29" stroke="rgba(19, 46, 101, 0.32)" stroke-width="1.5"></path><path d="M255.58 457.29L226.02 540.71" stroke="rgba(19, 46, 101, 0.32)" stroke-width="1.5"></path><path d="M255.58 457.29L357.48 474.8" stroke="rgba(19, 46, 101, 0.32)" stroke-width="1.5"></path><path d="M255.58 457.29L340.85 553.69" stroke="rgba(19, 46, 101, 0.32)" stroke-width="1.5"></path><path d="M255.58 457.29L364.53 371.59" stroke="rgba(19, 46, 101, 0.32)" stroke-width="1.5"></path><path d="M226.02 540.71L226.02 540.71" stroke="rgba(19, 46, 101, 0.32)" stroke-width="1.5"></path><path d="M226.02 540.71L251.55 632.44" stroke="rgba(19, 46, 101, 0.32)" stroke-width="1.5"></path><path d="M226.02 540.71L340.85 553.69" stroke="rgba(19, 46, 101, 0.32)" stroke-width="1.5"></path><path d="M251.55 632.44L251.55 632.44" stroke="rgba(19, 46, 101, 0.32)" stroke-width="1.5"></path><path d="M251.55 632.44L330.26 644.77" stroke="rgba(19, 46, 101, 0.32)" stroke-width="1.5"></path><path d="M264.6 840.57L264.6 840.57" stroke="rgba(19, 46, 101, 0.32)" stroke-width="1.5"></path><path d="M264.6 840.57L325.23 834.92" stroke="rgba(19, 46, 101, 0.32)" stroke-width="1.5"></path><path d="M264.6 840.57L363.18 757.98" stroke="rgba(19, 46, 101, 0.32)" stroke-width="1.5"></path><path d="M264.6 840.57L140.22 769.57" stroke="rgba(19, 46, 101, 0.32)" stroke-width="1.5"></path><path d="M264.6 840.57L330.26 644.77" stroke="rgba(19, 46, 101, 0.32)" stroke-width="1.5"></path><path d="M264.6 840.57L251.55 632.44" stroke="rgba(19, 46, 101, 0.32)" stroke-width="1.5"></path><path d="M373.36 169.61L373.36 169.61" stroke="rgba(19, 46, 101, 0.32)" stroke-width="1.5"></path><path d="M373.36 169.61L346.21 273.75" stroke="rgba(19, 46, 101, 0.32)" stroke-width="1.5"></path><path d="M373.36 169.61L232.45 170.26" stroke="rgba(19, 46, 101, 0.32)" stroke-width="1.5"></path><path d="M346.21 273.75L346.21 273.75" stroke="rgba(19, 46, 101, 0.32)" stroke-width="1.5"></path><path d="M346.21 273.75L364.53 371.59" stroke="rgba(19, 46, 101, 0.32)" stroke-width="1.5"></path><path d="M364.53 371.59L364.53 371.59" stroke="rgba(19, 46, 101, 0.32)" stroke-width="1.5"></path><path d="M364.53 371.59L357.48 474.8" stroke="rgba(19, 46, 101, 0.32)" stroke-width="1.5"></path><path d="M357.48 474.8L357.48 474.8" stroke="rgba(19, 46, 101, 0.32)" stroke-width="1.5"></path><path d="M357.48 474.8L340.85 553.69" stroke="rgba(19, 46, 101, 0.32)" stroke-width="1.5"></path><path d="M340.85 553.69L340.85 553.69" stroke="rgba(19, 46, 101, 0.32)" stroke-width="1.5"></path><path d="M340.85 553.69L330.26 644.77" stroke="rgba(19, 46, 101, 0.32)" stroke-width="1.5"></path><path d="M340.85 553.69L251.55 632.44" stroke="rgba(19, 46, 101, 0.32)" stroke-width="1.5"></path><path d="M330.26 644.77L330.26 644.77" stroke="rgba(19, 46, 101, 0.32)" stroke-width="1.5"></path><path d="M330.26 644.77L363.18 757.98" stroke="rgba(19, 46, 101, 0.32)" stroke-width="1.5"></path><path d="M363.18 757.98L363.18 757.98" stroke="rgba(19, 46, 101, 0.32)" stroke-width="1.5"></path><path d="M363.18 757.98L325.23 834.92" stroke="rgba(19, 46, 101, 0.32)" stroke-width="1.5"></path><path d="M363.18 757.98L251.55 632.44" stroke="rgba(19, 46, 101, 0.32)" stroke-width="1.5"></path><path d="M363.18 757.98L340.85 553.69" stroke="rgba(19, 46, 101, 0.32)" stroke-width="1.5"></path><path d="M325.23 834.92L325.23 834.92" stroke="rgba(19, 46, 101, 0.32)" stroke-width="1.5"></path><path d="M325.23 834.92L330.26 644.77" stroke="rgba(19, 46, 101, 0.32)" stroke-width="1.5"></path><path d="M325.23 834.92L140.22 769.57" stroke="rgba(19, 46, 101, 0.32)" stroke-width="1.5"></path><path d="M325.23 834.92L251.55 632.44" stroke="rgba(19, 46, 101, 0.32)" stroke-width="1.5"></path><circle r="5" cx="-46.24" cy="555.66" fill="rgba(19, 46, 101, 0.32)"></circle><circle r="5" cx="-39.62" cy="625.02" fill="rgba(19, 46, 101, 0.32)"></circle><circle r="5" cx="-72.16" cy="760.7" fill="rgba(19, 46, 101, 0.32)"></circle><circle r="5" cx="-55.1" cy="866.93" fill="rgba(19, 46, 101, 0.32)"></circle><circle r="5" cx="41.41" cy="545.82" fill="rgba(19, 46, 101, 0.32)"></circle><circle r="5" cx="70.2" cy="663.63" fill="rgba(19, 46, 101, 0.32)"></circle><circle r="5" cx="71.95" cy="732.47" fill="rgba(19, 46, 101, 0.32)"></circle><circle r="5" cx="41.99" cy="854.92" fill="rgba(19, 46, 101, 0.32)"></circle><circle r="5" cx="169.38" cy="332.17" fill="rgba(19, 46, 101, 0.32)"></circle><circle r="5" cx="158.01" cy="473.37" fill="rgba(19, 46, 101, 0.32)"></circle><circle r="5" cx="131.44" cy="572.74" fill="rgba(19, 46, 101, 0.32)"></circle><circle r="5" cx="140.22" cy="769.57" fill="rgba(19, 46, 101, 0.32)"></circle><circle r="5" cx="140.59" cy="852.96" fill="rgba(19, 46, 101, 0.32)"></circle><circle r="5" cx="240.15" cy="44.68" fill="rgba(19, 46, 101, 0.32)"></circle><circle r="5" cx="232.45" cy="170.26" fill="rgba(19, 46, 101, 0.32)"></circle><circle r="5" cx="237.59" cy="228.55" fill="rgba(19, 46, 101, 0.32)"></circle><circle r="5" cx="255.58" cy="457.29" fill="rgba(19, 46, 101, 0.32)"></circle><circle r="5" cx="226.02" cy="540.71" fill="rgba(19, 46, 101, 0.32)"></circle><circle r="5" cx="251.55" cy="632.44" fill="rgba(19, 46, 101, 0.32)"></circle><circle r="5" cx="264.6" cy="840.57" fill="rgba(19, 46, 101, 0.32)"></circle><circle r="5" cx="373.36" cy="169.61" fill="rgba(19, 46, 101, 0.32)"></circle><circle r="5" cx="346.21" cy="273.75" fill="rgba(19, 46, 101, 0.32)"></circle><circle r="5" cx="364.53" cy="371.59" fill="rgba(19, 46, 101, 0.32)"></circle><circle r="5" cx="357.48" cy="474.8" fill="rgba(19, 46, 101, 0.32)"></circle><circle r="5" cx="340.85" cy="553.69" fill="rgba(19, 46, 101, 0.32)"></circle><circle r="5" cx="330.26" cy="644.77" fill="rgba(19, 46, 101, 0.32)"></circle><circle r="5" cx="363.18" cy="757.98" fill="rgba(19, 46, 101, 0.32)"></circle><circle r="5" cx="325.23" cy="834.92" fill="rgba(19, 46, 101, 0.32)"></circle><path d="M127.32 639.77L127.32 639.77" stroke="hsla(228.5, 77.2%, 51.5%, 0.56)" stroke-width="1.5"></path><path d="M127.32 639.77L148.16 529.73" stroke="hsla(228.5, 77.2%, 51.5%, 0.56)" stroke-width="1.5"></path><path d="M127.32 639.77L171.9 755.65" stroke="hsla(228.5, 77.2%, 51.5%, 0.56)" stroke-width="1.5"></path><path d="M127.32 639.77L54.64 742.38" stroke="hsla(228.5, 77.2%, 51.5%, 0.56)" stroke-width="1.5"></path><path d="M127.32 639.77L257.97 542.66" stroke="hsla(228.5, 77.2%, 51.5%, 0.56)" stroke-width="1.5"></path><path d="M350.62 -41.67L350.62 -41.67" stroke="hsla(228.5, 77.2%, 51.5%, 0.56)" stroke-width="1.5"></path><path d="M350.62 -41.67L332.31 66.25" stroke="hsla(228.5, 77.2%, 51.5%, 0.56)" stroke-width="1.5"></path><path d="M350.62 -41.67L245.29 -71.98" stroke="hsla(228.5, 77.2%, 51.5%, 0.56)" stroke-width="1.5"></path><path d="M-71.6 643.83L-71.6 643.83" stroke="hsla(228.5, 77.2%, 51.5%, 0.56)" stroke-width="1.5"></path><path d="M-71.6 643.83L-30.99 764.2" stroke="hsla(228.5, 77.2%, 51.5%, 0.56)" stroke-width="1.5"></path><path d="M-71.6 643.83L54.64 742.38" stroke="hsla(228.5, 77.2%, 51.5%, 0.56)" stroke-width="1.5"></path><path d="M-71.6 643.83L127.32 639.77" stroke="hsla(228.5, 77.2%, 51.5%, 0.56)" stroke-width="1.5"></path><path d="M-71.6 643.83L-55.87 868.7" stroke="hsla(228.5, 77.2%, 51.5%, 0.56)" stroke-width="1.5"></path><path d="M-71.6 643.83L148.16 529.73" stroke="hsla(228.5, 77.2%, 51.5%, 0.56)" stroke-width="1.5"></path><path d="M-30.99 764.2L-30.99 764.2" stroke="hsla(228.5, 77.2%, 51.5%, 0.56)" stroke-width="1.5"></path><path d="M-30.99 764.2L54.64 742.38" stroke="hsla(228.5, 77.2%, 51.5%, 0.56)" stroke-width="1.5"></path><path d="M-30.99 764.2L-55.87 868.7" stroke="hsla(228.5, 77.2%, 51.5%, 0.56)" stroke-width="1.5"></path><path d="M-55.87 868.7L-55.87 868.7" stroke="hsla(228.5, 77.2%, 51.5%, 0.56)" stroke-width="1.5"></path><path d="M-55.87 868.7L56.52 864.27" stroke="hsla(228.5, 77.2%, 51.5%, 0.56)" stroke-width="1.5"></path><path d="M-55.87 868.7L54.64 742.38" stroke="hsla(228.5, 77.2%, 51.5%, 0.56)" stroke-width="1.5"></path><path d="M54.64 742.38L54.64 742.38" stroke="hsla(228.5, 77.2%, 51.5%, 0.56)" stroke-width="1.5"></path><path d="M54.64 742.38L171.9 755.65" stroke="hsla(228.5, 77.2%, 51.5%, 0.56)" stroke-width="1.5"></path><path d="M54.64 742.38L56.52 864.27" stroke="hsla(228.5, 77.2%, 51.5%, 0.56)" stroke-width="1.5"></path><path d="M56.52 864.27L56.52 864.27" stroke="hsla(228.5, 77.2%, 51.5%, 0.56)" stroke-width="1.5"></path><path d="M56.52 864.27L136.97 857.12" stroke="hsla(228.5, 77.2%, 51.5%, 0.56)" stroke-width="1.5"></path><path d="M56.52 864.27L-30.99 764.2" stroke="hsla(228.5, 77.2%, 51.5%, 0.56)" stroke-width="1.5"></path><path d="M56.52 864.27L171.9 755.65" stroke="hsla(228.5, 77.2%, 51.5%, 0.56)" stroke-width="1.5"></path><path d="M148.16 529.73L148.16 529.73" stroke="hsla(228.5, 77.2%, 51.5%, 0.56)" stroke-width="1.5"></path><path d="M148.16 529.73L257.97 542.66" stroke="hsla(228.5, 77.2%, 51.5%, 0.56)" stroke-width="1.5"></path><path d="M148.16 529.73L262.84 456.64" stroke="hsla(228.5, 77.2%, 51.5%, 0.56)" stroke-width="1.5"></path><path d="M171.9 755.65L171.9 755.65" stroke="hsla(228.5, 77.2%, 51.5%, 0.56)" stroke-width="1.5"></path><path d="M171.9 755.65L268.91 737.24" stroke="hsla(228.5, 77.2%, 51.5%, 0.56)" stroke-width="1.5"></path><path d="M171.9 755.65L136.97 857.12" stroke="hsla(228.5, 77.2%, 51.5%, 0.56)" stroke-width="1.5"></path><path d="M136.97 857.12L136.97 857.12" stroke="hsla(228.5, 77.2%, 51.5%, 0.56)" stroke-width="1.5"></path><path d="M136.97 857.12L258.29 844.89" stroke="hsla(228.5, 77.2%, 51.5%, 0.56)" stroke-width="1.5"></path><path d="M245.29 -71.98L245.29 -71.98" stroke="hsla(228.5, 77.2%, 51.5%, 0.56)" stroke-width="1.5"></path><path d="M245.29 -71.98L241.8 70.23" stroke="hsla(228.5, 77.2%, 51.5%, 0.56)" stroke-width="1.5"></path><path d="M241.8 70.23L241.8 70.23" stroke="hsla(228.5, 77.2%, 51.5%, 0.56)" stroke-width="1.5"></path><path d="M241.8 70.23L260.3 139.28" stroke="hsla(228.5, 77.2%, 51.5%, 0.56)" stroke-width="1.5"></path><path d="M241.8 70.23L332.31 66.25" stroke="hsla(228.5, 77.2%, 51.5%, 0.56)" stroke-width="1.5"></path><path d="M241.8 70.23L350.62 -41.67" stroke="hsla(228.5, 77.2%, 51.5%, 0.56)" stroke-width="1.5"></path><path d="M241.8 70.23L246.63 255.88" stroke="hsla(228.5, 77.2%, 51.5%, 0.56)" stroke-width="1.5"></path><path d="M260.3 139.28L260.3 139.28" stroke="hsla(228.5, 77.2%, 51.5%, 0.56)" stroke-width="1.5"></path><path d="M260.3 139.28L332.31 66.25" stroke="hsla(228.5, 77.2%, 51.5%, 0.56)" stroke-width="1.5"></path><path d="M260.3 139.28L246.63 255.88" stroke="hsla(228.5, 77.2%, 51.5%, 0.56)" stroke-width="1.5"></path><path d="M260.3 139.28L371.04 241.77" stroke="hsla(228.5, 77.2%, 51.5%, 0.56)" stroke-width="1.5"></path><path d="M246.63 255.88L246.63 255.88" stroke="hsla(228.5, 77.2%, 51.5%, 0.56)" stroke-width="1.5"></path><path d="M246.63 255.88L274.17 350.37" stroke="hsla(228.5, 77.2%, 51.5%, 0.56)" stroke-width="1.5"></path><path d="M274.17 350.37L274.17 350.37" stroke="hsla(228.5, 77.2%, 51.5%, 0.56)" stroke-width="1.5"></path><path d="M274.17 350.37L371.58 337.61" stroke="hsla(228.5, 77.2%, 51.5%, 0.56)" stroke-width="1.5"></path><path d="M262.84 456.64L262.84 456.64" stroke="hsla(228.5, 77.2%, 51.5%, 0.56)" stroke-width="1.5"></path><path d="M262.84 456.64L257.97 542.66" stroke="hsla(228.5, 77.2%, 51.5%, 0.56)" stroke-width="1.5"></path><path d="M262.84 456.64L274.17 350.37" stroke="hsla(228.5, 77.2%, 51.5%, 0.56)" stroke-width="1.5"></path><path d="M262.84 456.64L371.59 434.9" stroke="hsla(228.5, 77.2%, 51.5%, 0.56)" stroke-width="1.5"></path><path d="M262.84 456.64L371.58 337.61" stroke="hsla(228.5, 77.2%, 51.5%, 0.56)" stroke-width="1.5"></path><path d="M262.84 456.64L246.63 255.88" stroke="hsla(228.5, 77.2%, 51.5%, 0.56)" stroke-width="1.5"></path><path d="M257.97 542.66L257.97 542.66" stroke="hsla(228.5, 77.2%, 51.5%, 0.56)" stroke-width="1.5"></path><path d="M268.91 737.24L268.91 737.24" stroke="hsla(228.5, 77.2%, 51.5%, 0.56)" stroke-width="1.5"></path><path d="M268.91 737.24L325.08 761.42" stroke="hsla(228.5, 77.2%, 51.5%, 0.56)" stroke-width="1.5"></path><path d="M268.91 737.24L258.29 844.89" stroke="hsla(228.5, 77.2%, 51.5%, 0.56)" stroke-width="1.5"></path><path d="M258.29 844.89L258.29 844.89" stroke="hsla(228.5, 77.2%, 51.5%, 0.56)" stroke-width="1.5"></path><path d="M258.29 844.89L348.1 839.48" stroke="hsla(228.5, 77.2%, 51.5%, 0.56)" stroke-width="1.5"></path><path d="M258.29 844.89L325.08 761.42" stroke="hsla(228.5, 77.2%, 51.5%, 0.56)" stroke-width="1.5"></path><path d="M258.29 844.89L171.9 755.65" stroke="hsla(228.5, 77.2%, 51.5%, 0.56)" stroke-width="1.5"></path><path d="M332.31 66.25L332.31 66.25" stroke="hsla(228.5, 77.2%, 51.5%, 0.56)" stroke-width="1.5"></path><path d="M371.04 241.77L371.04 241.77" stroke="hsla(228.5, 77.2%, 51.5%, 0.56)" stroke-width="1.5"></path><path d="M371.04 241.77L371.58 337.61" stroke="hsla(228.5, 77.2%, 51.5%, 0.56)" stroke-width="1.5"></path><path d="M371.04 241.77L246.63 255.88" stroke="hsla(228.5, 77.2%, 51.5%, 0.56)" stroke-width="1.5"></path><path d="M371.04 241.77L274.17 350.37" stroke="hsla(228.5, 77.2%, 51.5%, 0.56)" stroke-width="1.5"></path><path d="M371.04 241.77L332.31 66.25" stroke="hsla(228.5, 77.2%, 51.5%, 0.56)" stroke-width="1.5"></path><path d="M371.04 241.77L371.59 434.9" stroke="hsla(228.5, 77.2%, 51.5%, 0.56)" stroke-width="1.5"></path><path d="M371.58 337.61L371.58 337.61" stroke="hsla(228.5, 77.2%, 51.5%, 0.56)" stroke-width="1.5"></path><path d="M371.58 337.61L371.59 434.9" stroke="hsla(228.5, 77.2%, 51.5%, 0.56)" stroke-width="1.5"></path><path d="M371.58 337.61L246.63 255.88" stroke="hsla(228.5, 77.2%, 51.5%, 0.56)" stroke-width="1.5"></path><path d="M371.59 434.9L371.59 434.9" stroke="hsla(228.5, 77.2%, 51.5%, 0.56)" stroke-width="1.5"></path><path d="M371.59 434.9L274.17 350.37" stroke="hsla(228.5, 77.2%, 51.5%, 0.56)" stroke-width="1.5"></path><path d="M371.59 434.9L257.97 542.66" stroke="hsla(228.5, 77.2%, 51.5%, 0.56)" stroke-width="1.5"></path><path d="M369.05 651.66L369.05 651.66" stroke="hsla(228.5, 77.2%, 51.5%, 0.56)" stroke-width="1.5"></path><path d="M369.05 651.66L325.08 761.42" stroke="hsla(228.5, 77.2%, 51.5%, 0.56)" stroke-width="1.5"></path><path d="M369.05 651.66L268.91 737.24" stroke="hsla(228.5, 77.2%, 51.5%, 0.56)" stroke-width="1.5"></path><path d="M369.05 651.66L257.97 542.66" stroke="hsla(228.5, 77.2%, 51.5%, 0.56)" stroke-width="1.5"></path><path d="M369.05 651.66L348.1 839.48" stroke="hsla(228.5, 77.2%, 51.5%, 0.56)" stroke-width="1.5"></path><path d="M369.05 651.66L371.59 434.9" stroke="hsla(228.5, 77.2%, 51.5%, 0.56)" stroke-width="1.5"></path><path d="M325.08 761.42L325.08 761.42" stroke="hsla(228.5, 77.2%, 51.5%, 0.56)" stroke-width="1.5"></path><path d="M325.08 761.42L348.1 839.48" stroke="hsla(228.5, 77.2%, 51.5%, 0.56)" stroke-width="1.5"></path><path d="M348.1 839.48L348.1 839.48" stroke="hsla(228.5, 77.2%, 51.5%, 0.56)" stroke-width="1.5"></path><path d="M348.1 839.48L268.91 737.24" stroke="hsla(228.5, 77.2%, 51.5%, 0.56)" stroke-width="1.5"></path><path d="M348.1 839.48L171.9 755.65" stroke="hsla(228.5, 77.2%, 51.5%, 0.56)" stroke-width="1.5"></path><path d="M348.1 839.48L136.97 857.12" stroke="hsla(228.5, 77.2%, 51.5%, 0.56)" stroke-width="1.5"></path><circle r="25" cx="127.32" cy="639.77" fill="url(&quot;#SvgjsRadialGradient1110&quot;)"></circle><circle r="25" cx="350.62" cy="-41.67" fill="url(&quot;#SvgjsRadialGradient1110&quot;)"></circle><circle r="5" cx="-71.6" cy="643.83" fill="rgba(190, 198, 234, 0.78)"></circle><circle r="5" cx="-30.99" cy="764.2" fill="rgba(190, 198, 234, 0.78)"></circle><circle r="5" cx="-55.87" cy="868.7" fill="rgba(190, 198, 234, 0.78)"></circle><circle r="5" cx="54.64" cy="742.38" fill="rgba(190, 198, 234, 0.78)"></circle><circle r="5" cx="56.52" cy="864.27" fill="rgba(190, 198, 234, 0.78)"></circle><circle r="5" cx="148.16" cy="529.73" fill="rgba(190, 198, 234, 0.78)"></circle><circle r="5" cx="171.9" cy="755.65" fill="rgba(190, 198, 234, 0.78)"></circle><circle r="5" cx="136.97" cy="857.12" fill="rgba(190, 198, 234, 0.78)"></circle><circle r="5" cx="245.29" cy="-71.98" fill="rgba(190, 198, 234, 0.78)"></circle><circle r="5" cx="241.8" cy="70.23" fill="rgba(190, 198, 234, 0.78)"></circle><circle r="5" cx="260.3" cy="139.28" fill="rgba(190, 198, 234, 0.78)"></circle><circle r="5" cx="246.63" cy="255.88" fill="rgba(190, 198, 234, 0.78)"></circle><circle r="5" cx="274.17" cy="350.37" fill="rgba(190, 198, 234, 0.78)"></circle><circle r="5" cx="262.84" cy="456.64" fill="rgba(190, 198, 234, 0.78)"></circle><circle r="5" cx="257.97" cy="542.66" fill="rgba(190, 198, 234, 0.78)"></circle><circle r="5" cx="268.91" cy="737.24" fill="rgba(190, 198, 234, 0.78)"></circle><circle r="5" cx="258.29" cy="844.89" fill="rgba(190, 198, 234, 0.78)"></circle><circle r="5" cx="332.31" cy="66.25" fill="rgba(190, 198, 234, 0.78)"></circle><circle r="5" cx="371.04" cy="241.77" fill="rgba(190, 198, 234, 0.78)"></circle><circle r="5" cx="371.58" cy="337.61" fill="rgba(190, 198, 234, 0.78)"></circle><circle r="5" cx="371.59" cy="434.9" fill="rgba(190, 198, 234, 0.78)"></circle><circle r="5" cx="369.05" cy="651.66" fill="rgba(190, 198, 234, 0.78)"></circle><circle r="5" cx="325.08" cy="761.42" fill="rgba(190, 198, 234, 0.78)"></circle><circle r="5" cx="348.1" cy="839.48" fill="rgba(190, 198, 234, 0.78)"></circle></g><defs><mask id="SvgjsMask1109"><rect width="300" height="800" fill="#ffffff"></rect></mask><radialGradient id="SvgjsRadialGradient1110"><stop stop-color="#ffffff" offset="0.1"></stop><stop stop-color="rgba(23, 53, 179, 0.56)" offset="0.2"></stop><stop stop-color="rgba(23, 53, 179, 0)" offset="1"></stop></radialGradient></defs></svg>