<svg xmlns="http://www.w3.org/2000/svg" version="1.1" xmlns:xlink="http://www.w3.org/1999/xlink" xmlns:svgjs="http://svgjs.dev/svgjs" width="800" height="100" preserveAspectRatio="none" viewBox="0 0 800 100"><g mask="url(&quot;#SvgjsMask1036&quot;)" fill="none"><path d="M-71.12 164.14L-71.12 164.14" stroke="rgba(19, 46, 101, 0.32)" stroke-width="1.5"></path><path d="M-71.12 164.14L38.35 167.11" stroke="rgba(19, 46, 101, 0.32)" stroke-width="1.5"></path><path d="M-71.12 164.14L272.98 166.77" stroke="rgba(19, 46, 101, 0.32)" stroke-width="1.5"></path><path d="M38.35 167.11L38.35 167.11" stroke="rgba(19, 46, 101, 0.32)" stroke-width="1.5"></path><path d="M38.35 167.11L272.98 166.77" stroke="rgba(19, 46, 101, 0.32)" stroke-width="1.5"></path><path d="M38.35 167.11L340.34 153.28" stroke="rgba(19, 46, 101, 0.32)" stroke-width="1.5"></path><path d="M272.98 166.77L272.98 166.77" stroke="rgba(19, 46, 101, 0.32)" stroke-width="1.5"></path><path d="M272.98 166.77L340.34 153.28" stroke="rgba(19, 46, 101, 0.32)" stroke-width="1.5"></path><path d="M272.98 166.77L456.32 141.22" stroke="rgba(19, 46, 101, 0.32)" stroke-width="1.5"></path><path d="M340.34 153.28L340.34 153.28" stroke="rgba(19, 46, 101, 0.32)" stroke-width="1.5"></path><path d="M340.34 153.28L456.32 141.22" stroke="rgba(19, 46, 101, 0.32)" stroke-width="1.5"></path><path d="M340.34 153.28L472.01 39.29" stroke="rgba(19, 46, 101, 0.32)" stroke-width="1.5"></path><path d="M340.34 153.28L545.58 150.44" stroke="rgba(19, 46, 101, 0.32)" stroke-width="1.5"></path><path d="M472.01 39.29L472.01 39.29" stroke="rgba(19, 46, 101, 0.32)" stroke-width="1.5"></path><path d="M472.01 39.29L566.97 33.48" stroke="rgba(19, 46, 101, 0.32)" stroke-width="1.5"></path><path d="M472.01 39.29L456.32 141.22" stroke="rgba(19, 46, 101, 0.32)" stroke-width="1.5"></path><path d="M472.01 39.29L544.92 -54.82" stroke="rgba(19, 46, 101, 0.32)" stroke-width="1.5"></path><path d="M472.01 39.29L545.58 150.44" stroke="rgba(19, 46, 101, 0.32)" stroke-width="1.5"></path><path d="M456.32 141.22L456.32 141.22" stroke="rgba(19, 46, 101, 0.32)" stroke-width="1.5"></path><path d="M456.32 141.22L545.58 150.44" stroke="rgba(19, 46, 101, 0.32)" stroke-width="1.5"></path><path d="M456.32 141.22L566.97 33.48" stroke="rgba(19, 46, 101, 0.32)" stroke-width="1.5"></path><path d="M544.92 -54.82L544.92 -54.82" stroke="rgba(19, 46, 101, 0.32)" stroke-width="1.5"></path><path d="M544.92 -54.82L566.97 33.48" stroke="rgba(19, 46, 101, 0.32)" stroke-width="1.5"></path><path d="M544.92 -54.82L654.08 -68.88" stroke="rgba(19, 46, 101, 0.32)" stroke-width="1.5"></path><path d="M544.92 -54.82L658.33 58.49" stroke="rgba(19, 46, 101, 0.32)" stroke-width="1.5"></path><path d="M544.92 -54.82L727.21 -35.81" stroke="rgba(19, 46, 101, 0.32)" stroke-width="1.5"></path><path d="M566.97 33.48L566.97 33.48" stroke="rgba(19, 46, 101, 0.32)" stroke-width="1.5"></path><path d="M566.97 33.48L658.33 58.49" stroke="rgba(19, 46, 101, 0.32)" stroke-width="1.5"></path><path d="M545.58 150.44L545.58 150.44" stroke="rgba(19, 46, 101, 0.32)" stroke-width="1.5"></path><path d="M545.58 150.44L643.92 169.13" stroke="rgba(19, 46, 101, 0.32)" stroke-width="1.5"></path><path d="M545.58 150.44L566.97 33.48" stroke="rgba(19, 46, 101, 0.32)" stroke-width="1.5"></path><path d="M545.58 150.44L658.33 58.49" stroke="rgba(19, 46, 101, 0.32)" stroke-width="1.5"></path><path d="M654.08 -68.88L654.08 -68.88" stroke="rgba(19, 46, 101, 0.32)" stroke-width="1.5"></path><path d="M654.08 -68.88L727.21 -35.81" stroke="rgba(19, 46, 101, 0.32)" stroke-width="1.5"></path><path d="M654.08 -68.88L658.33 58.49" stroke="rgba(19, 46, 101, 0.32)" stroke-width="1.5"></path><path d="M654.08 -68.88L566.97 33.48" stroke="rgba(19, 46, 101, 0.32)" stroke-width="1.5"></path><path d="M654.08 -68.88L733.77 45.62" stroke="rgba(19, 46, 101, 0.32)" stroke-width="1.5"></path><path d="M654.08 -68.88L833.32 -73.66" stroke="rgba(19, 46, 101, 0.32)" stroke-width="1.5"></path><path d="M658.33 58.49L658.33 58.49" stroke="rgba(19, 46, 101, 0.32)" stroke-width="1.5"></path><path d="M658.33 58.49L733.77 45.62" stroke="rgba(19, 46, 101, 0.32)" stroke-width="1.5"></path><path d="M643.92 169.13L643.92 169.13" stroke="rgba(19, 46, 101, 0.32)" stroke-width="1.5"></path><path d="M643.92 169.13L740.31 127.63" stroke="rgba(19, 46, 101, 0.32)" stroke-width="1.5"></path><path d="M643.92 169.13L658.33 58.49" stroke="rgba(19, 46, 101, 0.32)" stroke-width="1.5"></path><path d="M643.92 169.13L733.77 45.62" stroke="rgba(19, 46, 101, 0.32)" stroke-width="1.5"></path><path d="M727.21 -35.81L727.21 -35.81" stroke="rgba(19, 46, 101, 0.32)" stroke-width="1.5"></path><path d="M727.21 -35.81L733.77 45.62" stroke="rgba(19, 46, 101, 0.32)" stroke-width="1.5"></path><path d="M727.21 -35.81L833.32 -73.66" stroke="rgba(19, 46, 101, 0.32)" stroke-width="1.5"></path><path d="M727.21 -35.81L658.33 58.49" stroke="rgba(19, 46, 101, 0.32)" stroke-width="1.5"></path><path d="M727.21 -35.81L825.37 56.54" stroke="rgba(19, 46, 101, 0.32)" stroke-width="1.5"></path><path d="M727.21 -35.81L740.31 127.63" stroke="rgba(19, 46, 101, 0.32)" stroke-width="1.5"></path><path d="M733.77 45.62L733.77 45.62" stroke="rgba(19, 46, 101, 0.32)" stroke-width="1.5"></path><path d="M733.77 45.62L740.31 127.63" stroke="rgba(19, 46, 101, 0.32)" stroke-width="1.5"></path><path d="M733.77 45.62L825.37 56.54" stroke="rgba(19, 46, 101, 0.32)" stroke-width="1.5"></path><path d="M740.31 127.63L740.31 127.63" stroke="rgba(19, 46, 101, 0.32)" stroke-width="1.5"></path><path d="M740.31 127.63L658.33 58.49" stroke="rgba(19, 46, 101, 0.32)" stroke-width="1.5"></path><path d="M740.31 127.63L825.37 56.54" stroke="rgba(19, 46, 101, 0.32)" stroke-width="1.5"></path><path d="M833.32 -73.66L833.32 -73.66" stroke="rgba(19, 46, 101, 0.32)" stroke-width="1.5"></path><path d="M833.32 -73.66L825.37 56.54" stroke="rgba(19, 46, 101, 0.32)" stroke-width="1.5"></path><path d="M833.32 -73.66L733.77 45.62" stroke="rgba(19, 46, 101, 0.32)" stroke-width="1.5"></path><path d="M825.37 56.54L825.37 56.54" stroke="rgba(19, 46, 101, 0.32)" stroke-width="1.5"></path><path d="M825.37 56.54L849.71 159.38" stroke="rgba(19, 46, 101, 0.32)" stroke-width="1.5"></path><path d="M849.71 159.38L849.71 159.38" stroke="rgba(19, 46, 101, 0.32)" stroke-width="1.5"></path><path d="M849.71 159.38L740.31 127.63" stroke="rgba(19, 46, 101, 0.32)" stroke-width="1.5"></path><path d="M849.71 159.38L733.77 45.62" stroke="rgba(19, 46, 101, 0.32)" stroke-width="1.5"></path><circle r="5" cx="-71.12" cy="164.14" fill="rgba(19, 46, 101, 0.32)"></circle><circle r="5" cx="38.35" cy="167.11" fill="rgba(19, 46, 101, 0.32)"></circle><circle r="5" cx="272.98" cy="166.77" fill="rgba(19, 46, 101, 0.32)"></circle><circle r="5" cx="340.34" cy="153.28" fill="rgba(19, 46, 101, 0.32)"></circle><circle r="5" cx="472.01" cy="39.29" fill="rgba(19, 46, 101, 0.32)"></circle><circle r="5" cx="456.32" cy="141.22" fill="rgba(19, 46, 101, 0.32)"></circle><circle r="5" cx="544.92" cy="-54.82" fill="rgba(19, 46, 101, 0.32)"></circle><circle r="5" cx="566.97" cy="33.48" fill="rgba(19, 46, 101, 0.32)"></circle><circle r="5" cx="545.58" cy="150.44" fill="rgba(19, 46, 101, 0.32)"></circle><circle r="5" cx="654.08" cy="-68.88" fill="rgba(19, 46, 101, 0.32)"></circle><circle r="5" cx="658.33" cy="58.49" fill="rgba(19, 46, 101, 0.32)"></circle><circle r="5" cx="643.92" cy="169.13" fill="rgba(19, 46, 101, 0.32)"></circle><circle r="5" cx="727.21" cy="-35.81" fill="rgba(19, 46, 101, 0.32)"></circle><circle r="5" cx="733.77" cy="45.62" fill="rgba(19, 46, 101, 0.32)"></circle><circle r="5" cx="740.31" cy="127.63" fill="rgba(19, 46, 101, 0.32)"></circle><circle r="5" cx="833.32" cy="-73.66" fill="rgba(19, 46, 101, 0.32)"></circle><circle r="5" cx="825.37" cy="56.54" fill="rgba(19, 46, 101, 0.32)"></circle><circle r="5" cx="849.71" cy="159.38" fill="rgba(19, 46, 101, 0.32)"></circle><path d="M57.59 164.93L57.59 164.93" stroke="hsla(228.5, 77.2%, 51.5%, 0.56)" stroke-width="1.5"></path><path d="M57.59 164.93L162.7 131.49" stroke="hsla(228.5, 77.2%, 51.5%, 0.56)" stroke-width="1.5"></path><path d="M57.59 164.93L229.79 127.57" stroke="hsla(228.5, 77.2%, 51.5%, 0.56)" stroke-width="1.5"></path><path d="M640.48 -58.51L640.48 -58.51" stroke="hsla(228.5, 77.2%, 51.5%, 0.56)" stroke-width="1.5"></path><path d="M640.48 -58.51L663.47 65.35" stroke="hsla(228.5, 77.2%, 51.5%, 0.56)" stroke-width="1.5"></path><path d="M640.48 -58.51L741.66 28.75" stroke="hsla(228.5, 77.2%, 51.5%, 0.56)" stroke-width="1.5"></path><path d="M640.48 -58.51L626.68 130.62" stroke="hsla(228.5, 77.2%, 51.5%, 0.56)" stroke-width="1.5"></path><path d="M640.48 -58.51L830.03 -38.49" stroke="hsla(228.5, 77.2%, 51.5%, 0.56)" stroke-width="1.5"></path><path d="M626.68 130.62L626.68 130.62" stroke="hsla(228.5, 77.2%, 51.5%, 0.56)" stroke-width="1.5"></path><path d="M626.68 130.62L663.47 65.35" stroke="hsla(228.5, 77.2%, 51.5%, 0.56)" stroke-width="1.5"></path><path d="M626.68 130.62L749.47 128.04" stroke="hsla(228.5, 77.2%, 51.5%, 0.56)" stroke-width="1.5"></path><path d="M162.7 131.49L162.7 131.49" stroke="hsla(228.5, 77.2%, 51.5%, 0.56)" stroke-width="1.5"></path><path d="M162.7 131.49L229.79 127.57" stroke="hsla(228.5, 77.2%, 51.5%, 0.56)" stroke-width="1.5"></path><path d="M162.7 131.49L364.75 154.95" stroke="hsla(228.5, 77.2%, 51.5%, 0.56)" stroke-width="1.5"></path><path d="M229.79 127.57L229.79 127.57" stroke="hsla(228.5, 77.2%, 51.5%, 0.56)" stroke-width="1.5"></path><path d="M229.79 127.57L364.75 154.95" stroke="hsla(228.5, 77.2%, 51.5%, 0.56)" stroke-width="1.5"></path><path d="M229.79 127.57L437.52 65.8" stroke="hsla(228.5, 77.2%, 51.5%, 0.56)" stroke-width="1.5"></path><path d="M229.79 127.57L463.1 128.49" stroke="hsla(228.5, 77.2%, 51.5%, 0.56)" stroke-width="1.5"></path><path d="M229.79 127.57L626.68 130.62" stroke="hsla(228.5, 77.2%, 51.5%, 0.56)" stroke-width="1.5"></path><path d="M364.75 154.95L364.75 154.95" stroke="hsla(228.5, 77.2%, 51.5%, 0.56)" stroke-width="1.5"></path><path d="M364.75 154.95L463.1 128.49" stroke="hsla(228.5, 77.2%, 51.5%, 0.56)" stroke-width="1.5"></path><path d="M364.75 154.95L437.52 65.8" stroke="hsla(228.5, 77.2%, 51.5%, 0.56)" stroke-width="1.5"></path><path d="M437.52 65.8L437.52 65.8" stroke="hsla(228.5, 77.2%, 51.5%, 0.56)" stroke-width="1.5"></path><path d="M437.52 65.8L463.1 128.49" stroke="hsla(228.5, 77.2%, 51.5%, 0.56)" stroke-width="1.5"></path><path d="M437.52 65.8L626.68 130.62" stroke="hsla(228.5, 77.2%, 51.5%, 0.56)" stroke-width="1.5"></path><path d="M437.52 65.8L663.47 65.35" stroke="hsla(228.5, 77.2%, 51.5%, 0.56)" stroke-width="1.5"></path><path d="M463.1 128.49L463.1 128.49" stroke="hsla(228.5, 77.2%, 51.5%, 0.56)" stroke-width="1.5"></path><path d="M463.1 128.49L626.68 130.62" stroke="hsla(228.5, 77.2%, 51.5%, 0.56)" stroke-width="1.5"></path><path d="M463.1 128.49L663.47 65.35" stroke="hsla(228.5, 77.2%, 51.5%, 0.56)" stroke-width="1.5"></path><path d="M463.1 128.49L640.48 -58.51" stroke="hsla(228.5, 77.2%, 51.5%, 0.56)" stroke-width="1.5"></path><path d="M663.47 65.35L663.47 65.35" stroke="hsla(228.5, 77.2%, 51.5%, 0.56)" stroke-width="1.5"></path><path d="M663.47 65.35L741.66 28.75" stroke="hsla(228.5, 77.2%, 51.5%, 0.56)" stroke-width="1.5"></path><path d="M663.47 65.35L749.47 128.04" stroke="hsla(228.5, 77.2%, 51.5%, 0.56)" stroke-width="1.5"></path><path d="M741.66 28.75L741.66 28.75" stroke="hsla(228.5, 77.2%, 51.5%, 0.56)" stroke-width="1.5"></path><path d="M741.66 28.75L749.47 128.04" stroke="hsla(228.5, 77.2%, 51.5%, 0.56)" stroke-width="1.5"></path><path d="M741.66 28.75L830.03 -38.49" stroke="hsla(228.5, 77.2%, 51.5%, 0.56)" stroke-width="1.5"></path><path d="M749.47 128.04L749.47 128.04" stroke="hsla(228.5, 77.2%, 51.5%, 0.56)" stroke-width="1.5"></path><path d="M749.47 128.04L847.68 136.33" stroke="hsla(228.5, 77.2%, 51.5%, 0.56)" stroke-width="1.5"></path><path d="M749.47 128.04L830.03 -38.49" stroke="hsla(228.5, 77.2%, 51.5%, 0.56)" stroke-width="1.5"></path><path d="M749.47 128.04L640.48 -58.51" stroke="hsla(228.5, 77.2%, 51.5%, 0.56)" stroke-width="1.5"></path><path d="M830.03 -38.49L830.03 -38.49" stroke="hsla(228.5, 77.2%, 51.5%, 0.56)" stroke-width="1.5"></path><path d="M830.03 -38.49L847.68 136.33" stroke="hsla(228.5, 77.2%, 51.5%, 0.56)" stroke-width="1.5"></path><path d="M847.68 136.33L847.68 136.33" stroke="hsla(228.5, 77.2%, 51.5%, 0.56)" stroke-width="1.5"></path><path d="M847.68 136.33L741.66 28.75" stroke="hsla(228.5, 77.2%, 51.5%, 0.56)" stroke-width="1.5"></path><path d="M847.68 136.33L663.47 65.35" stroke="hsla(228.5, 77.2%, 51.5%, 0.56)" stroke-width="1.5"></path><path d="M847.68 136.33L626.68 130.62" stroke="hsla(228.5, 77.2%, 51.5%, 0.56)" stroke-width="1.5"></path><path d="M847.68 136.33L640.48 -58.51" stroke="hsla(228.5, 77.2%, 51.5%, 0.56)" stroke-width="1.5"></path><circle r="25" cx="57.59" cy="164.93" fill="url(&quot;#SvgjsRadialGradient1037&quot;)"></circle><circle r="25" cx="640.48" cy="-58.51" fill="url(&quot;#SvgjsRadialGradient1037&quot;)"></circle><circle r="25" cx="626.68" cy="130.62" fill="url(&quot;#SvgjsRadialGradient1037&quot;)"></circle><circle r="5" cx="162.7" cy="131.49" fill="rgba(190, 198, 234, 0.78)"></circle><circle r="5" cx="229.79" cy="127.57" fill="rgba(190, 198, 234, 0.78)"></circle><circle r="5" cx="364.75" cy="154.95" fill="rgba(190, 198, 234, 0.78)"></circle><circle r="5" cx="437.52" cy="65.8" fill="rgba(190, 198, 234, 0.78)"></circle><circle r="5" cx="463.1" cy="128.49" fill="rgba(190, 198, 234, 0.78)"></circle><circle r="5" cx="663.47" cy="65.35" fill="rgba(190, 198, 234, 0.78)"></circle><circle r="5" cx="741.66" cy="28.75" fill="rgba(190, 198, 234, 0.78)"></circle><circle r="5" cx="749.47" cy="128.04" fill="rgba(190, 198, 234, 0.78)"></circle><circle r="5" cx="830.03" cy="-38.49" fill="rgba(190, 198, 234, 0.78)"></circle><circle r="5" cx="847.68" cy="136.33" fill="rgba(190, 198, 234, 0.78)"></circle></g><defs><mask id="SvgjsMask1036"><rect width="800" height="100" fill="#ffffff"></rect></mask><radialGradient id="SvgjsRadialGradient1037"><stop stop-color="#ffffff" offset="0.1"></stop><stop stop-color="rgba(23, 53, 179, 0.56)" offset="0.2"></stop><stop stop-color="rgba(23, 53, 179, 0)" offset="1"></stop></radialGradient></defs></svg>