<svg xmlns="http://www.w3.org/2000/svg" version="1.1" xmlns:xlink="http://www.w3.org/1999/xlink" xmlns:svgjs="http://svgjs.dev/svgjs" width="300" height="800" preserveAspectRatio="none" viewBox="0 0 300 800"><g mask="url(&quot;#SvgjsMask1060&quot;)" fill="none"><path d="M-42.2 466.72L-42.2 466.72" stroke="rgba(176, 184, 229, 0.32)" stroke-width="1.5"></path><path d="M-42.2 466.72L-45.82 533.51" stroke="rgba(176, 184, 229, 0.32)" stroke-width="1.5"></path><path d="M-42.2 466.72L41.98 550.96" stroke="rgba(176, 184, 229, 0.32)" stroke-width="1.5"></path><path d="M-45.82 533.51L-45.82 533.51" stroke="rgba(176, 184, 229, 0.32)" stroke-width="1.5"></path><path d="M-45.82 533.51L41.98 550.96" stroke="rgba(176, 184, 229, 0.32)" stroke-width="1.5"></path><path d="M-56.89 651.87L-56.89 651.87" stroke="rgba(176, 184, 229, 0.32)" stroke-width="1.5"></path><path d="M-56.89 651.87L-72.12 739.69" stroke="rgba(176, 184, 229, 0.32)" stroke-width="1.5"></path><path d="M-72.12 739.69L-72.12 739.69" stroke="rgba(176, 184, 229, 0.32)" stroke-width="1.5"></path><path d="M-72.12 739.69L-43.03 841.22" stroke="rgba(176, 184, 229, 0.32)" stroke-width="1.5"></path><path d="M-43.03 841.22L-43.03 841.22" stroke="rgba(176, 184, 229, 0.32)" stroke-width="1.5"></path><path d="M-43.03 841.22L29.14 861.91" stroke="rgba(176, 184, 229, 0.32)" stroke-width="1.5"></path><path d="M-43.03 841.22L48.68 764.22" stroke="rgba(176, 184, 229, 0.32)" stroke-width="1.5"></path><path d="M-43.03 841.22L-56.89 651.87" stroke="rgba(176, 184, 229, 0.32)" stroke-width="1.5"></path><path d="M-43.03 841.22L154.02 847.26" stroke="rgba(176, 184, 229, 0.32)" stroke-width="1.5"></path><path d="M41.98 550.96L41.98 550.96" stroke="rgba(176, 184, 229, 0.32)" stroke-width="1.5"></path><path d="M41.98 550.96L38.56 632.98" stroke="rgba(176, 184, 229, 0.32)" stroke-width="1.5"></path><path d="M38.56 632.98L38.56 632.98" stroke="rgba(176, 184, 229, 0.32)" stroke-width="1.5"></path><path d="M38.56 632.98L-56.89 651.87" stroke="rgba(176, 184, 229, 0.32)" stroke-width="1.5"></path><path d="M48.68 764.22L48.68 764.22" stroke="rgba(176, 184, 229, 0.32)" stroke-width="1.5"></path><path d="M48.68 764.22L145.68 762.26" stroke="rgba(176, 184, 229, 0.32)" stroke-width="1.5"></path><path d="M48.68 764.22L29.14 861.91" stroke="rgba(176, 184, 229, 0.32)" stroke-width="1.5"></path><path d="M48.68 764.22L-72.12 739.69" stroke="rgba(176, 184, 229, 0.32)" stroke-width="1.5"></path><path d="M29.14 861.91L29.14 861.91" stroke="rgba(176, 184, 229, 0.32)" stroke-width="1.5"></path><path d="M29.14 861.91L154.02 847.26" stroke="rgba(176, 184, 229, 0.32)" stroke-width="1.5"></path><path d="M29.14 861.91L145.68 762.26" stroke="rgba(176, 184, 229, 0.32)" stroke-width="1.5"></path><path d="M160.9 374.16L160.9 374.16" stroke="rgba(176, 184, 229, 0.32)" stroke-width="1.5"></path><path d="M160.9 374.16L248.37 366.15" stroke="rgba(176, 184, 229, 0.32)" stroke-width="1.5"></path><path d="M160.9 374.16L152.34 464.37" stroke="rgba(176, 184, 229, 0.32)" stroke-width="1.5"></path><path d="M152.34 464.37L152.34 464.37" stroke="rgba(176, 184, 229, 0.32)" stroke-width="1.5"></path><path d="M152.34 464.37L161.43 563.95" stroke="rgba(176, 184, 229, 0.32)" stroke-width="1.5"></path><path d="M152.34 464.37L270.96 460.03" stroke="rgba(176, 184, 229, 0.32)" stroke-width="1.5"></path><path d="M152.34 464.37L265.4 540.79" stroke="rgba(176, 184, 229, 0.32)" stroke-width="1.5"></path><path d="M161.43 563.95L161.43 563.95" stroke="rgba(176, 184, 229, 0.32)" stroke-width="1.5"></path><path d="M161.43 563.95L172.84 657.19" stroke="rgba(176, 184, 229, 0.32)" stroke-width="1.5"></path><path d="M161.43 563.95L228.87 630.74" stroke="rgba(176, 184, 229, 0.32)" stroke-width="1.5"></path><path d="M161.43 563.95L265.4 540.79" stroke="rgba(176, 184, 229, 0.32)" stroke-width="1.5"></path><path d="M161.43 563.95L41.98 550.96" stroke="rgba(176, 184, 229, 0.32)" stroke-width="1.5"></path><path d="M172.84 657.19L172.84 657.19" stroke="rgba(176, 184, 229, 0.32)" stroke-width="1.5"></path><path d="M172.84 657.19L228.87 630.74" stroke="rgba(176, 184, 229, 0.32)" stroke-width="1.5"></path><path d="M172.84 657.19L145.68 762.26" stroke="rgba(176, 184, 229, 0.32)" stroke-width="1.5"></path><path d="M145.68 762.26L145.68 762.26" stroke="rgba(176, 184, 229, 0.32)" stroke-width="1.5"></path><path d="M145.68 762.26L154.02 847.26" stroke="rgba(176, 184, 229, 0.32)" stroke-width="1.5"></path><path d="M145.68 762.26L267.74 764.36" stroke="rgba(176, 184, 229, 0.32)" stroke-width="1.5"></path><path d="M145.68 762.26L249.04 871.41" stroke="rgba(176, 184, 229, 0.32)" stroke-width="1.5"></path><path d="M154.02 847.26L154.02 847.26" stroke="rgba(176, 184, 229, 0.32)" stroke-width="1.5"></path><path d="M154.02 847.26L249.04 871.41" stroke="rgba(176, 184, 229, 0.32)" stroke-width="1.5"></path><path d="M274.01 -56.21L274.01 -56.21" stroke="rgba(176, 184, 229, 0.32)" stroke-width="1.5"></path><path d="M274.01 -56.21L325.64 -68.16" stroke="rgba(176, 184, 229, 0.32)" stroke-width="1.5"></path><path d="M274.01 -56.21L353.49 69.56" stroke="rgba(176, 184, 229, 0.32)" stroke-width="1.5"></path><path d="M274.01 -56.21L325.24 143.19" stroke="rgba(176, 184, 229, 0.32)" stroke-width="1.5"></path><path d="M274.01 -56.21L240.06 148.86" stroke="rgba(176, 184, 229, 0.32)" stroke-width="1.5"></path><path d="M274.01 -56.21L255.6 265.48" stroke="rgba(176, 184, 229, 0.32)" stroke-width="1.5"></path><path d="M274.01 -56.21L345.27 274.37" stroke="rgba(176, 184, 229, 0.32)" stroke-width="1.5"></path><path d="M240.06 148.86L240.06 148.86" stroke="rgba(176, 184, 229, 0.32)" stroke-width="1.5"></path><path d="M240.06 148.86L325.24 143.19" stroke="rgba(176, 184, 229, 0.32)" stroke-width="1.5"></path><path d="M240.06 148.86L255.6 265.48" stroke="rgba(176, 184, 229, 0.32)" stroke-width="1.5"></path><path d="M240.06 148.86L353.49 69.56" stroke="rgba(176, 184, 229, 0.32)" stroke-width="1.5"></path><path d="M240.06 148.86L345.27 274.37" stroke="rgba(176, 184, 229, 0.32)" stroke-width="1.5"></path><path d="M255.6 265.48L255.6 265.48" stroke="rgba(176, 184, 229, 0.32)" stroke-width="1.5"></path><path d="M255.6 265.48L345.27 274.37" stroke="rgba(176, 184, 229, 0.32)" stroke-width="1.5"></path><path d="M255.6 265.48L248.37 366.15" stroke="rgba(176, 184, 229, 0.32)" stroke-width="1.5"></path><path d="M255.6 265.48L354.43 345.62" stroke="rgba(176, 184, 229, 0.32)" stroke-width="1.5"></path><path d="M255.6 265.48L325.24 143.19" stroke="rgba(176, 184, 229, 0.32)" stroke-width="1.5"></path><path d="M248.37 366.15L248.37 366.15" stroke="rgba(176, 184, 229, 0.32)" stroke-width="1.5"></path><path d="M270.96 460.03L270.96 460.03" stroke="rgba(176, 184, 229, 0.32)" stroke-width="1.5"></path><path d="M270.96 460.03L265.4 540.79" stroke="rgba(176, 184, 229, 0.32)" stroke-width="1.5"></path><path d="M270.96 460.03L362.67 463.04" stroke="rgba(176, 184, 229, 0.32)" stroke-width="1.5"></path><path d="M265.4 540.79L265.4 540.79" stroke="rgba(176, 184, 229, 0.32)" stroke-width="1.5"></path><path d="M265.4 540.79L350.56 547.38" stroke="rgba(176, 184, 229, 0.32)" stroke-width="1.5"></path><path d="M265.4 540.79L228.87 630.74" stroke="rgba(176, 184, 229, 0.32)" stroke-width="1.5"></path><path d="M228.87 630.74L228.87 630.74" stroke="rgba(176, 184, 229, 0.32)" stroke-width="1.5"></path><path d="M267.74 764.36L267.74 764.36" stroke="rgba(176, 184, 229, 0.32)" stroke-width="1.5"></path><path d="M267.74 764.36L371.4 734.57" stroke="rgba(176, 184, 229, 0.32)" stroke-width="1.5"></path><path d="M267.74 764.36L249.04 871.41" stroke="rgba(176, 184, 229, 0.32)" stroke-width="1.5"></path><path d="M267.74 764.36L344.48 857.48" stroke="rgba(176, 184, 229, 0.32)" stroke-width="1.5"></path><path d="M249.04 871.41L249.04 871.41" stroke="rgba(176, 184, 229, 0.32)" stroke-width="1.5"></path><path d="M249.04 871.41L344.48 857.48" stroke="rgba(176, 184, 229, 0.32)" stroke-width="1.5"></path><path d="M325.64 -68.16L325.64 -68.16" stroke="rgba(176, 184, 229, 0.32)" stroke-width="1.5"></path><path d="M353.49 69.56L353.49 69.56" stroke="rgba(176, 184, 229, 0.32)" stroke-width="1.5"></path><path d="M353.49 69.56L325.24 143.19" stroke="rgba(176, 184, 229, 0.32)" stroke-width="1.5"></path><path d="M353.49 69.56L325.64 -68.16" stroke="rgba(176, 184, 229, 0.32)" stroke-width="1.5"></path><path d="M353.49 69.56L345.27 274.37" stroke="rgba(176, 184, 229, 0.32)" stroke-width="1.5"></path><path d="M353.49 69.56L255.6 265.48" stroke="rgba(176, 184, 229, 0.32)" stroke-width="1.5"></path><path d="M325.24 143.19L325.24 143.19" stroke="rgba(176, 184, 229, 0.32)" stroke-width="1.5"></path><path d="M325.24 143.19L345.27 274.37" stroke="rgba(176, 184, 229, 0.32)" stroke-width="1.5"></path><path d="M325.24 143.19L354.43 345.62" stroke="rgba(176, 184, 229, 0.32)" stroke-width="1.5"></path><path d="M345.27 274.37L345.27 274.37" stroke="rgba(176, 184, 229, 0.32)" stroke-width="1.5"></path><path d="M345.27 274.37L354.43 345.62" stroke="rgba(176, 184, 229, 0.32)" stroke-width="1.5"></path><path d="M354.43 345.62L354.43 345.62" stroke="rgba(176, 184, 229, 0.32)" stroke-width="1.5"></path><path d="M354.43 345.62L248.37 366.15" stroke="rgba(176, 184, 229, 0.32)" stroke-width="1.5"></path><path d="M354.43 345.62L362.67 463.04" stroke="rgba(176, 184, 229, 0.32)" stroke-width="1.5"></path><path d="M362.67 463.04L362.67 463.04" stroke="rgba(176, 184, 229, 0.32)" stroke-width="1.5"></path><path d="M362.67 463.04L350.56 547.38" stroke="rgba(176, 184, 229, 0.32)" stroke-width="1.5"></path><path d="M350.56 547.38L350.56 547.38" stroke="rgba(176, 184, 229, 0.32)" stroke-width="1.5"></path><path d="M350.56 547.38L351.66 647.76" stroke="rgba(176, 184, 229, 0.32)" stroke-width="1.5"></path><path d="M351.66 647.76L351.66 647.76" stroke="rgba(176, 184, 229, 0.32)" stroke-width="1.5"></path><path d="M351.66 647.76L371.4 734.57" stroke="rgba(176, 184, 229, 0.32)" stroke-width="1.5"></path><path d="M351.66 647.76L228.87 630.74" stroke="rgba(176, 184, 229, 0.32)" stroke-width="1.5"></path><path d="M371.4 734.57L371.4 734.57" stroke="rgba(176, 184, 229, 0.32)" stroke-width="1.5"></path><path d="M371.4 734.57L344.48 857.48" stroke="rgba(176, 184, 229, 0.32)" stroke-width="1.5"></path><path d="M371.4 734.57L228.87 630.74" stroke="rgba(176, 184, 229, 0.32)" stroke-width="1.5"></path><path d="M344.48 857.48L344.48 857.48" stroke="rgba(176, 184, 229, 0.32)" stroke-width="1.5"></path><circle r="5" cx="-42.2" cy="466.72" fill="rgba(176, 184, 229, 0.32)"></circle><circle r="5" cx="-45.82" cy="533.51" fill="rgba(176, 184, 229, 0.32)"></circle><circle r="5" cx="-56.89" cy="651.87" fill="rgba(176, 184, 229, 0.32)"></circle><circle r="5" cx="-72.12" cy="739.69" fill="rgba(176, 184, 229, 0.32)"></circle><circle r="5" cx="-43.03" cy="841.22" fill="rgba(176, 184, 229, 0.32)"></circle><circle r="5" cx="41.98" cy="550.96" fill="rgba(176, 184, 229, 0.32)"></circle><circle r="5" cx="38.56" cy="632.98" fill="rgba(176, 184, 229, 0.32)"></circle><circle r="5" cx="48.68" cy="764.22" fill="rgba(176, 184, 229, 0.32)"></circle><circle r="5" cx="29.14" cy="861.91" fill="rgba(176, 184, 229, 0.32)"></circle><circle r="5" cx="160.9" cy="374.16" fill="rgba(176, 184, 229, 0.32)"></circle><circle r="5" cx="152.34" cy="464.37" fill="rgba(176, 184, 229, 0.32)"></circle><circle r="5" cx="161.43" cy="563.95" fill="rgba(176, 184, 229, 0.32)"></circle><circle r="5" cx="172.84" cy="657.19" fill="rgba(176, 184, 229, 0.32)"></circle><circle r="5" cx="145.68" cy="762.26" fill="rgba(176, 184, 229, 0.32)"></circle><circle r="5" cx="154.02" cy="847.26" fill="rgba(176, 184, 229, 0.32)"></circle><circle r="5" cx="274.01" cy="-56.21" fill="rgba(176, 184, 229, 0.32)"></circle><circle r="5" cx="240.06" cy="148.86" fill="rgba(176, 184, 229, 0.32)"></circle><circle r="5" cx="255.6" cy="265.48" fill="rgba(176, 184, 229, 0.32)"></circle><circle r="5" cx="248.37" cy="366.15" fill="rgba(176, 184, 229, 0.32)"></circle><circle r="5" cx="270.96" cy="460.03" fill="rgba(176, 184, 229, 0.32)"></circle><circle r="5" cx="265.4" cy="540.79" fill="rgba(176, 184, 229, 0.32)"></circle><circle r="5" cx="228.87" cy="630.74" fill="rgba(176, 184, 229, 0.32)"></circle><circle r="5" cx="267.74" cy="764.36" fill="rgba(176, 184, 229, 0.32)"></circle><circle r="5" cx="249.04" cy="871.41" fill="rgba(176, 184, 229, 0.32)"></circle><circle r="5" cx="325.64" cy="-68.16" fill="rgba(176, 184, 229, 0.32)"></circle><circle r="5" cx="353.49" cy="69.56" fill="rgba(176, 184, 229, 0.32)"></circle><circle r="5" cx="325.24" cy="143.19" fill="rgba(176, 184, 229, 0.32)"></circle><circle r="5" cx="345.27" cy="274.37" fill="rgba(176, 184, 229, 0.32)"></circle><circle r="5" cx="354.43" cy="345.62" fill="rgba(176, 184, 229, 0.32)"></circle><circle r="5" cx="362.67" cy="463.04" fill="rgba(176, 184, 229, 0.32)"></circle><circle r="5" cx="350.56" cy="547.38" fill="rgba(176, 184, 229, 0.32)"></circle><circle r="5" cx="351.66" cy="647.76" fill="rgba(176, 184, 229, 0.32)"></circle><circle r="5" cx="371.4" cy="734.57" fill="rgba(176, 184, 229, 0.32)"></circle><circle r="5" cx="344.48" cy="857.48" fill="rgba(176, 184, 229, 0.32)"></circle><path d="M-69.87 656.87L-69.87 656.87" stroke="hsla(231, 32.3%, 98.4%, 0.56)" stroke-width="1.5"></path><path d="M-69.87 656.87L-67.47 731.06" stroke="hsla(231, 32.3%, 98.4%, 0.56)" stroke-width="1.5"></path><path d="M-69.87 656.87L55.7 639.96" stroke="hsla(231, 32.3%, 98.4%, 0.56)" stroke-width="1.5"></path><path d="M-67.47 731.06L-67.47 731.06" stroke="hsla(231, 32.3%, 98.4%, 0.56)" stroke-width="1.5"></path><path d="M-67.47 731.06L72.97 766.05" stroke="hsla(231, 32.3%, 98.4%, 0.56)" stroke-width="1.5"></path><path d="M-67.47 731.06L-29.72 872.1" stroke="hsla(231, 32.3%, 98.4%, 0.56)" stroke-width="1.5"></path><path d="M-67.47 731.06L55.7 639.96" stroke="hsla(231, 32.3%, 98.4%, 0.56)" stroke-width="1.5"></path><path d="M-67.47 731.06L70.17 864.1" stroke="hsla(231, 32.3%, 98.4%, 0.56)" stroke-width="1.5"></path><path d="M-67.47 731.06L172.56 651.67" stroke="hsla(231, 32.3%, 98.4%, 0.56)" stroke-width="1.5"></path><path d="M72.97 766.05L72.97 766.05" stroke="hsla(231, 32.3%, 98.4%, 0.56)" stroke-width="1.5"></path><path d="M72.97 766.05L70.17 864.1" stroke="hsla(231, 32.3%, 98.4%, 0.56)" stroke-width="1.5"></path><path d="M72.97 766.05L55.7 639.96" stroke="hsla(231, 32.3%, 98.4%, 0.56)" stroke-width="1.5"></path><path d="M172.56 651.67L172.56 651.67" stroke="hsla(231, 32.3%, 98.4%, 0.56)" stroke-width="1.5"></path><path d="M172.56 651.67L227.35 653.32" stroke="hsla(231, 32.3%, 98.4%, 0.56)" stroke-width="1.5"></path><path d="M172.56 651.67L55.7 639.96" stroke="hsla(231, 32.3%, 98.4%, 0.56)" stroke-width="1.5"></path><path d="M345.72 -74.74L345.72 -74.74" stroke="hsla(231, 32.3%, 98.4%, 0.56)" stroke-width="1.5"></path><path d="M345.72 -74.74L255.15 -31.44" stroke="hsla(231, 32.3%, 98.4%, 0.56)" stroke-width="1.5"></path><path d="M345.72 -74.74L247.47 74.45" stroke="hsla(231, 32.3%, 98.4%, 0.56)" stroke-width="1.5"></path><path d="M345.72 -74.74L373.23 141.48" stroke="hsla(231, 32.3%, 98.4%, 0.56)" stroke-width="1.5"></path><path d="M345.72 -74.74L239.08 128.06" stroke="hsla(231, 32.3%, 98.4%, 0.56)" stroke-width="1.5"></path><path d="M345.72 -74.74L328.94 255.21" stroke="hsla(231, 32.3%, 98.4%, 0.56)" stroke-width="1.5"></path><path d="M345.72 -74.74L235.91 249.22" stroke="hsla(231, 32.3%, 98.4%, 0.56)" stroke-width="1.5"></path><path d="M352.34 436.12L352.34 436.12" stroke="hsla(231, 32.3%, 98.4%, 0.56)" stroke-width="1.5"></path><path d="M352.34 436.12L342.95 328.17" stroke="hsla(231, 32.3%, 98.4%, 0.56)" stroke-width="1.5"></path><path d="M352.34 436.12L243.68 456.83" stroke="hsla(231, 32.3%, 98.4%, 0.56)" stroke-width="1.5"></path><path d="M352.34 436.12L257.03 338.6" stroke="hsla(231, 32.3%, 98.4%, 0.56)" stroke-width="1.5"></path><path d="M352.34 436.12L368.37 572.77" stroke="hsla(231, 32.3%, 98.4%, 0.56)" stroke-width="1.5"></path><path d="M352.34 436.12L264.37 572.47" stroke="hsla(231, 32.3%, 98.4%, 0.56)" stroke-width="1.5"></path><path d="M352.34 436.12L328.94 255.21" stroke="hsla(231, 32.3%, 98.4%, 0.56)" stroke-width="1.5"></path><path d="M-29.72 872.1L-29.72 872.1" stroke="hsla(231, 32.3%, 98.4%, 0.56)" stroke-width="1.5"></path><path d="M-29.72 872.1L70.17 864.1" stroke="hsla(231, 32.3%, 98.4%, 0.56)" stroke-width="1.5"></path><path d="M-29.72 872.1L72.97 766.05" stroke="hsla(231, 32.3%, 98.4%, 0.56)" stroke-width="1.5"></path><path d="M-29.72 872.1L169.54 854.58" stroke="hsla(231, 32.3%, 98.4%, 0.56)" stroke-width="1.5"></path><path d="M-29.72 872.1L-69.87 656.87" stroke="hsla(231, 32.3%, 98.4%, 0.56)" stroke-width="1.5"></path><path d="M-29.72 872.1L55.7 639.96" stroke="hsla(231, 32.3%, 98.4%, 0.56)" stroke-width="1.5"></path><path d="M55.7 639.96L55.7 639.96" stroke="hsla(231, 32.3%, 98.4%, 0.56)" stroke-width="1.5"></path><path d="M55.7 639.96L151.37 533.92" stroke="hsla(231, 32.3%, 98.4%, 0.56)" stroke-width="1.5"></path><path d="M55.7 639.96L227.35 653.32" stroke="hsla(231, 32.3%, 98.4%, 0.56)" stroke-width="1.5"></path><path d="M70.17 864.1L70.17 864.1" stroke="hsla(231, 32.3%, 98.4%, 0.56)" stroke-width="1.5"></path><path d="M70.17 864.1L169.54 854.58" stroke="hsla(231, 32.3%, 98.4%, 0.56)" stroke-width="1.5"></path><path d="M151.37 533.92L151.37 533.92" stroke="hsla(231, 32.3%, 98.4%, 0.56)" stroke-width="1.5"></path><path d="M151.37 533.92L264.37 572.47" stroke="hsla(231, 32.3%, 98.4%, 0.56)" stroke-width="1.5"></path><path d="M151.37 533.92L172.56 651.67" stroke="hsla(231, 32.3%, 98.4%, 0.56)" stroke-width="1.5"></path><path d="M169.54 854.58L169.54 854.58" stroke="hsla(231, 32.3%, 98.4%, 0.56)" stroke-width="1.5"></path><path d="M255.15 -31.44L255.15 -31.44" stroke="hsla(231, 32.3%, 98.4%, 0.56)" stroke-width="1.5"></path><path d="M255.15 -31.44L247.47 74.45" stroke="hsla(231, 32.3%, 98.4%, 0.56)" stroke-width="1.5"></path><path d="M255.15 -31.44L239.08 128.06" stroke="hsla(231, 32.3%, 98.4%, 0.56)" stroke-width="1.5"></path><path d="M255.15 -31.44L373.23 141.48" stroke="hsla(231, 32.3%, 98.4%, 0.56)" stroke-width="1.5"></path><path d="M255.15 -31.44L235.91 249.22" stroke="hsla(231, 32.3%, 98.4%, 0.56)" stroke-width="1.5"></path><path d="M247.47 74.45L247.47 74.45" stroke="hsla(231, 32.3%, 98.4%, 0.56)" stroke-width="1.5"></path><path d="M247.47 74.45L239.08 128.06" stroke="hsla(231, 32.3%, 98.4%, 0.56)" stroke-width="1.5"></path><path d="M247.47 74.45L373.23 141.48" stroke="hsla(231, 32.3%, 98.4%, 0.56)" stroke-width="1.5"></path><path d="M239.08 128.06L239.08 128.06" stroke="hsla(231, 32.3%, 98.4%, 0.56)" stroke-width="1.5"></path><path d="M239.08 128.06L235.91 249.22" stroke="hsla(231, 32.3%, 98.4%, 0.56)" stroke-width="1.5"></path><path d="M235.91 249.22L235.91 249.22" stroke="hsla(231, 32.3%, 98.4%, 0.56)" stroke-width="1.5"></path><path d="M235.91 249.22L257.03 338.6" stroke="hsla(231, 32.3%, 98.4%, 0.56)" stroke-width="1.5"></path><path d="M235.91 249.22L328.94 255.21" stroke="hsla(231, 32.3%, 98.4%, 0.56)" stroke-width="1.5"></path><path d="M235.91 249.22L342.95 328.17" stroke="hsla(231, 32.3%, 98.4%, 0.56)" stroke-width="1.5"></path><path d="M257.03 338.6L257.03 338.6" stroke="hsla(231, 32.3%, 98.4%, 0.56)" stroke-width="1.5"></path><path d="M257.03 338.6L342.95 328.17" stroke="hsla(231, 32.3%, 98.4%, 0.56)" stroke-width="1.5"></path><path d="M257.03 338.6L328.94 255.21" stroke="hsla(231, 32.3%, 98.4%, 0.56)" stroke-width="1.5"></path><path d="M257.03 338.6L243.68 456.83" stroke="hsla(231, 32.3%, 98.4%, 0.56)" stroke-width="1.5"></path><path d="M257.03 338.6L239.08 128.06" stroke="hsla(231, 32.3%, 98.4%, 0.56)" stroke-width="1.5"></path><path d="M243.68 456.83L243.68 456.83" stroke="hsla(231, 32.3%, 98.4%, 0.56)" stroke-width="1.5"></path><path d="M243.68 456.83L264.37 572.47" stroke="hsla(231, 32.3%, 98.4%, 0.56)" stroke-width="1.5"></path><path d="M264.37 572.47L264.37 572.47" stroke="hsla(231, 32.3%, 98.4%, 0.56)" stroke-width="1.5"></path><path d="M264.37 572.47L227.35 653.32" stroke="hsla(231, 32.3%, 98.4%, 0.56)" stroke-width="1.5"></path><path d="M264.37 572.47L368.37 572.77" stroke="hsla(231, 32.3%, 98.4%, 0.56)" stroke-width="1.5"></path><path d="M264.37 572.47L350.45 649.7" stroke="hsla(231, 32.3%, 98.4%, 0.56)" stroke-width="1.5"></path><path d="M227.35 653.32L227.35 653.32" stroke="hsla(231, 32.3%, 98.4%, 0.56)" stroke-width="1.5"></path><path d="M245.63 768.46L245.63 768.46" stroke="hsla(231, 32.3%, 98.4%, 0.56)" stroke-width="1.5"></path><path d="M245.63 768.46L274.14 834.84" stroke="hsla(231, 32.3%, 98.4%, 0.56)" stroke-width="1.5"></path><path d="M245.63 768.46L344.8 770.22" stroke="hsla(231, 32.3%, 98.4%, 0.56)" stroke-width="1.5"></path><path d="M245.63 768.46L169.54 854.58" stroke="hsla(231, 32.3%, 98.4%, 0.56)" stroke-width="1.5"></path><path d="M274.14 834.84L274.14 834.84" stroke="hsla(231, 32.3%, 98.4%, 0.56)" stroke-width="1.5"></path><path d="M274.14 834.84L348.05 827.13" stroke="hsla(231, 32.3%, 98.4%, 0.56)" stroke-width="1.5"></path><path d="M373.23 141.48L373.23 141.48" stroke="hsla(231, 32.3%, 98.4%, 0.56)" stroke-width="1.5"></path><path d="M373.23 141.48L328.94 255.21" stroke="hsla(231, 32.3%, 98.4%, 0.56)" stroke-width="1.5"></path><path d="M373.23 141.48L239.08 128.06" stroke="hsla(231, 32.3%, 98.4%, 0.56)" stroke-width="1.5"></path><path d="M328.94 255.21L328.94 255.21" stroke="hsla(231, 32.3%, 98.4%, 0.56)" stroke-width="1.5"></path><path d="M328.94 255.21L342.95 328.17" stroke="hsla(231, 32.3%, 98.4%, 0.56)" stroke-width="1.5"></path><path d="M342.95 328.17L342.95 328.17" stroke="hsla(231, 32.3%, 98.4%, 0.56)" stroke-width="1.5"></path><path d="M368.37 572.77L368.37 572.77" stroke="hsla(231, 32.3%, 98.4%, 0.56)" stroke-width="1.5"></path><path d="M368.37 572.77L350.45 649.7" stroke="hsla(231, 32.3%, 98.4%, 0.56)" stroke-width="1.5"></path><path d="M350.45 649.7L350.45 649.7" stroke="hsla(231, 32.3%, 98.4%, 0.56)" stroke-width="1.5"></path><path d="M350.45 649.7L344.8 770.22" stroke="hsla(231, 32.3%, 98.4%, 0.56)" stroke-width="1.5"></path><path d="M350.45 649.7L227.35 653.32" stroke="hsla(231, 32.3%, 98.4%, 0.56)" stroke-width="1.5"></path><path d="M350.45 649.7L245.63 768.46" stroke="hsla(231, 32.3%, 98.4%, 0.56)" stroke-width="1.5"></path><path d="M350.45 649.7L348.05 827.13" stroke="hsla(231, 32.3%, 98.4%, 0.56)" stroke-width="1.5"></path><path d="M344.8 770.22L344.8 770.22" stroke="hsla(231, 32.3%, 98.4%, 0.56)" stroke-width="1.5"></path><path d="M344.8 770.22L348.05 827.13" stroke="hsla(231, 32.3%, 98.4%, 0.56)" stroke-width="1.5"></path><path d="M344.8 770.22L274.14 834.84" stroke="hsla(231, 32.3%, 98.4%, 0.56)" stroke-width="1.5"></path><path d="M348.05 827.13L348.05 827.13" stroke="hsla(231, 32.3%, 98.4%, 0.56)" stroke-width="1.5"></path><circle r="25" cx="-69.87" cy="656.87" fill="url(&quot;#SvgjsRadialGradient1061&quot;)"></circle><circle r="25" cx="-67.47" cy="731.06" fill="url(&quot;#SvgjsRadialGradient1061&quot;)"></circle><circle r="25" cx="72.97" cy="766.05" fill="url(&quot;#SvgjsRadialGradient1061&quot;)"></circle><circle r="25" cx="172.56" cy="651.67" fill="url(&quot;#SvgjsRadialGradient1061&quot;)"></circle><circle r="25" cx="345.72" cy="-74.74" fill="url(&quot;#SvgjsRadialGradient1061&quot;)"></circle><circle r="25" cx="352.34" cy="436.12" fill="url(&quot;#SvgjsRadialGradient1061&quot;)"></circle><circle r="5" cx="-29.72" cy="872.1" fill="rgba(232, 234, 243, 0.78)"></circle><circle r="5" cx="55.7" cy="639.96" fill="rgba(232, 234, 243, 0.78)"></circle><circle r="5" cx="70.17" cy="864.1" fill="rgba(232, 234, 243, 0.78)"></circle><circle r="5" cx="151.37" cy="533.92" fill="rgba(232, 234, 243, 0.78)"></circle><circle r="5" cx="169.54" cy="854.58" fill="rgba(232, 234, 243, 0.78)"></circle><circle r="5" cx="255.15" cy="-31.44" fill="rgba(232, 234, 243, 0.78)"></circle><circle r="5" cx="247.47" cy="74.45" fill="rgba(232, 234, 243, 0.78)"></circle><circle r="5" cx="239.08" cy="128.06" fill="rgba(232, 234, 243, 0.78)"></circle><circle r="5" cx="235.91" cy="249.22" fill="rgba(232, 234, 243, 0.78)"></circle><circle r="5" cx="257.03" cy="338.6" fill="rgba(232, 234, 243, 0.78)"></circle><circle r="5" cx="243.68" cy="456.83" fill="rgba(232, 234, 243, 0.78)"></circle><circle r="5" cx="264.37" cy="572.47" fill="rgba(232, 234, 243, 0.78)"></circle><circle r="5" cx="227.35" cy="653.32" fill="rgba(232, 234, 243, 0.78)"></circle><circle r="5" cx="245.63" cy="768.46" fill="rgba(232, 234, 243, 0.78)"></circle><circle r="5" cx="274.14" cy="834.84" fill="rgba(232, 234, 243, 0.78)"></circle><circle r="5" cx="373.23" cy="141.48" fill="rgba(232, 234, 243, 0.78)"></circle><circle r="5" cx="328.94" cy="255.21" fill="rgba(232, 234, 243, 0.78)"></circle><circle r="5" cx="342.95" cy="328.17" fill="rgba(232, 234, 243, 0.78)"></circle><circle r="5" cx="368.37" cy="572.77" fill="rgba(232, 234, 243, 0.78)"></circle><circle r="5" cx="350.45" cy="649.7" fill="rgba(232, 234, 243, 0.78)"></circle><circle r="5" cx="344.8" cy="770.22" fill="rgba(232, 234, 243, 0.78)"></circle><circle r="5" cx="348.05" cy="827.13" fill="rgba(232, 234, 243, 0.78)"></circle></g><defs><mask id="SvgjsMask1060"><rect width="300" height="800" fill="#ffffff"></rect></mask><radialGradient id="SvgjsRadialGradient1061"><stop stop-color="#ffffff" offset="0.1"></stop><stop stop-color="rgba(173, 179, 213, 0.56)" offset="0.2"></stop><stop stop-color="rgba(173, 179, 213, 0)" offset="1"></stop></radialGradient></defs></svg>