<svg xmlns="http://www.w3.org/2000/svg" version="1.1" xmlns:xlink="http://www.w3.org/1999/xlink" xmlns:svgjs="http://svgjs.dev/svgjs" width="800" height="100" preserveAspectRatio="none" viewBox="0 0 800 100"><g mask="url(&quot;#SvgjsMask1032&quot;)" fill="none"><path d="M-29.75 68.56L-29.75 68.56" stroke="rgba(19, 46, 101, 0.32)" stroke-width="1.5"></path><path d="M-29.75 68.56L-38.23 137.9" stroke="rgba(19, 46, 101, 0.32)" stroke-width="1.5"></path><path d="M-29.75 68.56L58.75 158.44" stroke="rgba(19, 46, 101, 0.32)" stroke-width="1.5"></path><path d="M-29.75 68.56L172.9 126.52" stroke="rgba(19, 46, 101, 0.32)" stroke-width="1.5"></path><path d="M-29.75 68.56L255.45 62.17" stroke="rgba(19, 46, 101, 0.32)" stroke-width="1.5"></path><path d="M-29.75 68.56L249.34 135.54" stroke="rgba(19, 46, 101, 0.32)" stroke-width="1.5"></path><path d="M-29.75 68.56L331.41 164.41" stroke="rgba(19, 46, 101, 0.32)" stroke-width="1.5"></path><path d="M-38.23 137.9L-38.23 137.9" stroke="rgba(19, 46, 101, 0.32)" stroke-width="1.5"></path><path d="M-38.23 137.9L58.75 158.44" stroke="rgba(19, 46, 101, 0.32)" stroke-width="1.5"></path><path d="M-38.23 137.9L172.9 126.52" stroke="rgba(19, 46, 101, 0.32)" stroke-width="1.5"></path><path d="M58.75 158.44L58.75 158.44" stroke="rgba(19, 46, 101, 0.32)" stroke-width="1.5"></path><path d="M58.75 158.44L172.9 126.52" stroke="rgba(19, 46, 101, 0.32)" stroke-width="1.5"></path><path d="M172.9 126.52L172.9 126.52" stroke="rgba(19, 46, 101, 0.32)" stroke-width="1.5"></path><path d="M172.9 126.52L249.34 135.54" stroke="rgba(19, 46, 101, 0.32)" stroke-width="1.5"></path><path d="M172.9 126.52L255.45 62.17" stroke="rgba(19, 46, 101, 0.32)" stroke-width="1.5"></path><path d="M172.9 126.52L331.41 164.41" stroke="rgba(19, 46, 101, 0.32)" stroke-width="1.5"></path><path d="M255.45 62.17L255.45 62.17" stroke="rgba(19, 46, 101, 0.32)" stroke-width="1.5"></path><path d="M255.45 62.17L249.34 135.54" stroke="rgba(19, 46, 101, 0.32)" stroke-width="1.5"></path><path d="M255.45 62.17L331.41 164.41" stroke="rgba(19, 46, 101, 0.32)" stroke-width="1.5"></path><path d="M255.45 62.17L467.34 46.36" stroke="rgba(19, 46, 101, 0.32)" stroke-width="1.5"></path><path d="M249.34 135.54L249.34 135.54" stroke="rgba(19, 46, 101, 0.32)" stroke-width="1.5"></path><path d="M249.34 135.54L331.41 164.41" stroke="rgba(19, 46, 101, 0.32)" stroke-width="1.5"></path><path d="M249.34 135.54L58.75 158.44" stroke="rgba(19, 46, 101, 0.32)" stroke-width="1.5"></path><path d="M331.41 164.41L331.41 164.41" stroke="rgba(19, 46, 101, 0.32)" stroke-width="1.5"></path><path d="M467.34 46.36L467.34 46.36" stroke="rgba(19, 46, 101, 0.32)" stroke-width="1.5"></path><path d="M467.34 46.36L532.24 42.67" stroke="rgba(19, 46, 101, 0.32)" stroke-width="1.5"></path><path d="M467.34 46.36L469.58 127.88" stroke="rgba(19, 46, 101, 0.32)" stroke-width="1.5"></path><path d="M467.34 46.36L548.34 -54.86" stroke="rgba(19, 46, 101, 0.32)" stroke-width="1.5"></path><path d="M469.58 127.88L469.58 127.88" stroke="rgba(19, 46, 101, 0.32)" stroke-width="1.5"></path><path d="M469.58 127.88L559.86 149.53" stroke="rgba(19, 46, 101, 0.32)" stroke-width="1.5"></path><path d="M469.58 127.88L532.24 42.67" stroke="rgba(19, 46, 101, 0.32)" stroke-width="1.5"></path><path d="M469.58 127.88L331.41 164.41" stroke="rgba(19, 46, 101, 0.32)" stroke-width="1.5"></path><path d="M548.34 -54.86L548.34 -54.86" stroke="rgba(19, 46, 101, 0.32)" stroke-width="1.5"></path><path d="M548.34 -54.86L532.24 42.67" stroke="rgba(19, 46, 101, 0.32)" stroke-width="1.5"></path><path d="M548.34 -54.86L665.41 -49.01" stroke="rgba(19, 46, 101, 0.32)" stroke-width="1.5"></path><path d="M548.34 -54.86L673.67 66.13" stroke="rgba(19, 46, 101, 0.32)" stroke-width="1.5"></path><path d="M532.24 42.67L532.24 42.67" stroke="rgba(19, 46, 101, 0.32)" stroke-width="1.5"></path><path d="M532.24 42.67L559.86 149.53" stroke="rgba(19, 46, 101, 0.32)" stroke-width="1.5"></path><path d="M559.86 149.53L559.86 149.53" stroke="rgba(19, 46, 101, 0.32)" stroke-width="1.5"></path><path d="M559.86 149.53L669.55 157.14" stroke="rgba(19, 46, 101, 0.32)" stroke-width="1.5"></path><path d="M559.86 149.53L467.34 46.36" stroke="rgba(19, 46, 101, 0.32)" stroke-width="1.5"></path><path d="M559.86 149.53L673.67 66.13" stroke="rgba(19, 46, 101, 0.32)" stroke-width="1.5"></path><path d="M559.86 149.53L548.34 -54.86" stroke="rgba(19, 46, 101, 0.32)" stroke-width="1.5"></path><path d="M665.41 -49.01L665.41 -49.01" stroke="rgba(19, 46, 101, 0.32)" stroke-width="1.5"></path><path d="M665.41 -49.01L743.71 -34.29" stroke="rgba(19, 46, 101, 0.32)" stroke-width="1.5"></path><path d="M665.41 -49.01L673.67 66.13" stroke="rgba(19, 46, 101, 0.32)" stroke-width="1.5"></path><path d="M665.41 -49.01L757.82 53.67" stroke="rgba(19, 46, 101, 0.32)" stroke-width="1.5"></path><path d="M665.41 -49.01L532.24 42.67" stroke="rgba(19, 46, 101, 0.32)" stroke-width="1.5"></path><path d="M665.41 -49.01L842 -61.86" stroke="rgba(19, 46, 101, 0.32)" stroke-width="1.5"></path><path d="M673.67 66.13L673.67 66.13" stroke="rgba(19, 46, 101, 0.32)" stroke-width="1.5"></path><path d="M673.67 66.13L757.82 53.67" stroke="rgba(19, 46, 101, 0.32)" stroke-width="1.5"></path><path d="M673.67 66.13L669.55 157.14" stroke="rgba(19, 46, 101, 0.32)" stroke-width="1.5"></path><path d="M673.67 66.13L774.99 129.66" stroke="rgba(19, 46, 101, 0.32)" stroke-width="1.5"></path><path d="M673.67 66.13L743.71 -34.29" stroke="rgba(19, 46, 101, 0.32)" stroke-width="1.5"></path><path d="M669.55 157.14L669.55 157.14" stroke="rgba(19, 46, 101, 0.32)" stroke-width="1.5"></path><path d="M669.55 157.14L774.99 129.66" stroke="rgba(19, 46, 101, 0.32)" stroke-width="1.5"></path><path d="M669.55 157.14L757.82 53.67" stroke="rgba(19, 46, 101, 0.32)" stroke-width="1.5"></path><path d="M743.71 -34.29L743.71 -34.29" stroke="rgba(19, 46, 101, 0.32)" stroke-width="1.5"></path><path d="M743.71 -34.29L757.82 53.67" stroke="rgba(19, 46, 101, 0.32)" stroke-width="1.5"></path><path d="M743.71 -34.29L842 -61.86" stroke="rgba(19, 46, 101, 0.32)" stroke-width="1.5"></path><path d="M743.71 -34.29L828.99 45.35" stroke="rgba(19, 46, 101, 0.32)" stroke-width="1.5"></path><path d="M757.82 53.67L757.82 53.67" stroke="rgba(19, 46, 101, 0.32)" stroke-width="1.5"></path><path d="M757.82 53.67L828.99 45.35" stroke="rgba(19, 46, 101, 0.32)" stroke-width="1.5"></path><path d="M757.82 53.67L774.99 129.66" stroke="rgba(19, 46, 101, 0.32)" stroke-width="1.5"></path><path d="M774.99 129.66L774.99 129.66" stroke="rgba(19, 46, 101, 0.32)" stroke-width="1.5"></path><path d="M774.99 129.66L870.17 158.95" stroke="rgba(19, 46, 101, 0.32)" stroke-width="1.5"></path><path d="M842 -61.86L842 -61.86" stroke="rgba(19, 46, 101, 0.32)" stroke-width="1.5"></path><path d="M828.99 45.35L828.99 45.35" stroke="rgba(19, 46, 101, 0.32)" stroke-width="1.5"></path><path d="M828.99 45.35L774.99 129.66" stroke="rgba(19, 46, 101, 0.32)" stroke-width="1.5"></path><path d="M828.99 45.35L842 -61.86" stroke="rgba(19, 46, 101, 0.32)" stroke-width="1.5"></path><path d="M870.17 158.95L870.17 158.95" stroke="rgba(19, 46, 101, 0.32)" stroke-width="1.5"></path><path d="M870.17 158.95L828.99 45.35" stroke="rgba(19, 46, 101, 0.32)" stroke-width="1.5"></path><path d="M870.17 158.95L757.82 53.67" stroke="rgba(19, 46, 101, 0.32)" stroke-width="1.5"></path><path d="M870.17 158.95L669.55 157.14" stroke="rgba(19, 46, 101, 0.32)" stroke-width="1.5"></path><circle r="5" cx="-29.75" cy="68.56" fill="rgba(19, 46, 101, 0.32)"></circle><circle r="5" cx="-38.23" cy="137.9" fill="rgba(19, 46, 101, 0.32)"></circle><circle r="5" cx="58.75" cy="158.44" fill="rgba(19, 46, 101, 0.32)"></circle><circle r="5" cx="172.9" cy="126.52" fill="rgba(19, 46, 101, 0.32)"></circle><circle r="5" cx="255.45" cy="62.17" fill="rgba(19, 46, 101, 0.32)"></circle><circle r="5" cx="249.34" cy="135.54" fill="rgba(19, 46, 101, 0.32)"></circle><circle r="5" cx="331.41" cy="164.41" fill="rgba(19, 46, 101, 0.32)"></circle><circle r="5" cx="467.34" cy="46.36" fill="rgba(19, 46, 101, 0.32)"></circle><circle r="5" cx="469.58" cy="127.88" fill="rgba(19, 46, 101, 0.32)"></circle><circle r="5" cx="548.34" cy="-54.86" fill="rgba(19, 46, 101, 0.32)"></circle><circle r="5" cx="532.24" cy="42.67" fill="rgba(19, 46, 101, 0.32)"></circle><circle r="5" cx="559.86" cy="149.53" fill="rgba(19, 46, 101, 0.32)"></circle><circle r="5" cx="665.41" cy="-49.01" fill="rgba(19, 46, 101, 0.32)"></circle><circle r="5" cx="673.67" cy="66.13" fill="rgba(19, 46, 101, 0.32)"></circle><circle r="5" cx="669.55" cy="157.14" fill="rgba(19, 46, 101, 0.32)"></circle><circle r="5" cx="743.71" cy="-34.29" fill="rgba(19, 46, 101, 0.32)"></circle><circle r="5" cx="757.82" cy="53.67" fill="rgba(19, 46, 101, 0.32)"></circle><circle r="5" cx="774.99" cy="129.66" fill="rgba(19, 46, 101, 0.32)"></circle><circle r="5" cx="842" cy="-61.86" fill="rgba(19, 46, 101, 0.32)"></circle><circle r="5" cx="828.99" cy="45.35" fill="rgba(19, 46, 101, 0.32)"></circle><circle r="5" cx="870.17" cy="158.95" fill="rgba(19, 46, 101, 0.32)"></circle><path d="M-70.41 155.77L-70.41 155.77" stroke="hsla(228.5, 77.2%, 51.5%, 0.56)" stroke-width="1.5"></path><path d="M-70.41 155.77L48.07 171.72" stroke="hsla(228.5, 77.2%, 51.5%, 0.56)" stroke-width="1.5"></path><path d="M-70.41 155.77L140.4 131.73" stroke="hsla(228.5, 77.2%, 51.5%, 0.56)" stroke-width="1.5"></path><path d="M48.07 171.72L48.07 171.72" stroke="hsla(228.5, 77.2%, 51.5%, 0.56)" stroke-width="1.5"></path><path d="M48.07 171.72L140.4 131.73" stroke="hsla(228.5, 77.2%, 51.5%, 0.56)" stroke-width="1.5"></path><path d="M48.07 171.72L257.3 136.83" stroke="hsla(228.5, 77.2%, 51.5%, 0.56)" stroke-width="1.5"></path><path d="M48.07 171.72L372.23 156.89" stroke="hsla(228.5, 77.2%, 51.5%, 0.56)" stroke-width="1.5"></path><path d="M444.77 67.24L444.77 67.24" stroke="hsla(228.5, 77.2%, 51.5%, 0.56)" stroke-width="1.5"></path><path d="M444.77 67.24L469.11 170.7" stroke="hsla(228.5, 77.2%, 51.5%, 0.56)" stroke-width="1.5"></path><path d="M444.77 67.24L372.23 156.89" stroke="hsla(228.5, 77.2%, 51.5%, 0.56)" stroke-width="1.5"></path><path d="M444.77 67.24L574.42 48.64" stroke="hsla(228.5, 77.2%, 51.5%, 0.56)" stroke-width="1.5"></path><path d="M444.77 67.24L568.7 166.17" stroke="hsla(228.5, 77.2%, 51.5%, 0.56)" stroke-width="1.5"></path><path d="M444.77 67.24L257.3 136.83" stroke="hsla(228.5, 77.2%, 51.5%, 0.56)" stroke-width="1.5"></path><path d="M444.77 67.24L651.75 70.93" stroke="hsla(228.5, 77.2%, 51.5%, 0.56)" stroke-width="1.5"></path><path d="M568.7 166.17L568.7 166.17" stroke="hsla(228.5, 77.2%, 51.5%, 0.56)" stroke-width="1.5"></path><path d="M568.7 166.17L656.61 131.37" stroke="hsla(228.5, 77.2%, 51.5%, 0.56)" stroke-width="1.5"></path><path d="M568.7 166.17L469.11 170.7" stroke="hsla(228.5, 77.2%, 51.5%, 0.56)" stroke-width="1.5"></path><path d="M849.5 -67.43L849.5 -67.43" stroke="hsla(228.5, 77.2%, 51.5%, 0.56)" stroke-width="1.5"></path><path d="M849.5 -67.43L729.55 -48.39" stroke="hsla(228.5, 77.2%, 51.5%, 0.56)" stroke-width="1.5"></path><path d="M849.5 -67.43L828.2 58.74" stroke="hsla(228.5, 77.2%, 51.5%, 0.56)" stroke-width="1.5"></path><path d="M849.5 -67.43L748.33 67.08" stroke="hsla(228.5, 77.2%, 51.5%, 0.56)" stroke-width="1.5"></path><path d="M849.5 -67.43L842.73 161.91" stroke="hsla(228.5, 77.2%, 51.5%, 0.56)" stroke-width="1.5"></path><path d="M849.5 -67.43L651.75 70.93" stroke="hsla(228.5, 77.2%, 51.5%, 0.56)" stroke-width="1.5"></path><path d="M849.5 -67.43L656.61 131.37" stroke="hsla(228.5, 77.2%, 51.5%, 0.56)" stroke-width="1.5"></path><path d="M842.73 161.91L842.73 161.91" stroke="hsla(228.5, 77.2%, 51.5%, 0.56)" stroke-width="1.5"></path><path d="M842.73 161.91L828.2 58.74" stroke="hsla(228.5, 77.2%, 51.5%, 0.56)" stroke-width="1.5"></path><path d="M842.73 161.91L748.33 67.08" stroke="hsla(228.5, 77.2%, 51.5%, 0.56)" stroke-width="1.5"></path><path d="M842.73 161.91L656.61 131.37" stroke="hsla(228.5, 77.2%, 51.5%, 0.56)" stroke-width="1.5"></path><path d="M842.73 161.91L651.75 70.93" stroke="hsla(228.5, 77.2%, 51.5%, 0.56)" stroke-width="1.5"></path><path d="M842.73 161.91L729.55 -48.39" stroke="hsla(228.5, 77.2%, 51.5%, 0.56)" stroke-width="1.5"></path><path d="M140.4 131.73L140.4 131.73" stroke="hsla(228.5, 77.2%, 51.5%, 0.56)" stroke-width="1.5"></path><path d="M140.4 131.73L257.3 136.83" stroke="hsla(228.5, 77.2%, 51.5%, 0.56)" stroke-width="1.5"></path><path d="M140.4 131.73L372.23 156.89" stroke="hsla(228.5, 77.2%, 51.5%, 0.56)" stroke-width="1.5"></path><path d="M140.4 131.73L444.77 67.24" stroke="hsla(228.5, 77.2%, 51.5%, 0.56)" stroke-width="1.5"></path><path d="M257.3 136.83L257.3 136.83" stroke="hsla(228.5, 77.2%, 51.5%, 0.56)" stroke-width="1.5"></path><path d="M257.3 136.83L372.23 156.89" stroke="hsla(228.5, 77.2%, 51.5%, 0.56)" stroke-width="1.5"></path><path d="M372.23 156.89L372.23 156.89" stroke="hsla(228.5, 77.2%, 51.5%, 0.56)" stroke-width="1.5"></path><path d="M372.23 156.89L469.11 170.7" stroke="hsla(228.5, 77.2%, 51.5%, 0.56)" stroke-width="1.5"></path><path d="M469.11 170.7L469.11 170.7" stroke="hsla(228.5, 77.2%, 51.5%, 0.56)" stroke-width="1.5"></path><path d="M469.11 170.7L574.42 48.64" stroke="hsla(228.5, 77.2%, 51.5%, 0.56)" stroke-width="1.5"></path><path d="M469.11 170.7L656.61 131.37" stroke="hsla(228.5, 77.2%, 51.5%, 0.56)" stroke-width="1.5"></path><path d="M574.42 48.64L574.42 48.64" stroke="hsla(228.5, 77.2%, 51.5%, 0.56)" stroke-width="1.5"></path><path d="M574.42 48.64L651.75 70.93" stroke="hsla(228.5, 77.2%, 51.5%, 0.56)" stroke-width="1.5"></path><path d="M574.42 48.64L656.61 131.37" stroke="hsla(228.5, 77.2%, 51.5%, 0.56)" stroke-width="1.5"></path><path d="M574.42 48.64L568.7 166.17" stroke="hsla(228.5, 77.2%, 51.5%, 0.56)" stroke-width="1.5"></path><path d="M651.75 70.93L651.75 70.93" stroke="hsla(228.5, 77.2%, 51.5%, 0.56)" stroke-width="1.5"></path><path d="M651.75 70.93L656.61 131.37" stroke="hsla(228.5, 77.2%, 51.5%, 0.56)" stroke-width="1.5"></path><path d="M656.61 131.37L656.61 131.37" stroke="hsla(228.5, 77.2%, 51.5%, 0.56)" stroke-width="1.5"></path><path d="M729.55 -48.39L729.55 -48.39" stroke="hsla(228.5, 77.2%, 51.5%, 0.56)" stroke-width="1.5"></path><path d="M729.55 -48.39L748.33 67.08" stroke="hsla(228.5, 77.2%, 51.5%, 0.56)" stroke-width="1.5"></path><path d="M729.55 -48.39L651.75 70.93" stroke="hsla(228.5, 77.2%, 51.5%, 0.56)" stroke-width="1.5"></path><path d="M729.55 -48.39L828.2 58.74" stroke="hsla(228.5, 77.2%, 51.5%, 0.56)" stroke-width="1.5"></path><path d="M729.55 -48.39L574.42 48.64" stroke="hsla(228.5, 77.2%, 51.5%, 0.56)" stroke-width="1.5"></path><path d="M729.55 -48.39L656.61 131.37" stroke="hsla(228.5, 77.2%, 51.5%, 0.56)" stroke-width="1.5"></path><path d="M748.33 67.08L748.33 67.08" stroke="hsla(228.5, 77.2%, 51.5%, 0.56)" stroke-width="1.5"></path><path d="M748.33 67.08L828.2 58.74" stroke="hsla(228.5, 77.2%, 51.5%, 0.56)" stroke-width="1.5"></path><path d="M748.33 67.08L651.75 70.93" stroke="hsla(228.5, 77.2%, 51.5%, 0.56)" stroke-width="1.5"></path><path d="M828.2 58.74L828.2 58.74" stroke="hsla(228.5, 77.2%, 51.5%, 0.56)" stroke-width="1.5"></path><path d="M828.2 58.74L651.75 70.93" stroke="hsla(228.5, 77.2%, 51.5%, 0.56)" stroke-width="1.5"></path><path d="M828.2 58.74L656.61 131.37" stroke="hsla(228.5, 77.2%, 51.5%, 0.56)" stroke-width="1.5"></path><circle r="25" cx="-70.41" cy="155.77" fill="url(&quot;#SvgjsRadialGradient1033&quot;)"></circle><circle r="25" cx="48.07" cy="171.72" fill="url(&quot;#SvgjsRadialGradient1033&quot;)"></circle><circle r="25" cx="444.77" cy="67.24" fill="url(&quot;#SvgjsRadialGradient1033&quot;)"></circle><circle r="25" cx="568.7" cy="166.17" fill="url(&quot;#SvgjsRadialGradient1033&quot;)"></circle><circle r="25" cx="849.5" cy="-67.43" fill="url(&quot;#SvgjsRadialGradient1033&quot;)"></circle><circle r="25" cx="842.73" cy="161.91" fill="url(&quot;#SvgjsRadialGradient1033&quot;)"></circle><circle r="5" cx="140.4" cy="131.73" fill="rgba(190, 198, 234, 0.78)"></circle><circle r="5" cx="257.3" cy="136.83" fill="rgba(190, 198, 234, 0.78)"></circle><circle r="5" cx="372.23" cy="156.89" fill="rgba(190, 198, 234, 0.78)"></circle><circle r="5" cx="469.11" cy="170.7" fill="rgba(190, 198, 234, 0.78)"></circle><circle r="5" cx="574.42" cy="48.64" fill="rgba(190, 198, 234, 0.78)"></circle><circle r="5" cx="651.75" cy="70.93" fill="rgba(190, 198, 234, 0.78)"></circle><circle r="5" cx="656.61" cy="131.37" fill="rgba(190, 198, 234, 0.78)"></circle><circle r="5" cx="729.55" cy="-48.39" fill="rgba(190, 198, 234, 0.78)"></circle><circle r="5" cx="748.33" cy="67.08" fill="rgba(190, 198, 234, 0.78)"></circle><circle r="5" cx="828.2" cy="58.74" fill="rgba(190, 198, 234, 0.78)"></circle></g><defs><mask id="SvgjsMask1032"><rect width="800" height="100" fill="#ffffff"></rect></mask><radialGradient id="SvgjsRadialGradient1033"><stop stop-color="#ffffff" offset="0.1"></stop><stop stop-color="rgba(23, 53, 179, 0.56)" offset="0.2"></stop><stop stop-color="rgba(23, 53, 179, 0)" offset="1"></stop></radialGradient></defs></svg>