<svg xmlns="http://www.w3.org/2000/svg" version="1.1" xmlns:xlink="http://www.w3.org/1999/xlink" xmlns:svgjs="http://svgjs.dev/svgjs" width="800" height="200" preserveAspectRatio="none" viewBox="0 0 800 200"><g mask="url(&quot;#SvgjsMask1026&quot;)" fill="none"><path d="M-42.43 144.36L-42.43 144.36" stroke="rgba(19, 46, 101, 0.32)" stroke-width="1.5"></path><path d="M-42.43 144.36L-40.72 270.68" stroke="rgba(19, 46, 101, 0.32)" stroke-width="1.5"></path><path d="M-42.43 144.36L131.55 126.11" stroke="rgba(19, 46, 101, 0.32)" stroke-width="1.5"></path><path d="M-42.43 144.36L162.77 254.79" stroke="rgba(19, 46, 101, 0.32)" stroke-width="1.5"></path><path d="M-42.43 144.36L229.88 157.98" stroke="rgba(19, 46, 101, 0.32)" stroke-width="1.5"></path><path d="M-40.72 270.68L-40.72 270.68" stroke="rgba(19, 46, 101, 0.32)" stroke-width="1.5"></path><path d="M-40.72 270.68L162.77 254.79" stroke="rgba(19, 46, 101, 0.32)" stroke-width="1.5"></path><path d="M-40.72 270.68L131.55 126.11" stroke="rgba(19, 46, 101, 0.32)" stroke-width="1.5"></path><path d="M-40.72 270.68L233.99 227.01" stroke="rgba(19, 46, 101, 0.32)" stroke-width="1.5"></path><path d="M-40.72 270.68L229.88 157.98" stroke="rgba(19, 46, 101, 0.32)" stroke-width="1.5"></path><path d="M-40.72 270.68L336.05 256.91" stroke="rgba(19, 46, 101, 0.32)" stroke-width="1.5"></path><path d="M131.55 126.11L131.55 126.11" stroke="rgba(19, 46, 101, 0.32)" stroke-width="1.5"></path><path d="M131.55 126.11L229.88 157.98" stroke="rgba(19, 46, 101, 0.32)" stroke-width="1.5"></path><path d="M131.55 126.11L162.77 254.79" stroke="rgba(19, 46, 101, 0.32)" stroke-width="1.5"></path><path d="M162.77 254.79L162.77 254.79" stroke="rgba(19, 46, 101, 0.32)" stroke-width="1.5"></path><path d="M162.77 254.79L233.99 227.01" stroke="rgba(19, 46, 101, 0.32)" stroke-width="1.5"></path><path d="M162.77 254.79L229.88 157.98" stroke="rgba(19, 46, 101, 0.32)" stroke-width="1.5"></path><path d="M162.77 254.79L336.05 256.91" stroke="rgba(19, 46, 101, 0.32)" stroke-width="1.5"></path><path d="M229.88 157.98L229.88 157.98" stroke="rgba(19, 46, 101, 0.32)" stroke-width="1.5"></path><path d="M229.88 157.98L233.99 227.01" stroke="rgba(19, 46, 101, 0.32)" stroke-width="1.5"></path><path d="M229.88 157.98L344.78 135.55" stroke="rgba(19, 46, 101, 0.32)" stroke-width="1.5"></path><path d="M229.88 157.98L336.05 256.91" stroke="rgba(19, 46, 101, 0.32)" stroke-width="1.5"></path><path d="M229.88 157.98L431.19 150.65" stroke="rgba(19, 46, 101, 0.32)" stroke-width="1.5"></path><path d="M233.99 227.01L233.99 227.01" stroke="rgba(19, 46, 101, 0.32)" stroke-width="1.5"></path><path d="M344.78 135.55L344.78 135.55" stroke="rgba(19, 46, 101, 0.32)" stroke-width="1.5"></path><path d="M344.78 135.55L431.19 150.65" stroke="rgba(19, 46, 101, 0.32)" stroke-width="1.5"></path><path d="M344.78 135.55L336.05 256.91" stroke="rgba(19, 46, 101, 0.32)" stroke-width="1.5"></path><path d="M344.78 135.55L233.99 227.01" stroke="rgba(19, 46, 101, 0.32)" stroke-width="1.5"></path><path d="M344.78 135.55L459.85 260.71" stroke="rgba(19, 46, 101, 0.32)" stroke-width="1.5"></path><path d="M336.05 256.91L336.05 256.91" stroke="rgba(19, 46, 101, 0.32)" stroke-width="1.5"></path><path d="M336.05 256.91L233.99 227.01" stroke="rgba(19, 46, 101, 0.32)" stroke-width="1.5"></path><path d="M431.19 150.65L431.19 150.65" stroke="rgba(19, 46, 101, 0.32)" stroke-width="1.5"></path><path d="M431.19 150.65L459.85 260.71" stroke="rgba(19, 46, 101, 0.32)" stroke-width="1.5"></path><path d="M459.85 260.71L459.85 260.71" stroke="rgba(19, 46, 101, 0.32)" stroke-width="1.5"></path><path d="M459.85 260.71L542.64 262.53" stroke="rgba(19, 46, 101, 0.32)" stroke-width="1.5"></path><path d="M525.9 -50.45L525.9 -50.45" stroke="rgba(19, 46, 101, 0.32)" stroke-width="1.5"></path><path d="M525.9 -50.45L550.39 30.22" stroke="rgba(19, 46, 101, 0.32)" stroke-width="1.5"></path><path d="M525.9 -50.45L633.82 -52.59" stroke="rgba(19, 46, 101, 0.32)" stroke-width="1.5"></path><path d="M525.9 -50.45L667.78 27.93" stroke="rgba(19, 46, 101, 0.32)" stroke-width="1.5"></path><path d="M550.39 30.22L550.39 30.22" stroke="rgba(19, 46, 101, 0.32)" stroke-width="1.5"></path><path d="M550.39 30.22L667.78 27.93" stroke="rgba(19, 46, 101, 0.32)" stroke-width="1.5"></path><path d="M556.16 174.19L556.16 174.19" stroke="rgba(19, 46, 101, 0.32)" stroke-width="1.5"></path><path d="M556.16 174.19L542.64 262.53" stroke="rgba(19, 46, 101, 0.32)" stroke-width="1.5"></path><path d="M556.16 174.19L628.71 249.41" stroke="rgba(19, 46, 101, 0.32)" stroke-width="1.5"></path><path d="M542.64 262.53L542.64 262.53" stroke="rgba(19, 46, 101, 0.32)" stroke-width="1.5"></path><path d="M542.64 262.53L628.71 249.41" stroke="rgba(19, 46, 101, 0.32)" stroke-width="1.5"></path><path d="M542.64 262.53L431.19 150.65" stroke="rgba(19, 46, 101, 0.32)" stroke-width="1.5"></path><path d="M633.82 -52.59L633.82 -52.59" stroke="rgba(19, 46, 101, 0.32)" stroke-width="1.5"></path><path d="M633.82 -52.59L667.78 27.93" stroke="rgba(19, 46, 101, 0.32)" stroke-width="1.5"></path><path d="M633.82 -52.59L550.39 30.22" stroke="rgba(19, 46, 101, 0.32)" stroke-width="1.5"></path><path d="M667.78 27.93L667.78 27.93" stroke="rgba(19, 46, 101, 0.32)" stroke-width="1.5"></path><path d="M667.78 27.93L753.14 -29.36" stroke="rgba(19, 46, 101, 0.32)" stroke-width="1.5"></path><path d="M628.71 249.41L628.71 249.41" stroke="rgba(19, 46, 101, 0.32)" stroke-width="1.5"></path><path d="M628.71 249.41L731.89 262.68" stroke="rgba(19, 46, 101, 0.32)" stroke-width="1.5"></path><path d="M628.71 249.41L728.71 149.5" stroke="rgba(19, 46, 101, 0.32)" stroke-width="1.5"></path><path d="M628.71 249.41L459.85 260.71" stroke="rgba(19, 46, 101, 0.32)" stroke-width="1.5"></path><path d="M628.71 249.41L431.19 150.65" stroke="rgba(19, 46, 101, 0.32)" stroke-width="1.5"></path><path d="M753.14 -29.36L753.14 -29.36" stroke="rgba(19, 46, 101, 0.32)" stroke-width="1.5"></path><path d="M753.14 -29.36L842.58 -57.13" stroke="rgba(19, 46, 101, 0.32)" stroke-width="1.5"></path><path d="M753.14 -29.36L633.82 -52.59" stroke="rgba(19, 46, 101, 0.32)" stroke-width="1.5"></path><path d="M753.14 -29.36L842.66 61" stroke="rgba(19, 46, 101, 0.32)" stroke-width="1.5"></path><path d="M753.14 -29.36L728.71 149.5" stroke="rgba(19, 46, 101, 0.32)" stroke-width="1.5"></path><path d="M753.14 -29.36L835.3 146.36" stroke="rgba(19, 46, 101, 0.32)" stroke-width="1.5"></path><path d="M728.71 149.5L728.71 149.5" stroke="rgba(19, 46, 101, 0.32)" stroke-width="1.5"></path><path d="M728.71 149.5L835.3 146.36" stroke="rgba(19, 46, 101, 0.32)" stroke-width="1.5"></path><path d="M728.71 149.5L731.89 262.68" stroke="rgba(19, 46, 101, 0.32)" stroke-width="1.5"></path><path d="M728.71 149.5L667.78 27.93" stroke="rgba(19, 46, 101, 0.32)" stroke-width="1.5"></path><path d="M728.71 149.5L842.66 61" stroke="rgba(19, 46, 101, 0.32)" stroke-width="1.5"></path><path d="M728.71 149.5L556.16 174.19" stroke="rgba(19, 46, 101, 0.32)" stroke-width="1.5"></path><path d="M731.89 262.68L731.89 262.68" stroke="rgba(19, 46, 101, 0.32)" stroke-width="1.5"></path><path d="M731.89 262.68L835.3 146.36" stroke="rgba(19, 46, 101, 0.32)" stroke-width="1.5"></path><path d="M731.89 262.68L542.64 262.53" stroke="rgba(19, 46, 101, 0.32)" stroke-width="1.5"></path><path d="M731.89 262.68L556.16 174.19" stroke="rgba(19, 46, 101, 0.32)" stroke-width="1.5"></path><path d="M842.58 -57.13L842.58 -57.13" stroke="rgba(19, 46, 101, 0.32)" stroke-width="1.5"></path><path d="M842.58 -57.13L842.66 61" stroke="rgba(19, 46, 101, 0.32)" stroke-width="1.5"></path><path d="M842.58 -57.13L667.78 27.93" stroke="rgba(19, 46, 101, 0.32)" stroke-width="1.5"></path><path d="M842.58 -57.13L835.3 146.36" stroke="rgba(19, 46, 101, 0.32)" stroke-width="1.5"></path><path d="M842.58 -57.13L633.82 -52.59" stroke="rgba(19, 46, 101, 0.32)" stroke-width="1.5"></path><path d="M842.58 -57.13L728.71 149.5" stroke="rgba(19, 46, 101, 0.32)" stroke-width="1.5"></path><path d="M842.66 61L842.66 61" stroke="rgba(19, 46, 101, 0.32)" stroke-width="1.5"></path><path d="M842.66 61L835.3 146.36" stroke="rgba(19, 46, 101, 0.32)" stroke-width="1.5"></path><path d="M835.3 146.36L835.3 146.36" stroke="rgba(19, 46, 101, 0.32)" stroke-width="1.5"></path><circle r="5" cx="-42.43" cy="144.36" fill="rgba(19, 46, 101, 0.32)"></circle><circle r="5" cx="-40.72" cy="270.68" fill="rgba(19, 46, 101, 0.32)"></circle><circle r="5" cx="131.55" cy="126.11" fill="rgba(19, 46, 101, 0.32)"></circle><circle r="5" cx="162.77" cy="254.79" fill="rgba(19, 46, 101, 0.32)"></circle><circle r="5" cx="229.88" cy="157.98" fill="rgba(19, 46, 101, 0.32)"></circle><circle r="5" cx="233.99" cy="227.01" fill="rgba(19, 46, 101, 0.32)"></circle><circle r="5" cx="344.78" cy="135.55" fill="rgba(19, 46, 101, 0.32)"></circle><circle r="5" cx="336.05" cy="256.91" fill="rgba(19, 46, 101, 0.32)"></circle><circle r="5" cx="431.19" cy="150.65" fill="rgba(19, 46, 101, 0.32)"></circle><circle r="5" cx="459.85" cy="260.71" fill="rgba(19, 46, 101, 0.32)"></circle><circle r="5" cx="525.9" cy="-50.45" fill="rgba(19, 46, 101, 0.32)"></circle><circle r="5" cx="550.39" cy="30.22" fill="rgba(19, 46, 101, 0.32)"></circle><circle r="5" cx="556.16" cy="174.19" fill="rgba(19, 46, 101, 0.32)"></circle><circle r="5" cx="542.64" cy="262.53" fill="rgba(19, 46, 101, 0.32)"></circle><circle r="5" cx="633.82" cy="-52.59" fill="rgba(19, 46, 101, 0.32)"></circle><circle r="5" cx="667.78" cy="27.93" fill="rgba(19, 46, 101, 0.32)"></circle><circle r="5" cx="628.71" cy="249.41" fill="rgba(19, 46, 101, 0.32)"></circle><circle r="5" cx="753.14" cy="-29.36" fill="rgba(19, 46, 101, 0.32)"></circle><circle r="5" cx="728.71" cy="149.5" fill="rgba(19, 46, 101, 0.32)"></circle><circle r="5" cx="731.89" cy="262.68" fill="rgba(19, 46, 101, 0.32)"></circle><circle r="5" cx="842.58" cy="-57.13" fill="rgba(19, 46, 101, 0.32)"></circle><circle r="5" cx="842.66" cy="61" fill="rgba(19, 46, 101, 0.32)"></circle><circle r="5" cx="835.3" cy="146.36" fill="rgba(19, 46, 101, 0.32)"></circle><path d="M48.09 172.46L48.09 172.46" stroke="hsla(228.5, 77.2%, 51.5%, 0.56)" stroke-width="1.5"></path><path d="M48.09 172.46L-56.58 235.23" stroke="hsla(228.5, 77.2%, 51.5%, 0.56)" stroke-width="1.5"></path><path d="M358.69 145.54L358.69 145.54" stroke="hsla(228.5, 77.2%, 51.5%, 0.56)" stroke-width="1.5"></path><path d="M358.69 145.54L325.84 249.56" stroke="hsla(228.5, 77.2%, 51.5%, 0.56)" stroke-width="1.5"></path><path d="M358.69 145.54L461 265.29" stroke="hsla(228.5, 77.2%, 51.5%, 0.56)" stroke-width="1.5"></path><path d="M358.69 145.54L249.99 265.16" stroke="hsla(228.5, 77.2%, 51.5%, 0.56)" stroke-width="1.5"></path><path d="M358.69 145.54L162.39 256.07" stroke="hsla(228.5, 77.2%, 51.5%, 0.56)" stroke-width="1.5"></path><path d="M560.55 258.05L560.55 258.05" stroke="hsla(228.5, 77.2%, 51.5%, 0.56)" stroke-width="1.5"></path><path d="M560.55 258.05L637.38 258.41" stroke="hsla(228.5, 77.2%, 51.5%, 0.56)" stroke-width="1.5"></path><path d="M560.55 258.05L461 265.29" stroke="hsla(228.5, 77.2%, 51.5%, 0.56)" stroke-width="1.5"></path><path d="M749.33 262.23L749.33 262.23" stroke="hsla(228.5, 77.2%, 51.5%, 0.56)" stroke-width="1.5"></path><path d="M749.33 262.23L850 251.45" stroke="hsla(228.5, 77.2%, 51.5%, 0.56)" stroke-width="1.5"></path><path d="M749.33 262.23L637.38 258.41" stroke="hsla(228.5, 77.2%, 51.5%, 0.56)" stroke-width="1.5"></path><path d="M749.33 262.23L726.74 148.94" stroke="hsla(228.5, 77.2%, 51.5%, 0.56)" stroke-width="1.5"></path><path d="M749.33 262.23L645.68 162.83" stroke="hsla(228.5, 77.2%, 51.5%, 0.56)" stroke-width="1.5"></path><path d="M749.33 262.23L857.33 137.59" stroke="hsla(228.5, 77.2%, 51.5%, 0.56)" stroke-width="1.5"></path><path d="M-56.58 235.23L-56.58 235.23" stroke="hsla(228.5, 77.2%, 51.5%, 0.56)" stroke-width="1.5"></path><path d="M-56.58 235.23L162.39 256.07" stroke="hsla(228.5, 77.2%, 51.5%, 0.56)" stroke-width="1.5"></path><path d="M-56.58 235.23L249.99 265.16" stroke="hsla(228.5, 77.2%, 51.5%, 0.56)" stroke-width="1.5"></path><path d="M-56.58 235.23L325.84 249.56" stroke="hsla(228.5, 77.2%, 51.5%, 0.56)" stroke-width="1.5"></path><path d="M162.39 256.07L162.39 256.07" stroke="hsla(228.5, 77.2%, 51.5%, 0.56)" stroke-width="1.5"></path><path d="M162.39 256.07L249.99 265.16" stroke="hsla(228.5, 77.2%, 51.5%, 0.56)" stroke-width="1.5"></path><path d="M162.39 256.07L48.09 172.46" stroke="hsla(228.5, 77.2%, 51.5%, 0.56)" stroke-width="1.5"></path><path d="M162.39 256.07L325.84 249.56" stroke="hsla(228.5, 77.2%, 51.5%, 0.56)" stroke-width="1.5"></path><path d="M249.99 265.16L249.99 265.16" stroke="hsla(228.5, 77.2%, 51.5%, 0.56)" stroke-width="1.5"></path><path d="M249.99 265.16L325.84 249.56" stroke="hsla(228.5, 77.2%, 51.5%, 0.56)" stroke-width="1.5"></path><path d="M249.99 265.16L461 265.29" stroke="hsla(228.5, 77.2%, 51.5%, 0.56)" stroke-width="1.5"></path><path d="M249.99 265.16L48.09 172.46" stroke="hsla(228.5, 77.2%, 51.5%, 0.56)" stroke-width="1.5"></path><path d="M325.84 249.56L325.84 249.56" stroke="hsla(228.5, 77.2%, 51.5%, 0.56)" stroke-width="1.5"></path><path d="M325.84 249.56L461 265.29" stroke="hsla(228.5, 77.2%, 51.5%, 0.56)" stroke-width="1.5"></path><path d="M325.84 249.56L560.55 258.05" stroke="hsla(228.5, 77.2%, 51.5%, 0.56)" stroke-width="1.5"></path><path d="M325.84 249.56L48.09 172.46" stroke="hsla(228.5, 77.2%, 51.5%, 0.56)" stroke-width="1.5"></path><path d="M461 265.29L461 265.29" stroke="hsla(228.5, 77.2%, 51.5%, 0.56)" stroke-width="1.5"></path><path d="M461 265.29L637.38 258.41" stroke="hsla(228.5, 77.2%, 51.5%, 0.56)" stroke-width="1.5"></path><path d="M657.22 71.91L657.22 71.91" stroke="hsla(228.5, 77.2%, 51.5%, 0.56)" stroke-width="1.5"></path><path d="M657.22 71.91L746.21 67.06" stroke="hsla(228.5, 77.2%, 51.5%, 0.56)" stroke-width="1.5"></path><path d="M657.22 71.91L645.68 162.83" stroke="hsla(228.5, 77.2%, 51.5%, 0.56)" stroke-width="1.5"></path><path d="M657.22 71.91L726.74 148.94" stroke="hsla(228.5, 77.2%, 51.5%, 0.56)" stroke-width="1.5"></path><path d="M657.22 71.91L766.64 -70.32" stroke="hsla(228.5, 77.2%, 51.5%, 0.56)" stroke-width="1.5"></path><path d="M657.22 71.91L637.38 258.41" stroke="hsla(228.5, 77.2%, 51.5%, 0.56)" stroke-width="1.5"></path><path d="M657.22 71.91L859.67 42.35" stroke="hsla(228.5, 77.2%, 51.5%, 0.56)" stroke-width="1.5"></path><path d="M645.68 162.83L645.68 162.83" stroke="hsla(228.5, 77.2%, 51.5%, 0.56)" stroke-width="1.5"></path><path d="M645.68 162.83L726.74 148.94" stroke="hsla(228.5, 77.2%, 51.5%, 0.56)" stroke-width="1.5"></path><path d="M645.68 162.83L637.38 258.41" stroke="hsla(228.5, 77.2%, 51.5%, 0.56)" stroke-width="1.5"></path><path d="M637.38 258.41L637.38 258.41" stroke="hsla(228.5, 77.2%, 51.5%, 0.56)" stroke-width="1.5"></path><path d="M637.38 258.41L726.74 148.94" stroke="hsla(228.5, 77.2%, 51.5%, 0.56)" stroke-width="1.5"></path><path d="M766.64 -70.32L766.64 -70.32" stroke="hsla(228.5, 77.2%, 51.5%, 0.56)" stroke-width="1.5"></path><path d="M766.64 -70.32L831.04 -54.37" stroke="hsla(228.5, 77.2%, 51.5%, 0.56)" stroke-width="1.5"></path><path d="M766.64 -70.32L746.21 67.06" stroke="hsla(228.5, 77.2%, 51.5%, 0.56)" stroke-width="1.5"></path><path d="M766.64 -70.32L859.67 42.35" stroke="hsla(228.5, 77.2%, 51.5%, 0.56)" stroke-width="1.5"></path><path d="M766.64 -70.32L726.74 148.94" stroke="hsla(228.5, 77.2%, 51.5%, 0.56)" stroke-width="1.5"></path><path d="M766.64 -70.32L857.33 137.59" stroke="hsla(228.5, 77.2%, 51.5%, 0.56)" stroke-width="1.5"></path><path d="M746.21 67.06L746.21 67.06" stroke="hsla(228.5, 77.2%, 51.5%, 0.56)" stroke-width="1.5"></path><path d="M746.21 67.06L726.74 148.94" stroke="hsla(228.5, 77.2%, 51.5%, 0.56)" stroke-width="1.5"></path><path d="M746.21 67.06L859.67 42.35" stroke="hsla(228.5, 77.2%, 51.5%, 0.56)" stroke-width="1.5"></path><path d="M746.21 67.06L857.33 137.59" stroke="hsla(228.5, 77.2%, 51.5%, 0.56)" stroke-width="1.5"></path><path d="M746.21 67.06L645.68 162.83" stroke="hsla(228.5, 77.2%, 51.5%, 0.56)" stroke-width="1.5"></path><path d="M726.74 148.94L726.74 148.94" stroke="hsla(228.5, 77.2%, 51.5%, 0.56)" stroke-width="1.5"></path><path d="M726.74 148.94L857.33 137.59" stroke="hsla(228.5, 77.2%, 51.5%, 0.56)" stroke-width="1.5"></path><path d="M831.04 -54.37L831.04 -54.37" stroke="hsla(228.5, 77.2%, 51.5%, 0.56)" stroke-width="1.5"></path><path d="M831.04 -54.37L859.67 42.35" stroke="hsla(228.5, 77.2%, 51.5%, 0.56)" stroke-width="1.5"></path><path d="M831.04 -54.37L746.21 67.06" stroke="hsla(228.5, 77.2%, 51.5%, 0.56)" stroke-width="1.5"></path><path d="M831.04 -54.37L857.33 137.59" stroke="hsla(228.5, 77.2%, 51.5%, 0.56)" stroke-width="1.5"></path><path d="M831.04 -54.37L657.22 71.91" stroke="hsla(228.5, 77.2%, 51.5%, 0.56)" stroke-width="1.5"></path><path d="M831.04 -54.37L726.74 148.94" stroke="hsla(228.5, 77.2%, 51.5%, 0.56)" stroke-width="1.5"></path><path d="M859.67 42.35L859.67 42.35" stroke="hsla(228.5, 77.2%, 51.5%, 0.56)" stroke-width="1.5"></path><path d="M859.67 42.35L857.33 137.59" stroke="hsla(228.5, 77.2%, 51.5%, 0.56)" stroke-width="1.5"></path><path d="M859.67 42.35L726.74 148.94" stroke="hsla(228.5, 77.2%, 51.5%, 0.56)" stroke-width="1.5"></path><path d="M857.33 137.59L857.33 137.59" stroke="hsla(228.5, 77.2%, 51.5%, 0.56)" stroke-width="1.5"></path><path d="M857.33 137.59L850 251.45" stroke="hsla(228.5, 77.2%, 51.5%, 0.56)" stroke-width="1.5"></path><path d="M850 251.45L850 251.45" stroke="hsla(228.5, 77.2%, 51.5%, 0.56)" stroke-width="1.5"></path><path d="M850 251.45L726.74 148.94" stroke="hsla(228.5, 77.2%, 51.5%, 0.56)" stroke-width="1.5"></path><path d="M850 251.45L859.67 42.35" stroke="hsla(228.5, 77.2%, 51.5%, 0.56)" stroke-width="1.5"></path><path d="M850 251.45L746.21 67.06" stroke="hsla(228.5, 77.2%, 51.5%, 0.56)" stroke-width="1.5"></path><circle r="25" cx="48.09" cy="172.46" fill="url(&quot;#SvgjsRadialGradient1027&quot;)"></circle><circle r="25" cx="358.69" cy="145.54" fill="url(&quot;#SvgjsRadialGradient1027&quot;)"></circle><circle r="25" cx="560.55" cy="258.05" fill="url(&quot;#SvgjsRadialGradient1027&quot;)"></circle><circle r="25" cx="749.33" cy="262.23" fill="url(&quot;#SvgjsRadialGradient1027&quot;)"></circle><circle r="5" cx="-56.58" cy="235.23" fill="rgba(190, 198, 234, 0.78)"></circle><circle r="5" cx="162.39" cy="256.07" fill="rgba(190, 198, 234, 0.78)"></circle><circle r="5" cx="249.99" cy="265.16" fill="rgba(190, 198, 234, 0.78)"></circle><circle r="5" cx="325.84" cy="249.56" fill="rgba(190, 198, 234, 0.78)"></circle><circle r="5" cx="461" cy="265.29" fill="rgba(190, 198, 234, 0.78)"></circle><circle r="5" cx="657.22" cy="71.91" fill="rgba(190, 198, 234, 0.78)"></circle><circle r="5" cx="645.68" cy="162.83" fill="rgba(190, 198, 234, 0.78)"></circle><circle r="5" cx="637.38" cy="258.41" fill="rgba(190, 198, 234, 0.78)"></circle><circle r="5" cx="766.64" cy="-70.32" fill="rgba(190, 198, 234, 0.78)"></circle><circle r="5" cx="746.21" cy="67.06" fill="rgba(190, 198, 234, 0.78)"></circle><circle r="5" cx="726.74" cy="148.94" fill="rgba(190, 198, 234, 0.78)"></circle><circle r="5" cx="831.04" cy="-54.37" fill="rgba(190, 198, 234, 0.78)"></circle><circle r="5" cx="859.67" cy="42.35" fill="rgba(190, 198, 234, 0.78)"></circle><circle r="5" cx="857.33" cy="137.59" fill="rgba(190, 198, 234, 0.78)"></circle><circle r="5" cx="850" cy="251.45" fill="rgba(190, 198, 234, 0.78)"></circle></g><defs><mask id="SvgjsMask1026"><rect width="800" height="200" fill="#ffffff"></rect></mask><radialGradient id="SvgjsRadialGradient1027"><stop stop-color="#ffffff" offset="0.1"></stop><stop stop-color="rgba(23, 53, 179, 0.56)" offset="0.2"></stop><stop stop-color="rgba(23, 53, 179, 0)" offset="1"></stop></radialGradient></defs></svg>