<?xml version="1.0" encoding="utf-8"?>
<!DOCTYPE svg PUBLIC "-//W3C//DTD SVG 1.1//EN" "http://www.w3.org/Graphics/SVG/1.1/DTD/svg11.dtd">
<svg version="1.1" id="Layer_1" xmlns="http://www.w3.org/2000/svg" xmlns:xlink="http://www.w3.org/1999/xlink" x="0px" y="0px"
	 viewBox="0 0 1062 1000" enable-background="new 0 0 1062 1000" xml:space="preserve">
<g>
	<rect fill="#FFE1A1" stroke="#FFE1A1" stroke-width="0.0938" width="1062" height="1000"/>
	<g id="_x23_ffffffff">
		<path fill="#FFFFFF" stroke="#FFFFFF" stroke-width="0.0938" d="M0,0h0.54C0.47,326.99,0.53,653.97,0.51,980.96
			c0.13,6.34-0.37,12.71,0.35,19.04H0V0z"/>
		<path fill="#FFFFFF" stroke="#FFFFFF" stroke-width="0.0938" d="M751.98,43.93c7.13-2.47,14.82-1.98,22.25-1.96
			c0.36,0.03,1.07,0.1,1.43,0.14c4.9301,1.49,11.3,2.39,13.69,7.65c7.64,15.34,11.8,32.05,17.92,47.99
			c5.06,12.71,12.36,24.48,16.32,37.63c4.54,15.16,6.5699,30.91,9.17,46.48c2.91,17.42,6.2,34.77,9.25,52.16
			c1.61,8.73-0.27,17.55-0.57,26.3c-0.72,18.02-1.96,36.1-5.67,53.78c-0.24,0.56-0.73,1.67-0.98,2.23
			c-0.78-5.79-1.53-11.58-2.11-17.4c-0.46-5-3.3-9.35-6.66-12.92c-5.93-6.19-12.41-11.84-18.61-17.75
			c5.83-4.57,0.39-13.85-5.74-14.99c-1.35-3.8-3.14-7.41-4.72-11.11c-2.23-5.18-2.64-11.2-6.34-15.68
			c-4.09-4.92-10.25-8.25-12.55-14.53c-2.6-6.65-5.44-14.26-12.42-17.42c-5.76-2.74-11.89,0.32-17.6,1.56
			c-5.07,1.27-11.05,3.51-12.63,9.06c-1.02,3.95-3.3,7.36-4.65,11.17l-0.1,0.47c-0.36-0.76-0.66-1.53-0.9-2.31
			c1.39-2.57,4.08-5.17,3.27-8.34c-4.28-1.23-5.72,3.59-8.0601,5.98c-6.2599-1.05-12.79-0.31-18.92-2.22
			c-4.69,1.2-9.65,1.84-13.89,4.3c-3.93,2.37-6.22,7.21-5.58,11.75c0.6,3.58,3.47,6.1,6.11,8.33c3.82,3.05,7.17,6.77,11.63,8.93
			c-6.24,2.74-13.69,3.36-18.7,8.38c-4.04,3.86-4.39,9.9-7.85,14.14c-2.42,2.95-4.61,6.07-6.71,9.26
			c-2.77,4.19-6.52,7.64-9.13,11.93c-2.37,3.87-3.21,8.38-4.59,12.64c-2.05,6.34-4.78,12.46-7.86,18.36
			c0.11-1.68,0.16-3.37,0.56-5.01c7.17-23.97,14.72-47.82,22.16-71.71c4.58-13.93,7.54-28.5,7.6-43.19
			c-0.71-13.86,2.03-27.56,3.12-41.32c2.67-10.85,7.14-21.13,11.15-31.53c3.5-8.52,6.52-17.25,10.59-25.53
			c4.07-8.68,10.23-16.11,15.35-24.16c3.54-3.35,5.68-7.8,8.78-11.51C734.96,55.78,742.29,47.85,751.98,43.93 M748.52,53.58
			c-3.98,3.91-4.94,9.82-4.86,15.17c-4.41,0.1-9.06,1.34-12.05,4.79c-5.44,6.17-6.14,15.31-4.03,22.98
			c0.91,3.91,4.35,6.62,5.25,10.52c-0.75,4.68-4.83,9.24-2.26,14.11c1.42,3.87,7.45,3.42,8.71-0.28
			c0.8799-3.56-0.3-7.23,0.1899-10.82c1.3101-2.24,4.3701-2.1,6.47-3.26c8.98-4.25,15.97-14.14,14.32-24.37
			c5.46,1.58,7.13,7.95,12.02,10.42c4.34,2.69,10.83,4.49,14.8199,0.23c4.05-4.65,4.02-11.8,2.12-17.37
			c-3.16-6.09-7.54-12.26-14.22-14.75c-5.94-2.26-10.32-7.04-14.96-11.18C755.98,50.01,751.56,50.58,748.52,53.58 M771.34,106.53
			c-5.27,3.17-7.84,9.13-10.41,14.44c-2.94,6.98-7.49,14.14-5.93,22.04c1.01,5.4,6.98,8.11,12.03,7.64
			c4.98-0.52,9.77-2.22,14.37-4.12c5.16-2,8.61-8.1,6.98-13.51c-0.99-4.61-1.73-9.27-2.12-13.98c-0.32-5.1-3.52-9.78-7.87-12.34
			C776.26,105.44,773.5,105.31,771.34,106.53 M735.37,128.49c-3.26,1.52-3.08,6.25-1.74,9.04c1.47,3.62,6.78,2.31,8.55-0.38
			C745.19,133.01,739.87,127.13,735.37,128.49 M714.44,135.64c-2.49,0.82-5.19,2.5-5.63,5.3c-1.08,5.15,3.85,10.76,9.25,9.21
			c6.01-0.88,7.89-9.1,4.08-13.27C720.14,134.89,716.98,134.88,714.44,135.64 M731.53,144.7c-4.7401,2.29-7.1,7.53-8.91,12.18
			c-2.46,6.05-1.17,13.31,3.19,18.16c2.51,2.69,3.71,6.76,7.18,8.41c3.98,0.62,7.9-2.36,9.42-5.93c2.3-5.63,1.04-11.84,0.15-17.63
			c-0.79-3.58,1.71-7.2,0.25-10.68C740.91,145.14,735.65,143.5,731.53,144.7 M709.25,155.28c-3.88,2.26-7,6.12-7.84,10.61
			c-1.86,8.19-3.3,16.69-7.47,24.11c-1.81,2.41-0.4,5.67,1.58,7.47c2.91,1.28,6.6,0.16,8.39-2.45c3.98-5.49,3.7-12.67,6.5-18.66
			c2.4301-4.96,6.7-9.52,6.2401-15.43C716.62,157.38,712.85,153.58,709.25,155.28 M791.46,161.58c-2.45,1.6-3.52,4.64-3.78,7.43
			c-0.37,4.08,3.31,7.06,3.59,11.04c-0.14,3.35-1.88,6.53-1.46,9.93c0.58,5.48,4.25,9.85,6.03,14.92c0.99,2.32,1.48,5.08,3.53,6.76
			c2.82,2.06,6.96,1.48,9.53-0.75c2.89-2.43,5.29-6.09,4.95-10c-0.8199-4.33-1.72-8.8-4.3-12.47c-2.55-4.37-7.46-6.86-9.62-11.5
			c-0.68-3.52,1.25-7.46-0.82-10.76C797.57,163.66,794.84,159.92,791.46,161.58 M730.12,186.2c-2.87,0.83-3.15,5.27-0.81,6.87
			c1.69,1.18,4.66,0.89,5.54-1.22C736.42,188.93,733.4,184.85,730.12,186.2 M819.7,201.04c-0.41,2.71,0.83,5.3,1.04,7.97
			c-0.37,2.25-3.08,4.34-1.34,6.61c0.59,1.66,2.39,3.34,1.55,5.21c-6.54,0.55-11.65-5.75-17.92-5.96c-2.96,3.86-0.66,9.1-2.83,13.24
			c-1.48,2.84-2.79,5.76-3.73,8.82c-0.47,6.04,6.36,10.07,11.66,7.88c3.02-0.72,6.28-2.77,9.38-1.35c2.37,4.13,2.7,9.39,6.12,12.92
			c2.25,2.12,4.94-0.46,6.3-2.32c2.34-2.49,2.29-6.02,2.32-9.21c-0.16-2.27,2-3.67,2.55-5.71c0.45-4.3,1.35-8.98-1.01-12.91
			c-1.11-2.87-4.5-3.74-5.95-6.27c0.49-1.99,1.87-3.81,1.72-5.92c-0.69-2.48-2.71-4.36-3.27-6.87c-0.61-2.18-0.59-4.62-1.95-6.52
			C823.27,198.98,820.52,199.31,819.7,201.04z"/>
		<path fill="#FFFFFF" stroke="#FFFFFF" stroke-width="0.0938" d="M643.49,224.68c2.84,0.01,6.21-0.77,8.6,1.26
			c2.54,2.7,3.17,6.82,2.11,10.31c-4.61,15.59-10.06,30.91-15.76,46.14c-5.87,15.66-14.15,30.37-18.78,46.51
			c-1.16,4.23-6.42,4.12-9.89,3.52c-12.19-2.47-23.08-8.78-34.17-14.1c-6.59-3.14-14.09-2.88-21.21-2.99
			c-7.85-4.35-15.78-8.67-24.24-11.74c-3.63-1.35-7.23-2.81-10.72-4.5c-4.8-4.64-10.9-9.21-11.18-16.53
			c3.74-3.03,7.91-5.46,12.2-7.63c3.65-0.57,7.2-1.59,10.66-2.89c19.59-6.6,39.24-13.09,58.5-20.61c5.38-2.28,11.08-3.95,15.9-7.35
			C618.57,238.45,631.39,232.18,643.49,224.68 M606.06,248.3c-2.71-0.57-5.17,0.86-7.06,2.65c-4.32,1.42-8.49,3.35-12.05,6.21
			c-4.49,3.5-10.46,3.77-15.36,6.45c-3.01,1.49-5.2401,4.05-7.61,6.35c-2.57,2.66-6.51,2.75-9.87,3.64
			c-3.59,0.79-6.58,3.2-10.18,3.95c-2.7,0.04-5.47-1.25-8.06,0.01c-3.37,0.86-6.04,3.93-6.03,7.47c0.47,2.98,3.23,4.84,5.61,6.33
			c3.03,1.48,6.39,0.12,8.67-2.06c3.2-0.28,5.93-1.9,8.85-3.06c4.21-0.25,7.07,3.6,10.96,4.57c5.01,1.22,10.27-0.34,15.26,1.08
			c5.92,1.67,10.13,6.62,15.88,8.7c1.66,0.86,4.13,1.36,4.62,3.48c0.28,3.63-2.02,7.59,0.32,10.93c1.91,2.59,2.13,5.96,3.89,8.6
			c0.5-0.11,1.48-0.33,1.97-0.44c2.1-2.96,3.21-6.59,3.81-10.14c0.1-4.01-4.3-5.78-5.89-9.01c-0.41-2.64,1.19-5.24,0.55-7.89
			c-0.22-2.02-1.1-4.07-0.53-6.09c6.93-12.82,22.37-19.54,26.57-34.05c-0.33-4.95-4.38-8.7-8.72-10.49
			C616.33,244.75,611.1,246.84,606.06,248.3z"/>
		<path fill="#FFFFFF" stroke="#FFFFFF" stroke-width="0.0938" d="M882.66,245.68c5.23-3.12,11.65-2.53,17.51-2.7
			c6.36,0.89,12.56,2.91,18.23,5.96c4.4,3.87,9.5699,6.8,13.5699,11.15c7.6201,8.06,17.79,12.84,26.53,19.49
			c1.75,1.29,3.59,2.47,5.39,3.7c0.3,0.37,0.92,1.1,1.23,1.46c2.88,3.86,5.46,7.96,8.46,11.74c4.22,4.62,10.83,5.42,16.67,6.46
			c6.19,2.75,12.16,6.02,17.61,10.06c2.36,2.79,5.02,5.44,6.52,8.84c-1.53,5.03-1.39,10.62-4.5,15.1
			c-4.12,6.13-9.93,12.41-17.8,12.84c-13.84,0.65-27.14,5.43-41.02,5.67c-12.47,0.03-24.63,3.46-37.06,3.83
			c-11.2-0.04-20.99-7.04-27.82-15.4c-4.17-5.55-11.6-6.83-16.13-11.95c-7.15-7.33-9.24-18.05-8.67-27.95
			c0.85-15.23,5.86-30.05,13.35-43.27C877.48,255.78,877.91,249.3,882.66,245.68 M887.13,267.08c-2.5,1.65-4.69,4-5.33,7.01
			c-1.69,6.36,2.38,12.48,1.32,18.86c-0.11,3.5-1.48,7.76,1.21,10.65c2.8,2.93,7.11,1.9,10.71,2.41
			c2.64,0.83,4.9901,3.3,7.9901,2.31c2.46-0.57,3.12-3.19,3.8-5.26l1,0.66c5.27,2.97,12.29-1.74,12.03-7.68
			c-0.72-6.58-5.07-12.92-11.1-15.79c-2.28-1.21-4.77-0.41-6.73,0.97c-1.47-4.03-1.84-8.71-5.07-11.86
			c-0.16-1.83-0.06-4.27-2.08-5.12C892.01,262.83,888.66,264.5,887.13,267.08 M932.57,300.08c-0.93,2.9,1.25,5.39,3.28,7.14
			c1.9901,1.94,5.1,1.26,7.38,2.64c1.51,3.09,0.25,6.84,2.01,9.9c1.33,2.08-0.67,5.26-3.13,4.94c-2.95-0.66-4.9-4.15-8.14-3.6
			c-2.75,0.73-5.31,2.01-8.06,2.68c-1.2599-2.32-1.39-6.89-4.96-6.53c-4.21,0.25-4.01,5.94-7.75,6.96
			c-4.25,1.49-8.9-0.16-13.18,1.02c-2.2,0.82-1.33,3.48-0.08,4.8c2.41,3.14,6.62,3.33,10.17,4.22c3.16,0.6,5.71,2.95,8.93,3.37
			c2.88-0.01,5.23-2.05,7.96-2.74c3.21-0.06,5.37,2.67,7.79,4.37c4.13,3.29,9.58,3.68,14.35,5.58c4.55,1.78,8.12,5.48,12.86,6.88
			c4.54,1.5,9.2-0.69,13.41-2.32c5-1.95,8.88-7.57,7-12.99c-2.43-6.05-8.24-9.64-12.68-14.1c-3.35-3.56-8.2-4.72-12.6-6.4
			c-2.86-0.99-3.34-4.57-5.62-6.2c-1.96-0.68-4.03-0.92-6.03-1.33c-0.49-2.82,0.39-5.6,0.42-8.41c-0.46-3.39-4.04-5.04-6.81-6.29
			C935.56,293.36,933.3,297.08,932.57,300.08 M890.33,315.9c1,1.64,2.44,3.89,4.71,3.48c2.26-1.03,3.36-3.4,4.77-5.3
			c-1.23-1.75-1.94-5.43-4.78-4.58C892.93,310.98,889.9,312.96,890.33,315.9z"/>
		<path fill="#FFFFFF" stroke="#FFFFFF" stroke-width="0.0938" d="M712.66,263.3c1.8701-2.05,4.01-5.4,7.28-4.34
			c3.27,1.13,7.22,3.23,7.88,6.95c-0.74,3.51-4.48,4.98-7.23,6.68c-3.26,1.66-5.5,4.73-8.81,6.31c1.5-2.58,2.99-5.22,3.79-8.12
			C716.22,267.94,714.39,265.36,712.66,263.3z"/>
		<path fill="#FFFFFF" stroke="#FFFFFF" stroke-width="0.0938" d="M706.23,293.11c1.53-1,3.79-0.65,5.21,0.45
			c1.35,2.46,1.05,5.79,3.25,7.75c2.7,1.43,8.15,0.33,8.28,4.61c-0.34,8.26-4.67,15.62-7.52,23.19c-1.3,3.87-1.14,8.83-4.99,11.27
			c-3.93,2.5-8.06-1.77-8.97-5.45c-0.55-4.77,7.43-4.2,7.07-8.9c-0.85-4.65-4.61-7.99-6.04-12.41c-1.09-3.52-2.29-7.02-3.1-10.61
			C699.66,298.78,702.91,295.4,706.23,293.11z"/>
		<path fill="#FFFFFF" stroke="#FFFFFF" stroke-width="0.0938" d="M732.48,301.7c3.41-0.75,8.37-2.15,10.77,1.28
			c1.97,4.41-0.29,9.58,1.79,13.99c1.12,2.68,3.86,4.31,4.98,6.96c-0.49,1.93-1.7,4.49-4.01,4.46c-3.2-2.4-5.5-5.83-6.95-9.52
			c-1.93-5.07-6.72-8.55-8.16-13.86C730.26,303.74,731.21,302.09,732.48,301.7z"/>
		<path fill="#FFFFFF" stroke="#FFFFFF" stroke-width="0.0938" d="M757.24,325.97c3.42-4.01,7.83-7.27,12.8-9.07
			c3.12-0.11,3.93,3.68,3.32,6.1c-1.45,4.03-5,7.72-9.44,8.11C760.98,330.63,758.71,328.44,757.24,325.97z"/>
		<path fill="#FFFFFF" stroke="#FFFFFF" stroke-width="0.0938" d="M643.05,338c0.55-2.35,1.53-4.56,2.51-6.75
			c-0.08,6.93-3.96,13.72-1.8,20.65c1.97,5.24,5.6,9.9,10.26,13.04c1.34,5.04,4.3,10.21,2.63,15.53c-1.98,6.41-6.69,11.39-10.3,16.9
			c-4.68,6.99-13,10.25-18.12,16.83c-2.65,3.34-4.77,7.2-8.23,9.82c-3.59,2.69-7.78,4.75-10.57,8.38
			c-6.97,8.7-8.28,20.38-14.6,29.45c-2.6,4.12-8.14,4.3-11.35,7.67c-2.1,2.89-3.42,6.31-5.86,8.97c-3.19,4-7.51,8.03-7.49,13.52
			c0.45,4.08,1.57,8.11,3.27,11.84c1.41,2.99,4.14,5.58,7.55,5.94c4.02,0.32,8.08,0.38,12.12,0.12c3.67-0.13,6.33-3,9.66-4.14
			c3.11-1.22,6.79-1.3,9.35-3.67c1.9-1.31,3.51-3.65,6.02-3.65c1.53,1.44,2.63,4.53,0.38,5.83c-20.15,17.59-42.09,33-64.18,48.02
			c-17.06,11.47-34.66,22.1-52.5,32.31c-14.24,7.94-28.23,16.47-43.32,22.75c-10.46,4.41-21.14,8.29-31.87,12
			c-11.13,3.88-22.8,7.28-32.3,14.52c2.16,0.4,4.41,0.98,6.62,0.44c8.17-1.64,15.15-6.48,22.82-9.48
			c15.68-5.86,31.7-10.75,47.42-16.5c20.07-7.52,38.73-18.21,57.06-29.1801c12.41-7.58,24.99-14.8799,37.35-22.55
			c18.96-11.85,37.17-24.92,54.2-39.41c0.61,4.1,0.23,8.41,1.59,12.36c2.26,3.4,6.73,4.11,9.99,6.26
			c-6.71,1.77-14.12,3.25-19.04,8.57c-3.68,3.89-7.35,8.29-8.51,13.65c-0.94,3.23,2.29,5.76,5.27,5.66
			c5.8-0.14,11.09-3.05,16.84-3.55c2.7-0.42,5.56-0.13,8.16-1.09c5.08-3.07,7.94-8.58,10.05-13.92c1.87-4.8,6.3-8.44,6.58-13.85
			c5.35,0.59,11.27,2.72,16.32-0.15c5.22-3.32,6.72-9.88,10.98-14.11c1.82-2.04,4.82-3.83,4.38-6.99
			c-0.31-5.19-2.29-10.78,0.05-15.75c2.15-2.41,4.64,0.57,6.37,1.96c2.62,2.63,6.75,3.15,10.15,1.85c2.09-0.8,4.45-1.4,6.0099-3.12
			c1.14-1.41-0.12-3.19-0.37-4.69c1.51-3.08,3.91-5.67,7.23-6.76c5.45,0.61,10.64-3.51,12.12-8.61c0.76-2.29-1.63-3.63-3.03-4.87
			c0.96-2.7,1.94-5.38,2.97-8.05c0.38,2.97,0.93,6.06,2.56,8.63c0.54,0.93,1.34,1.29,2.41,1.09c2.64-1.58,4.12-4.82,7.23-5.63
			c4.65-1.29,9.71-2.23,13.31-5.73c2.06-1.64,3.73-4.25,6.55-4.58c3.85,0.8,6.42,4.23,10.1,5.45c2.22,0.66,4.54,0.01,6.73-0.5
			l1.6299-0.37c-5.99,9.47-13.09,18.22-20.11,26.94c-5.47,6.49-11.01,12.95-17.22,18.76c-9.04,8.33-19.34,15.31-27.46,24.6
			c-19.94,23.48-37.41,50.29-64.22,66.6801c-14.81,9.11-31.06,15.47-46.35,23.67c-15.57,8.27-31.25,16.5-47.97,22.22
			c-60.93,21.86-125.57,31.65-190.01,35.13c-7.01,0.49-13.16,4.4-20.08,5.32c-8.44,1.14-16.99,0.55-25.45,0.01
			c-10.92-0.51-21.87-0.58-32.79,0c-16.7,1.1-33.21,3.97-49.84,5.64c-18.33,2.18-37.15,1.9-54.91,7.51
			c-1.75,0.55-3.57,0.85-5.39,1.09c3.07-3.71,6.03-7.98,6.56-12.88c-1.41-2.54-3.94-4.22-5.37-6.75c-1.22-1.96-2.07-4.21-3.82-5.79
			c-2.96,0-5.21,2.29-8,2.96c-3.6,0.35-7.38-0.65-10.84,0.76c-5.49,1.94-9.12,6.76-13.77,10.02c-3.46-0.53-6.7,0.89-9.79,2.23
			c-3.89,1.69-8.47,2.34-11.5,5.58c-1.83,1.91-3.38,5.1-1.53,7.52c2.2,2.7,6.05,2.94,9.25,2.37c0,2.6-0.66,5.34,0.23,7.85
			c1.66,2.72,5.36,2.17,8.06,2.03c5.36-0.52,10.78-1.25,15.77-3.39l2.11-0.15c-3.52,3.75-7.86,6.61-11.39,10.35
			c-8.56,8.78-16.72,18.56-20.73,30.32c-4.13,13.98-0.39,28.88,5.49,41.78c6.35,14.53,15.96,27.27,23.53,41.11l-1.79-0.75
			c-3.05-2.99-6.55-6.28-11.11-6.33c-5.03,0.05-8.98,4.46-9.84,9.18c-2.5,12.34-2.39,25.08-1.09,37.56
			c-2.24-5.3-6.34-9.38-10.02-13.67c-0.81-1.13-1.52-2.33-2.45-3.34c-1.4-1.47-3.36-0.24-4.93,0.19c-2.78,1.16-6.01,2.65-7.1,5.69
			c-0.66,3.77-0.29,8.53,3.09,10.96c2.68,1.91,6.11,1.27,9.09,0.6c1.63,3.84,3.56,7.77,3.58,12.04c-0.14,4-1.3,8.06-0.16,12.02
			c1.16,4.8,5.16,8.33,9.4,10.53c3.14,1.79,6.81,0.0699,10.18,0.8199c1.21,1.87,1.49,4.3,3.04,5.96c2.89,1.92,6.86-1.02,6.52-4.27
			c-1.45-1.81-3.38-3.15-4.85-4.94c0.36-4.1,3.65-7.8,1.93-12.04c3.58,1.18,7.85,2.14,9.77,5.76c2.43,4.67-4.77,9.14-1.47,13.51
			c1.74,2.39,4.28,4.73,7.38,4.94c2.36-0.55,3.45-3.1,3.75-5.27c0.85-3.93-3.1-7-2.5-10.86c1.25-2.97,4.44-4.84,5.07-8.11
			c0.48-3.0601-0.59-6.04-1.17-9c-1.8-7.0601-0.82-14.61-3.55-21.47c-2.15-4.99-1.86-10.5-3.26-15.67c2.12,0.71,2.92,2.92,4.01,4.66
			c1.27,2.43,2.91,4.63,4.58,6.8c4.84,12.9901,7.85,26.61,9.8,40.32c-2.37,11.31-0.32,22.92-1.78,34.32
			c-0.66,4.56-2.27,10.07-7.07,11.8c-4.29,1.7401-8.74-0.19-13.03-0.82c-3.92-0.75-8.44-0.3799-11.58-3.2599
			c-6.34-5.35-8.49-13.65-12.22-20.71c-5.52-10.09-17.28-14.09-24.09-23.04c-10.26-13.08-18.91-27.33-27.15-41.75
			c-7.71-13.56-12.31-28.64-15.34-43.88c-3.06-13.82-6.73-28.07-4.21-42.28c2.92-16.78,11.23-31.89,18.87-46.89
			c7.08-13.77,16.57-26.7,29.65-35.3c21.15-14.21,46.67-18.72,70.49-26.52c14.11-4.44,28.73-6.91,42.97-10.89
			c11.53-3.2,23.2-5.84,34.87-8.45c17.09-2.61,34.28-5.03,50.88-9.99c7.99-2.31,15.79-5.21,23.58-8.09c1.83-0.29,3.69-0.41,5.5-0.85
			c17.01-4.65,33.98-9.71,50.15-16.83c16.4-7.11,32.35-15.2,48.85-22.07c19.11-8.37,36.97-19.25,54.55-30.39
			c11.8-7.33,23.2-15.34,33.79-24.35c1.24-1.02,2.07-2.42,3.02-3.69c13.52-10.03,25.89-21.69,35.7-35.43
			c8.57-7.46,16.15-16,23.43-24.71c12.25-14.74,20.26-32.29,28.9-49.24c4.31-8.58,9.38-16.75,13.47-25.43
			C632.98,374.04,638.69,356.15,643.05,338 M549.4,516.52c-5.22,1.47-8.75,5.86-12.31,9.65c-2.97,3.37-6.86,5.7-10.16,8.71
			c-3.17,3.09-7.96,3.12-11.49,5.63c-2.81,1.56-4.46,4.36-6.16,6.97c-1.56,2.82-5.57,2.75-7.15,5.54c-1.49,2.62-3.36,5.1-4.32,7.98
			c0.22,3.2,3,6.2,6.29,6.18c2.69-0.55,5.01-2.36,6.59-4.55c1.64-2.47,0.75-5.96,2.68-8.24c2.92-1.34,6.35-1.27,9.22-2.85
			c4.93-2.48,11.02-1.02,15.64-4.31c3.06-1.81,4.25-5.28,5.74-8.28c1.28-2.97,4.44-4.27,6.98-5.93c2.73-1.54,5.17-3.52,7.42-5.68
			c2.11-2.27,5.61-2.04,7.9-4.01c1.28-1.43,2.27-3.92,0.85-5.57c-3.42-2.02-7.46-0.13-11.13-0.79
			C553.8,516.78,551.58,515.94,549.4,516.52 M576.48,557.5c-3.04,1.54-5.36,4.96-5.15,8.43c0.11,2.25,2.78,2.93,4.66,2.68
			c4.58-0.19,7.35-5.92,5.34-9.83C580.38,557.09,578.12,556.82,576.48,557.5 M478.5,561.68c-3.92,1.98-5.4,6.51-8.2,9.63
			c-3.94,2.67-9.47,0.72-13.31,3.72c-3.72,2.7-7.87,6.85-6.65,11.89c1.36,3.8,5.85,5.54,9.62,5.6c3.44-0.53,6.59-2.26,9.64-3.88
			c4.43-2.25,5.8-7.55,9.75-10.34c2.94-2.35,7.24-3.28,8.94-6.95c1.09-2.74,1.46-6.56-0.84-8.78
			C484.76,561.07,481.42,560.8,478.5,561.68 M635.15,562.21c-1.75,0.59-3.45,2.35-2.73,4.33c1.48,2.38,5.21,4.62,7.74,2.51
			C642.84,565.71,639.52,559.78,635.15,562.21 M603.17,579.12c-8.67,3.71-18.64,2.87-27.05,7.29c-8.41,4.16-13.87,12.58-22.7,16.03
			c-4.87,1.36-4.48,9.83,0.72,10.23c3.82,0.71,5.99-3.06,8.8-4.82c2.46-0.5099,5.07-0.45,7.23-1.93c1.31-1.05,2.66,0.71,3.92,1.1
			c2.3799-1.59,5.19-1.94,7.99-1.57c7.39,0.71,13.23-4.62,18.76-8.68c5.3199-4.21,12.34-5.85,17.09-10.82
			c2.68-2.63,2.44-7.45,0.49-10.32C613.11,574.43,608,577.29,603.17,579.12 M535.32,584.51c-2.89,1.22-5.84,3.28-6.7,6.47
			c-0.4,4.98,4.28,9.9,9.36,9.34c6.52-0.34,11.57-8.09,8.69-14.07C544.37,582.35,538.9,583.04,535.32,584.51 M515.34,593.56
			c-3.35,1.04-5.18,4.45-6.51,7.44c0.51,3.94,4.69,6.33,8.22,7.22c5.2,0.14,9.11-4.74,10.68-9.21
			C526.69,593.84,519.78,592.37,515.34,593.56 M443.28,632.46c-2.16,4.83-2.63,10.65-0.54,15.59c2.1,4.48,7.48,5.21,11.76,6.31
			c8.64,2.36,17.96-1.83,23.33-8.68c0.24,7.28,12.7,6.3,12.48-0.66c-0.15-4.72-6.47-5.3-9.69-3.32c2.66-4.96,2.86-10.83,1.78-16.25
			c-0.56-3.16-2.96-5.65-5.66-7.18C464.16,614.24,449.27,620.76,443.28,632.46 M504.37,623.43c-5.47,2.49-7.12,10.65-2.75,14.88
			c3.08,2.98,9.58,3.15,11.51-1.22c1.55-3.97,0.38-8.71-2.3-11.92C509.31,623.42,506.53,622.01,504.37,623.43 M343.38,637.5
			c-2.57,0.93-3.69,3.99-6.39,4.64c-3.4,0.43-6.62-1.42-10.03-1.2c-2.08,0.33-3.88,1.51-5.65,2.56l1.14-0.73
			c-3.77-1.02-8.09-1.35-11.34,1.19c-2.56-1.22-5.44-0.2-8.05,0.25c-5.05,1.23-10.63,1.68-14.87,4.99
			c-3.33,2.71-4.06,7.3-6.94,10.39c-2.54-0.35-4.84-1.52-7.28-2.2c-3.84-0.42-6.81,3.76-5.56,7.3c1.43,2.35,4.8,1.95,7.03,1.16
			c1.17,0.89,2.08,2.59,3.76,2.48c1.51,0.13,2.55-1.18,3.74-1.87c2.37,2.52,6.06,2.29,9.21,2.86c4.05,0.69,8.31,0.52,12.05-1.3
			c4.72,2.53,9.84,0.17,14.69-0.52c5.22-0.9,10.91-1.1,15.43-4.17c2.14-1.48,3.88-4.46,3.03-7c3.42,1.37,6.83,3.23,10.63,3.1
			c5.33-0.07,11.02-1.71,14.74-5.71c2.23-2.59,3.71-6.92,1.17-9.79c-2.69-3.06-6.41-4.94-9.95-6.81
			C350.66,635.33,346.66,636.15,343.38,637.5 M414.86,646.02c-1.48,1.93-0.51,5.64,2.14,5.91c2.78,0.21,6.7-0.78,7.11-4.06
			c-0.26-2.25-2.54-2.95-4.21-3.91C418.2,644.58,416.41,645.05,414.86,646.02 M251.53,665.87c-3.02-1.02-7.04-1.28-8.97,1.81
			c-1.45-2.75-5.13-3.99-8.06-3.1c-3.65,1.15-5.93,4.69-9.56,5.86c-3.72,0.18-7.75-0.66-11.13,1.37c-2.21,1.36-4.58,3.43-4.69,6.22
			c0.35,3.22,3.86,4.93,6.79,5.06c3.3,0.47,6.1-1.53,9.07-2.55c3.18-0.15,6.01,1.69,8.89,2.82c4.47-1.34,9.08-3.69,10.99-8.24
			c3.6,1.57,7.35-0.37,10.37-2.28c3.45,0.69,7.11-2.26,6.04-5.92C260.32,662.35,253.72,662.14,251.53,665.87 M95.4,711.37
			c-4.26,1.99-3.55,7.82-4.46,11.71c-0.55,5.68-6.73,8-9.18,12.63c-1.38,3.47,0.99,6.89,1.38,10.32c-0.77,3.14-3.65,5.61-3.43,9.06
			c0.28,3.1,4.87,3.39,6.71,1.54c1.47-2.69,0.22-6,1.38-8.78c1.88-3.03,6.63-3.24,7.72-6.92c1.18-4.99-1.82-9.89-0.89-14.88
			c1.32-3.87,4.8-6.85,5.18-11.06C100.14,712.6,97.52,711.01,95.4,711.37 M72.85,774.18c-0.52,3.36,0.16,7.08,2.45,9.7
			c-1.57,4.87-1.74,10.02-2.22,15.08c-0.33,4.11-0.48,8.6,1.72,12.27c1.24,2.2,3.85,2.95,5.61,4.63c-0.61,5.92-4.69,11.09-4.18,17.2
			c0.15,2.29,1.76,4.08,2.84,6.01c3.23,5.18,2.88,12.05,7.17,16.65c2.25,2.53,6.8,3.89,9.22,0.85c3.41-4.39,4.06-10.23,4.35-15.6
			c0.37-4.43-1.75-8.41-3.08-12.47c-0.91-2.73-0.56-5.66-1.19-8.42c-0.87-2.76-2.76-5.15-3.14-8.05c0.69-5.02,5.43-8.76,5.01-14.05
			c-0.37-5-1.59-9.92-1.59-14.96c0.15-2.61-1.12-4.87-2.66-6.84c1.17-2.34,2.05-5.11,1.27-7.69c-0.75-2.22-3.31-3.05-5.45-2.9
			C82.68,765.86,76.71,769.26,72.85,774.18z"/>
		<path fill="#FFFFFF" stroke="#FFFFFF" stroke-width="0.0938" d="M831.24,331.26c0.31,1.25,0.22,2.57-0.14,3.81
			c-4.4,16.88-9.52,33.57-14.78,50.2c-6.11,18.77-15.65,36.23-26.33,52.76c-2.35,3.48-4.41,7.18-7.24,10.3
			c-0.41-4.01-3.54-6.82-5.07-10.35c-0.12-2.94,0.4-5.86,0.5-8.79c3.24-6.25,6.73-12.49,8.86-19.23c1.96-6.99,1.06-15.31-4.36-20.56
			c-3.33-3.46-8.35-7.02-13.33-5.04c-5.25,2.9-5.77,10.09-10.92,13.18c-4.41,3.61-10.26,3.51-15.56,4.55
			c-5.02,1.37-5.65,7.19-6.61,11.46c-1.05,4.76-7.04,5.68-8.72,10.03c-1.43,3.47-2.14,7.35-4.77,10.2
			c-2.75,2.99-2.54,7.65-5.55,10.44c-2.35,1.94-5.22,3.29-8.21,3.83c-2.58-0.64-4.72-4-7.56-2.58c-1.38,1.71-1.85,3.96-3.23,5.66
			c-1.83,1.5-4.36,0.75-6.23-0.24c-4.95-2.7-8.32-7.5-10.73-12.47c-3.8-7.63-12.85-10.47-17.19-17.64
			c-1.35-2.39,0.23-5.01,1.72-6.89c3.81-4.66,7.01-9.84,9.56-15.29c2.9901-6.57,1.36-14.51,5.51-20.64
			c2.53-4.16,7.63-5.55,12.17-6.07c0.45,0.16,1.35,0.46,1.8,0.62c4.97,4.6,8.35,12.74,16.11,13.06c4.43,0.13,8.7,1.68,13.1,1.84
			c5.03-1.05,4.47-8.27,9.11-9.83c6.27-1.86,11.79-5.75,18.3199-6.81c10.42-2.21,20.8,1.51,30.4,5.23c4.91,1.7,8.46,7.19,14.16,6.19
			c8.73-0.53,15.92-6.46,21.11-13.06c3.21-4.67,4.04-10.43,6.34-15.53C826.95,346.42,826.87,338.07,831.24,331.26z"/>
		<path fill="#FFFFFF" stroke="#FFFFFF" stroke-width="0.0938" d="M575.19,407.09c3.2-1.72,6.59-3.06,9.72-4.92
			c1.79,1.47,3.85,2.8,4.97,4.91c0.12,1.32-0.62,2.52-1.09,3.71c-4.16,8.72-10.12,16.38-15.88,24.07
			c-0.99,1.28-2.15,2.42-3.3199,3.52l0.16-1.58c0.85-4.72,0.53-10.03-2.77-13.8c-4.43-5.42-11.84-6.85-18.49-6.53
			C557.47,413.65,567.48,413.13,575.19,407.09z"/>
		<path fill="#FFFFFF" stroke="#FFFFFF" stroke-width="0.0938" d="M742.52,426.65c2.69-4.95,6.23-10.06,11.45-12.53
			c3.03,0.92,5.27,3.36,7.63,5.37c4.09,3.39,4.9301,8.95,7.7401,13.24c-0.46,2.11-0.61,4.65-2.71,5.86
			c-3.25,2.2-6.67,4.38-10.47,5.45c-4.03-1.3-4.0099-7.21-8.15-8.47c-3.61-0.71-7.09,1.5-8.67,4.67c-3.21,5.87-9.52,9.05-13.01,14.7
			c0.4-2.14,0.14-4.46,1.05-6.46c1.66-2.02,4.09-3.28,5.56-5.46C736.25,437.62,740.07,432.52,742.52,426.65z"/>
		<path fill="#FFFFFF" stroke="#FFFFFF" stroke-width="0.0938" d="M517.93,417.94c10.21-0.1,20.34-2.01,30.55-1.47
			c-5.04,1.29-9.87,3.21-14.79,4.87c-1.17,0.36-2.32,0.8-3.44,1.29c-3.28,1.23-6.6,2.73-10.17,2.67c-2.6,0.15-5.92-0.41-7.61,2.12
			c-1.43,2.56-1.06,5.69-1.55,8.51c-0.13,1.32-0.18,2.64-0.13,3.97c-4.89-3.52-9.88-7.21-15.81-8.76c-2.25-0.9-5.57-1.25-6.2-4.06
			c0.11-2.08,1.7-3.66,2.69-5.38C500.31,420.63,509.1,419.12,517.93,417.94z"/>
		<path fill="#FFFFFF" stroke="#FFFFFF" stroke-width="0.0938" d="M516.98,443.87c3.67,0.47,7.48,0.02,11.04,1.26
			c4.29,1.38,8.43,3.32,12.94,3.94c6.14,1.01,12.97,2.44,18.64-1.02c-2.29,3.51-5.58,6.23-7.7599,9.81
			c-2.6201,4.22-5.44,8.63-9.92,11.07c-2.46,1.38-6.04,1.39-7.83-1.07c-3.56-4.48-3.1201-10.86-6.69-15.35
			C524.62,448.86,520.5,446.69,516.98,443.87z"/>
		<path fill="#FFFFFF" stroke="#FFFFFF" stroke-width="0.0938" d="M732.38,547.41c3.05-1.45,4.94,2.03,4.88,4.63
			c0.81,12.5-1.09,25.14-4.96,37.03c-1.97,6.37-5.45,12.42-10.73,16.6c-6.72,5.43-15.3,7.56-23.53,9.51
			c-3.14,0.64-6.27,1.88-9.5099,1.28c-4.3-0.7401-8.3101,1.59-12.57,1.71c-5.02,0.62-10.5-1.68-12.92-6.24
			c-1.28-2.51-0.06-5.37,1.42-7.48c3.21-4.48,7.87-7.56,12.04-11.05c15.3-13,30.72-25.83,46.15-38.67
			C725.83,552.22,728.64,549.09,732.38,547.41 M711.34,568.47c-2.47,1.1201-5.09,4.4901-2.79,6.98c2.28,2.56,6.81,4.23,9.72,1.79
			C721.23,572.97,716.54,565.55,711.34,568.47z"/>
	</g>
	<g id="_x23_000000ff">
		<path stroke="#000000" stroke-width="0.0938" d="M753.36,31.55c6.65-1.58,13.55-0.47,20.17,0.74c3.83,0.8,9.2599,1.98,9.81,6.71
			c-0.36,3.54-5.1201,2.91-7.6801,3.11c-0.36-0.04-1.0699-0.11-1.43-0.14c-6.74-0.94-13.49-1.85-20.29-2.18
			c-1.88-0.15-4.54-0.48-5-2.74C748.44,34.35,750.9,32.09,753.36,31.55z"/>
		<path stroke="#000000" stroke-width="0.0938" d="M734.59,45.7c3.12-2.57,6.97-4.9,11.19-4.36c0.04,0.29,0.1,0.88,0.1299,1.18
			c-4.85,7.18-11.9,12.52-17.0099,19.51c-3.15,4.35-6.19,8.79-8.89,13.44c-5.12,8.05-11.28,15.48-15.35,24.16
			c-4.0699,8.28-7.09,17.01-10.59,25.53c-4.01,10.4-8.48,20.68-11.15,31.53c-4.79,17.77-5.67,36.29-9.58,54.24
			c-4.52,21.37-10.95,42.26-16.95,63.23c-5.99,20.85-12.36,41.58-19.25,62.14c-7.57,22.15-13.98,44.76-23.68,66.12
			c-6.98,15.33-16.07,29.57-25.33,43.6c-9.9,14.6-18.9,29.8-28.96,44.29c-9.81,13.74-22.18,25.4-35.7,35.43
			c-15.43,10.82-31.7,20.4-48.16,29.55c-17.55,9.65-35.66,18.2401-53.27,27.76c-2.77,1.5-5.85,2.3-8.98,2.53
			c3.21-4.97,8.22-8.31,13.23-11.25c14.47-7.93,28.02-17.37,42.12-25.91c18.59-11.55,37.59-22.59,54.83-36.14
			c23.56-18.3,38.39-44.72,55.55-68.55c9.82-14.19,19.33-28.72,26.39-44.52c8.86-19.56,14.83-40.24,22.38-60.32
			c7.12-19.02,15.28-37.66,21.29-57.09c4-13.28,9.03-26.3,11.59-39.98c3.35-17.47,5.33-35.15,7.54-52.79
			c1.63-12.51,3.68-25.04,7.61-37.07c3.79-11.72,9.71-22.59,14.19-34.05c7.58-20.36,17.9399-39.71,30.97-57.11
			C724.98,55.44,729.31,50.07,734.59,45.7z"/>
		<path stroke="#000000" stroke-width="0.0938" d="M797.73,53.51c-1.02-2.57-0.31-5.67,2.09-7.19c1.7,1.71,2.95,3.79,3.79,6.06
			c15.42,37.67,32.66,74.85,42.73,114.45c5.2599,19.66,7.2599,39.97,9.86,60.1c1.17,10.35,2.6,20.68,2.98,31.09
			c-0.78,8.35,0.03,16.75-0.87,25.09c-0.87,10.05-4.95,19.38-7.89,28.93c-1.47,4.82-2.59,10.04-6.13,13.85
			c-2.93-6.53-0.5-13.67,1.57-20.05c3.66-10.19,4.54-21.1,4.94-31.84c0.77-26.08-2.07-52.12-6.31-77.82
			c-3.35-20.14-8.28-40.04-15.33-59.21c-7.15-19.35-15.66-38.17-22.65-57.58C803.4,70.83,800.75,62.1,797.73,53.51z"/>
		<path stroke="#000000" stroke-width="0.0938" d="M731.61,73.54c2.99-3.45,7.64-4.69,12.05-4.79c8.03-0.32,15.14,5.89,16.6,13.67
			c1.65,10.23-5.34,20.12-14.32,24.37c-2.1,1.16-5.16,1.02-6.47,3.26c-0.49,3.59,0.69,7.26-0.1899,10.82
			c-1.26,3.7-7.29,4.15-8.71,0.28c-2.57-4.87,1.51-9.43,2.26-14.11c-0.9-3.9-4.34-6.61-5.25-10.52
			C725.47,88.85,726.17,79.71,731.61,73.54z"/>
		<path stroke="#000000" stroke-width="0.0938" d="M735.37,128.49c4.5-1.36,9.82,4.52,6.81,8.66c-1.77,2.69-7.08,4-8.55,0.38
			C732.29,134.74,732.11,130.01,735.37,128.49z"/>
		<path stroke="#000000" stroke-width="0.0938" d="M731.53,144.7c4.12-1.2,9.3799,0.44,11.28,4.51c1.46,3.48-1.04,7.1-0.25,10.68
			c0.89,5.79,2.15,12-0.15,17.63c-1.52,3.57-5.44,6.55-9.42,5.93c-3.47-1.65-4.67-5.72-7.18-8.41c-4.36-4.85-5.65-12.11-3.19-18.16
			C724.43,152.23,726.79,146.99,731.53,144.7z"/>
		<path stroke="#000000" stroke-width="0.0938" d="M730.12,186.2c3.28-1.35,6.3,2.73,4.73,5.65c-0.88,2.11-3.85,2.4-5.54,1.22
			C726.97,191.47,727.25,187.03,730.12,186.2z"/>
		<path stroke="#000000" stroke-width="0.0938" d="M819.7,201.04c0.82-1.73,3.57-2.06,4.64-0.39c1.36,1.9,1.34,4.34,1.95,6.52
			c0.56,2.51,2.58,4.39,3.27,6.87c0.15,2.11-1.23,3.93-1.72,5.92c1.45,2.53,4.84,3.4,5.95,6.27c2.36,3.93,1.46,8.61,1.01,12.91
			c-0.55,2.04-2.71,3.44-2.55,5.71c-0.03,3.19,0.02,6.72-2.32,9.21c-1.36,1.86-4.05,4.44-6.3,2.32c-3.42-3.53-3.75-8.79-6.12-12.92
			c-3.1-1.42-6.36,0.63-9.38,1.35c-5.3,2.19-12.13-1.84-11.66-7.88c0.94-3.06,2.25-5.98,3.73-8.82c2.17-4.14-0.13-9.38,2.83-13.24
			c6.27,0.21,11.3799,6.51,17.92,5.96c0.84-1.87-0.96-3.55-1.55-5.21c-1.7401-2.27,0.97-4.36,1.34-6.61
			C820.53,206.34,819.29,203.75,819.7,201.04z"/>
		<path stroke="#000000" stroke-width="0.0938" d="M724.97,212.12c2.34-2.39,3.78-7.21,8.0601-5.98c0.81,3.17-1.88,5.77-3.27,8.34
			c0.24,0.78,0.54,1.55,0.9,2.31c1.4,3.22,3.25,6.65,2.25,10.28c-1.2599,7.07-9.42,9.29-12.46,15.27
			c-1.43,3.46,2.03,7.04,0.49,10.53c-0.51,1.89-2.92,1.12-3.81,0.02c-1.57-2.42-1.24-5.73-3.08-7.97c-3.15-1.01-6.56-0.77-9.73-1.71
			c-4.46-2.16-7.81-5.88-11.63-8.93c-2.64-2.23-5.51-4.75-6.11-8.33c-0.64-4.54,1.65-9.38,5.58-11.75c4.2401-2.46,9.2-3.1,13.89-4.3
			C712.18,211.81,718.71,211.07,724.97,212.12z"/>
		<path stroke="#000000" stroke-width="0.0938" d="M633.69,225.75c5.67-3.09,10.95-7.78,17.71-8.06
			c-2.2401,2.74-4.96,5.05-7.91,6.99c-12.1,7.5-24.92,13.77-37.98,19.4c-16.87,6.47-34.14,11.78-51.35,17.25
			c-11.5,3.79-23.09,7.69-33.71,13.6c-4.29,2.17-8.46,4.6-12.2,7.63c-1.61,1.89-2.99,4.56-1.62,7c2.71,4.79,8.01,7.26,12.8,9.53
			c3.49,1.69,7.09,3.15,10.72,4.5c8.46,3.07,16.39,7.39,24.24,11.74c8.65,5.02,17.1,10.38,25.56,15.72
			c6.74,4.24,14.28,7.35,20.2,12.78c1.16,0.81,2.23,2.93-0.03,3.02c-5.38,0.44-9.85-3.33-14.45-5.53
			c-17.35-8.58-33.3-19.68-50.62-28.32c-9.06-4.55-18.86-7.84-27.16-13.79c-4.66-3.19-6.73-9.35-5.25-14.75
			c1.35-6.61,7.08-11.05,12.61-14.24c16.79-9.12,35.29-14.3,53.56-19.54C591.1,244.28,613.09,236.49,633.69,225.75z"/>
		<path stroke="#000000" stroke-width="0.0938" d="M872.43,239.3c2.59-1.65,5.7-2.21,8.69-2.66c9.72-1.04,19.73-0.7,29.12,2.17
			c6.05,1.81,11.5,5.09,17.13,7.89c14.86,7.69,29.64,16.47,40.65,29.32c4.52,5.49,9.43,10.77,15.4,14.73
			c7.97,5.47,17.81,7.5,25.53,13.42c6.65,4.96,12.83,11.53,14.59,19.91c1.9901,10.14-2.9,20.48-10.05,27.48
			c-9.07,8.55-21.58,11.76-33.43,14.26c-15.65,2.63-31.36,4.9-47.14,6.58c-4.93,0.69-9.89,0.01-14.84,0.05
			c-9.23-0.1-18.78-0.97-27.11-5.25c-9.21-4.74-16.14-12.67-24.6-18.49c-4.73-3.4-9.8-6.96-12.2-12.49
			c2.25-0.02,4.57,0.09,6.64,1.08c6.91,2.96,12.45,8.19,18.74,12.17c7.23,4.56,14.34,9.54,22.46,12.4
			c7.35,2.62,15.29,2.86,23.01,2.53c20.34-1.14,40.76-3.03,60.57-7.96c8.89-2.36,17.97-5.63,24.7-12.15
			c4.8-4.68,7.6-11.44,7.14-18.17c-0.51-5.78-4.99-10.11-9.57-13.12c-5.45-4.04-11.42-7.31-17.61-10.06
			c-9.53-4.27-18.42-10.09-25.13-18.2c-0.31-0.36-0.93-1.09-1.23-1.46c-5.65-7.67-12.51-14.49-20.72-19.39
			c-8.3-4.91-16.15-10.61-24.77-14.95c-5.67-3.05-11.87-5.07-18.23-5.96c-8.33-1.43-16.8-0.71-25.17-0.27
			C873.06,243.06,871.53,241.03,872.43,239.3z"/>
		<path stroke="#000000" stroke-width="0.0938" d="M599,250.95c1.89-1.79,4.35-3.22,7.06-2.65c2.9,1.49,5.8,4.14,5.53,7.7
			c-0.67,4.11-3.57,7.43-6.52,10.19c-2.45,2.1-5.51,4.34-8.92,3.66c-2.07-0.55-2.81-2.94-3.03-4.82
			C592.62,259.7,595.43,254.69,599,250.95z"/>
		<path stroke="#000000" stroke-width="0.0938" d="M766.37,253.53c2.56-0.77,5.88-0.87,7.77,1.38c2.53,3.04,2.52,7.39,1.86,11.1
			c-0.76,3.57-2.28,7.48-5.65,9.33c-4.68,1.46-11.31-0.2-12.85-5.38c-0.8-3.37-1.26-7.13,0.1-10.42
			C759.54,256.46,763.06,254.77,766.37,253.53z"/>
		<path stroke="#000000" stroke-width="0.0938" d="M800.93,269.2c-5.18-3.81-5.5-13.03,0.74-15.93c6.13,1.14,11.57,10.42,5.74,14.99
			c-1.2599,1.39-3.27,2.6-3.02,4.76c0.32,3.64,1.59,7.18,3.18,10.46c2.36,2.93,6.24,4.68,7.43,8.52c1.58,4.5,3.79,9.78,1.3,14.37
			c-2.76,5.08-8.06,8.01-11.41,12.61c-3.18,4.31-1.44,10.24-4.08,14.78c-1.69,2.8-4.54,4.58-7.08,6.52
			c2.41,3.24,5.28,6.53,5.71,10.71c0.43,3.7-2.5,7.81-6.44,7.62c-4.34-0.1-7.44-3.75-9.39-7.24c-1.37-2.61-2.79-6.05-0.97-8.78
			c2.3-3.28,5.8-5.63,7.56-9.3c1.14-2.28,0.62-4.88,0.29-7.28c-1.67-9.27-1.69-18.76-1-28.13c0.11-2.82,1.49-5.32,2.64-7.82
			c2.27-4.52,1.15-9.95,3.48-14.44C797.19,273.33,799.27,271.44,800.93,269.2z"/>
		<path stroke="#000000" stroke-width="0.0938" d="M690.66,273.42c1.61-6.23,5.84-12.34,12.4301-13.84
			c3.66-0.98,7.09,1.25,9.5699,3.72c1.73,2.06,3.56,4.64,2.91,7.48c-0.8,2.9-2.29,5.54-3.79,8.12c-2.03,2.57-5.55,2.93-7.96,4.94
			c-3.2,3.44-2.4,8.93-5.72,12.31c-3.36,3.49-9.05,5.59-13.62,3.31c-4.3-2.67-3.98-8.94-1.88-12.93
			C685.42,282.25,689.37,278.58,690.66,273.42z"/>
		<path stroke="#000000" stroke-width="0.0938" d="M887.13,267.08c3.48-0.98,7,0.22,9.83,2.28c3.23,3.15,3.6,7.83,5.07,11.86
			c1.42,3.75,3.3799,7.31,4.42,11.21c0.89,3.43,0.31,7.01,0.31,10.51c0.27,0.19,0.8,0.58,1.07,0.78l-1-0.66
			c-0.68,2.07-1.34,4.69-3.8,5.26c-3,0.99-5.35-1.48-7.9901-2.31c-3.6-0.51-7.91,0.52-10.71-2.41c-2.69-2.89-1.32-7.15-1.21-10.65
			c1.06-6.38-3.01-12.5-1.32-18.86C882.44,271.08,884.63,268.73,887.13,267.08z"/>
		<path stroke="#000000" stroke-width="0.0938" d="M890.33,315.9c-0.43-2.94,2.6-4.92,4.7-6.4c2.84-0.85,3.55,2.83,4.78,4.58
			c-1.41,1.9-2.51,4.27-4.77,5.3C892.77,319.79,891.33,317.54,890.33,315.9z"/>
		<path stroke="#000000" stroke-width="0.0938" d="M656.31,349.37c4.53-5.96,12.62-7.21,19.65-7.07c6.36,0.24,12.71-1.64,19.05-0.55
			c7.72,1.39,13.89,9.41,12.27,17.28c-1.39,6.56-7.38,11.06-13.61,12.66l1.16,0.82c-0.45-0.16-1.35-0.46-1.8-0.62
			c-4.54,0.52-9.64,1.91-12.17,6.07c-4.15,6.13-2.52,14.07-5.51,20.64c-2.55,5.45-5.75,10.63-9.56,15.29
			c-1.49,1.88-3.07,4.5-1.72,6.89c4.34,7.17,13.39,10.01,17.19,17.64c2.41,4.97,5.78,9.77,10.73,12.47c1.87,0.99,4.4,1.74,6.23,0.24
			c1.38-1.7,1.85-3.95,3.23-5.66c2.84-1.42,4.98,1.94,7.56,2.58c2.99-0.54,5.86-1.89,8.21-3.83c3.01-2.79,2.8-7.45,5.55-10.44
			c2.63-2.85,3.34-6.73,4.77-10.2c1.68-4.35,7.67-5.27,8.72-10.03c0.96-4.27,1.59-10.09,6.61-11.46c5.3-1.04,11.15-0.94,15.56-4.55
			c5.15-3.09,5.67-10.28,10.92-13.18c4.98-1.98,10,1.58,13.33,5.04c5.42,5.25,6.32,13.57,4.36,20.56
			c-2.13,6.74-5.62,12.98-8.86,19.23c-1.78,2.91-5.55,6.93-8.84,3.54c-2.81-4.29-3.65-9.85-7.7401-13.24
			c-2.36-2.01-4.6-4.45-7.63-5.37c-5.22,2.47-8.7599,7.58-11.45,12.53c-2.45,5.87-6.27,10.97-9.58,16.37
			c-1.47,2.18-3.9,3.44-5.56,5.46c-0.91,2-0.65,4.32-1.05,6.46c-0.73,2.38-1.58,4.72-2.44,7.06c-1.03,2.67-2.01,5.35-2.97,8.05
			c-1.79,5.18-4.47,10.29-9.09,13.48c-3.32,1.09-5.72,3.68-7.23,6.76c-1.63,2.77-3.37,5.51-5.64,7.81c-3.4,1.3-7.53,0.78-10.15-1.85
			c-1.73-1.39-4.22-4.37-6.37-1.96c-2.34,4.97-0.36,10.56-0.05,15.75c0.44,3.16-2.56,4.95-4.38,6.99
			c-4.26,4.23-5.76,10.79-10.98,14.11c-5.05,2.87-10.97,0.74-16.32,0.15c-3.66-0.45-7.52-0.81-11.05,0.48
			c-2.86,1.37-4.6,5.74-8.3,4.05c-3.26-2.15-7.73-2.86-9.99-6.26c-1.36-3.95-0.98-8.26-1.59-12.36
			c-17.03,14.49-35.2401,27.56-54.2,39.41c-12.36,7.67-24.94,14.97-37.35,22.55c-18.33,10.97-36.99,21.66-57.06,29.1801
			c-15.72,5.75-31.74,10.64-47.42,16.5c-7.67,3-14.65,7.84-22.82,9.48c-2.21,0.54-4.46-0.04-6.62-0.44
			c9.5-7.24,21.17-10.64,32.3-14.52c10.73-3.71,21.41-7.59,31.87-12c15.09-6.28,29.08-14.81,43.32-22.75
			c17.84-10.21,35.44-20.84,52.5-32.31c22.09-15.02,44.03-30.43,64.18-48.02c2.25-1.3,1.15-4.39-0.38-5.83
			c-2.5099,0-4.12,2.34-6.02,3.65c-2.56,2.37-6.24,2.45-9.35,3.67c-3.33,1.14-5.99,4.01-9.66,4.14c-4.04,0.26-8.1,0.2-12.12-0.12
			c-3.41-0.36-6.14-2.95-7.55-5.94c-1.7-3.73-2.82-7.76-3.27-11.84c-0.02-5.49,4.3-9.52,7.49-13.52c2.44-2.66,3.76-6.08,5.86-8.97
			c3.21-3.37,8.75-3.55,11.35-7.67c6.32-9.07,7.63-20.75,14.6-29.45c2.79-3.63,6.98-5.69,10.57-8.38c3.46-2.62,5.58-6.48,8.23-9.82
			c5.12-6.58,13.44-9.84,18.12-16.83c3.61-5.51,8.32-10.49,10.3-16.9c1.67-5.32-1.29-10.49-2.63-15.53
			C652.8,359.73,652.82,353.75,656.31,349.37z"/>
		<path stroke="#000000" stroke-width="0.0938" d="M738.39,347.49c6.94-1.38,13.72,4.16,15.83,10.52
			c1.54,8.61-9.98,14.53-17.1,11.11C728.36,365.25,728.35,349.64,738.39,347.49z"/>
		<path stroke="#000000" stroke-width="0.0938" d="M837.26,359.2c1.15-4.25,1.16-9.24,4.53-12.5c0.79,14.26-3.79,28.19-8.7,41.39
			c-8.45,22.24-20.66,42.72-30.56,64.29c-14.2,29.7-37.08,54.06-60.5601,76.67c-24.61,23.14-49.22,46.44-76.39,66.6
			c-15.16,11.38-30.92,21.97-47.27,31.5699c-17.78,10.42-36.45,19.19-54.94,28.2401c-9.85,4.82-19.76,9.52-29.73,14.07
			c-8.84,3.97-17.75,9.3799-27.82,8.65c5.03-6.39,13.1-8.84,20.26-11.99c17.91-8.07,36.23-15.27,53.63-24.44
			c27.23-14.26,53.15-30.92,78.27-48.6c17.79-12.7,34.91-26.37,50.73-41.47c24.75-24.21,51.9-46.36,72.57-74.38
			c9.52-12.7,16.58-26.97,23.84-41.02C817.54,411.37,829.94,386.17,837.26,359.2z"/>
		<path stroke="#000000" stroke-width="0.0938" d="M553.99,405.94c11.3-1.88,22.09-6.21,33.53-7.34c-0.8,1.23-1.43,2.65-2.61,3.57
			c-3.1299,1.86-6.52,3.2-9.72,4.92c-5.26,2.2-10.72,3.92-16.36,4.78c-13.63,2.08-27.27,4.03-40.9,6.07
			c-8.83,1.18-17.62,2.69-26.46,3.76c-5.37,0.52-12.18,0.79-14.97,6.31c2.5,3.42,6.26,5.49,9.83,7.59
			c5.58,3.22,11.38,6.03,17.09,9.01c14.09,7.86,23.94,22.02,27.96,37.5c0.36,1.34,0.29,2.67-0.21,3.98
			c-1.48,0.85-2.99-0.22-3.98-1.24c-2.74-2.83-4.38-6.45-6.35-9.79c-6.16-10.48-15.25-19.12-25.89-24.97
			c-9.63-5.55-20.66-10.8-25.89-21.21c0.18-7.96,8.51-12.19,15.43-13.28C507.64,412.28,530.94,409.97,553.99,405.94z"/>
		<path stroke="#000000" stroke-width="0.0938" d="M530.25,422.63c1.12-0.49,2.27-0.93,3.44-1.29c2.61,2.02,5.74,4.2,6.43,7.66
			c0.27,3.88-2.77,7.56-6.37,8.7c-2.7,0-5.07-1.7-7.73-2.03c-3.26,2.64-5.13,7.29-9.88,7.63c-2.09-0.52-4.39-1.28-5.35-3.4
			c-0.05-1.33,0-2.65,0.13-3.97c1.16-2.52,3.21-4.93,6.13-5.31c2.23,0.01,4.45,0.48,6.7,0.46
			C525.58,428.02,527.36,424.84,530.25,422.63z"/>
		<path stroke="#000000" stroke-width="0.0938" d="M747.89,533.02c0.34-1.63,0.63-3.48,2.1-4.53c2.09-0.57,4.12,1.3,3.97,3.41
			c0.14,9.03-0.02,18.0699-0.17,27.1c0.06,13.39,0,27.1-4.24,39.96c-3.89,11.48-8.49,23.82-18.55,31.33
			c-10.53,7.03-23.49,9.67-36,9.51c-8.61,0-17.18-2.04-24.9-5.85c-5.46-2.63-11.58-5.33-14.46-11.04
			c7.97,0.17,14.52,5.51,22.25,6.72c8.79,1.15,17.51-1.08,26.13-2.54c7.4-1.13,15.2-2.98,20.75-8.36
			c6.68-6.55,10.81-15.17,14.18-23.77c4.97-13.02,4.89-27.14,5.94-40.83C745.34,547.02,746.64,540.02,747.89,533.02z"/>
		<path stroke="#000000" stroke-width="0.0938" d="M635.15,562.21c4.37-2.43,7.69,3.5,5.0099,6.84c-2.53,2.11-6.2599-0.13-7.74-2.51
			C631.7,564.56,633.4,562.8,635.15,562.21z"/>
		<path stroke="#000000" stroke-width="0.0938" d="M603.17,579.12c4.83-1.83,9.94-4.69,15.25-3.49c1.95,2.87,2.19,7.69-0.49,10.32
			c-4.75,4.97-11.77,6.61-17.09,10.82c-5.53,4.06-11.3701,9.39-18.76,8.68c-2.8-0.37-5.61-0.02-7.99,1.57
			c-1.26-0.39-2.61-2.15-3.92-1.1c-2.16,1.48-4.77,1.42-7.23,1.93c-2.81,1.76-4.98,5.53-8.8,4.82c-5.2-0.4-5.59-8.87-0.72-10.23
			c8.83-3.45,14.29-11.87,22.7-16.03C584.53,581.99,594.5,582.83,603.17,579.12z"/>
		<path stroke="#000000" stroke-width="0.0938" d="M364.05,598.07c16.15-8.17,32.26-17.14,50.08-21.13
			c-10.92,10.45-24.28,17.84-37.75,24.44c-16.16,7.74-32.19,15.74-48.77,22.54c-7.79,2.88-15.59,5.78-23.58,8.09
			c-16.6,4.96-33.79,7.38-50.88,9.99c-18.56,2.48-36.94,6.25-55.15,10.59c-10.97,2.66-21.73,6.66-33.07,7.3799
			c-1.35,0.14-3.98-0.84-2.29-2.3799c5.22-3.58,11.51-5.14,17.43-7.1801c24.34-7.99,49.73-11.85,74.89-16.29
			c20.24-3.51,40.1-8.99,59.58-15.48C331.48,612.91,348.17,606.32,364.05,598.07z"/>
		<path stroke="#000000" stroke-width="0.0938" d="M443.28,632.46c5.99-11.7,20.88-18.22,33.46-14.19c2.7,1.53,5.1,4.02,5.66,7.18
			c1.08,5.42,0.88,11.29-1.78,16.25c-0.9,1.34-1.81,2.68-2.79,3.98c-5.37,6.85-14.69,11.04-23.33,8.68
			c-4.28-1.1-9.66-1.83-11.76-6.31C440.65,643.11,441.12,637.29,443.28,632.46z"/>
		<path stroke="#000000" stroke-width="0.0938" d="M343.38,637.5c3.28-1.35,7.28-2.17,10.56-0.38c3.54,1.87,7.26,3.75,9.95,6.81
			c2.54,2.87,1.06,7.2-1.17,9.79c-3.72,4-9.41,5.64-14.74,5.71c-3.8,0.13-7.21-1.73-10.63-3.1c-4.66-2.16-10.14-0.35-14.7,1.26
			c-5.67,4.28-11.82,7.84-18.45,10.43c-3.74,1.82-8,1.99-12.05,1.3c-3.15-0.57-6.84-0.34-9.21-2.86c-0.98-0.71-1.79-1.79-2.98-2.11
			c-1.56,0.33-3.02,0.97-4.52,1.5c-2.23,0.79-5.6,1.19-7.03-1.16c-1.25-3.54,1.72-7.72,5.56-7.3c2.44,0.68,4.74,1.85,7.28,2.2
			c2.88-3.09,3.61-7.6801,6.94-10.39c4.24-3.31,9.82-3.76,14.87-4.99c2.61-0.45,5.49-1.47,8.05-0.25
			c1.61,0.66,3.19,1.5099,4.93,1.85c1.98-0.1,3.61-1.37,5.27-2.31c1.77-1.05,3.57-2.23,5.65-2.56c3.41-0.22,6.63,1.63,10.03,1.2
			C339.69,641.49,340.81,638.43,343.38,637.5z"/>
		<path stroke="#000000" stroke-width="0.0938" d="M104.15,676.16c14.61-8.84,29.92-17.95,47.21-19.91
			c-12.34,8.58-26.74,13.57-39.35,21.73c-16.03,10.24-28.67,24.84-39.86,40.04c-8.84,12.05-15.93,25.55-19.52,40.12
			c-4.17,16.26-4.98,33.18-4.39,49.9c0.28,14.7401,3.95,29.3,10,42.71c8.21,18.26,20.31,34.49,33.64,49.33
			c18.29,20.35,37.87,39.5,57.38,58.68c3.46,3.63,7.96,6.85,9.29,11.94c-1.83,0.57-3.21-0.84-4.58-1.71
			c-29.77-21.49-55.28-48.33-78.14-76.92c-18.93-24.21-33.67-53.67-32.92-85.08c0.84-16.14-1.24-32.47,1.77-48.47
			c3.55-17.23,11.72-33.42,23.12-46.79C78.68,698.74,89.38,684.96,104.15,676.16z"/>
		<path stroke="#000000" stroke-width="0.0938" d="M242.56,667.68c1.93-3.09,5.95-2.83,8.97-1.81c2.47,1.18,7.62,4.33,3.7,6.97
			c-3.02,1.91-6.77,3.85-10.37,2.28C242.92,673.11,242.58,670.34,242.56,667.68z"/>
		<path stroke="#000000" stroke-width="0.0938" d="M458.99,680.14c5.01-1.26,10.21-2.75,15.41-1.72c-1.56,1.99-4.21,2.32-6.45,3.13
			c-12.85,3.43-25.86,6.4-39.1,7.84c-24.27,2.83-48.68,4.28-72.98,6.88c-26.02,2.56-52.01,5.43-78.02,7.99
			c-31.18,2.89-62.74,3.44-93.4,10.42c-11.09,2.43-23.12,4.18-32.15,11.64c-10.99,9.75-13.63,25.55-24.39,35.49
			c-0.58-9.81,7.47-16.88,12.36-24.52c5.12-5.83,6.85-14.09,13.2-18.87c8.36-6.67,18.69-10.19,28.8-13.26
			c28.49-8.25,58.42-7.3199,87.75-8.72c28.72-1.53,57.28-4.93,85.94-7.19c26.01-2.16,52.13-2.64,78.13-4.96
			C442.46,683.39,450.88,682.49,458.99,680.14z"/>
		<path stroke="#000000" stroke-width="0.0938" d="M127.58,688.48c3.09-1.34,6.33-2.76,9.79-2.23c5.04,2.39,7.18,9.93,2.85,13.95
			c-4.6,3.72-10.93,2.86-16.42,3.75c-3.2,0.57-7.05,0.33-9.25-2.37c-1.85-2.42-0.3-5.61,1.53-7.52
			C119.11,690.82,123.69,690.17,127.58,688.48z"/>
		<path stroke="#000000" stroke-width="0.0938" d="M72.85,774.18c3.86-4.92,9.83-8.32,16.13-8.59c2.14-0.15,4.7,0.68,5.45,2.9
			c0.78,2.58-0.1,5.35-1.27,7.69c-2.58,4.14-6.26,8.09-11.21,9.15c-2.33,0.58-4.61-0.44-6.65-1.45
			C73.01,781.26,72.33,777.54,72.85,774.18z"/>
		<path stroke="#000000" stroke-width="0.0938" d="M133.27,770.33c3.34,3.4,1.49,8.51,1.63,12.71c-0.61,9.37,4.81,17.6,10.33,24.66
			c8.03,10.05,15.05,20.92,20.47,32.59c5.01,10.5,8.62,21.59,12.16,32.66c4.04,12.93,7.32,26.38,6.71,40.04
			c-0.79,11.38-2.04,22.72-3.06,34.09c-0.67,7.31-4.59,14.64-11.23,18.14c-1.16,0.54-3.3,1.42-3.98-0.22
			c0.1-1.75,1.42-2.97,2.4-4.26c2.8-3.24,4.35-7.43,4.71-11.66c0.59-7.99,0.36-16.09,2.09-23.95c-0.31-8.53-1.5-17.02-2.73-25.46
			c-1.95-13.71-4.96-27.33-9.8-40.32c-5.64-16.62-14.27-32.05-23.76-46.75c-4.36-7-8.82-14.27-10.2-22.52
			C127.77,783.25,129.5,776.1,133.27,770.33z"/>
		<path stroke="#000000" stroke-width="0.0938" d="M106.52,857.4c2.31,0.36,4.63,0.97,6.5,2.44c3.68,4.29,7.78,8.37,10.02,13.67
			c1.02,2,2.19,4.01,3.94,5.47c2.82,2.28,6.52,3.31,9.04,5.99c2.34,2.51,3.42,5.86,4.34,9.09c1.72,4.24-1.57,7.94-1.93,12.04
			c1.47,1.79,3.4,3.13,4.85,4.94c0.34,3.25-3.63,6.19-6.52,4.27c-1.55-1.66-1.83-4.09-3.04-5.96c-3.37-0.75-7.04,0.97-10.18-0.8199
			c-4.24-2.2-8.24-5.73-9.4-10.53c-1.14-3.96,0.02-8.02,0.16-12.02c-0.02-4.27-1.95-8.2-3.58-12.04
			C108.37,868.73,106.51,863.18,106.52,857.4z"/>
	</g>
	<g id="_x23_ff3c04ff">
		<path fill="#FF3C04" stroke="#FF3C04" stroke-width="0.0938" d="M748.52,53.58c3.04-3,7.46-3.57,11.52-3.81
			c4.64,4.14,9.02,8.92,14.96,11.18c6.68,2.49,11.06,8.66,14.22,14.75c1.9,5.57,1.9301,12.72-2.12,17.37
			c-3.99,4.26-10.48,2.46-14.8199-0.23c-4.89-2.47-6.5601-8.84-12.02-10.42c-1.46-7.78-8.57-13.99-16.6-13.67
			C743.58,63.4,744.54,57.49,748.52,53.58z"/>
		<path fill="#FF3C04" stroke="#FF3C04" stroke-width="0.0938" d="M771.34,106.53c2.16-1.22,4.92-1.09,7.05,0.17
			c4.35,2.56,7.55,7.24,7.87,12.34c0.39,4.71,1.13,9.37,2.12,13.98c1.63,5.41-1.82,11.51-6.98,13.51c-4.6,1.9-9.39,3.6-14.37,4.12
			c-5.05,0.47-11.02-2.24-12.03-7.64c-1.56-7.9,2.99-15.06,5.93-22.04C763.5,115.66,766.07,109.7,771.34,106.53z"/>
		<path fill="#FF3C04" stroke="#FF3C04" stroke-width="0.0938" d="M714.44,135.64c2.54-0.76,5.7-0.75,7.7,1.24
			c3.81,4.17,1.93,12.39-4.08,13.27c-5.4,1.55-10.33-4.06-9.25-9.21C709.25,138.14,711.95,136.46,714.44,135.64z"/>
		<path fill="#FF3C04" stroke="#FF3C04" stroke-width="0.0938" d="M709.25,155.28c3.6-1.7,7.37,2.1,7.4,5.65
			c0.46,5.91-3.81,10.47-6.2401,15.43c-2.8,5.99-2.52,13.17-6.5,18.66c-1.79,2.61-5.48,3.73-8.39,2.45
			c-1.98-1.8-3.39-5.06-1.58-7.47c4.17-7.42,5.61-15.92,7.47-24.11C702.25,161.4,705.37,157.54,709.25,155.28z"/>
		<path fill="#FF3C04" stroke="#FF3C04" stroke-width="0.0938" d="M791.46,161.58c3.38-1.66,6.11,2.08,7.65,4.6
			c2.07,3.3,0.14,7.24,0.82,10.76c2.16,4.64,7.07,7.13,9.62,11.5c2.58,3.67,3.48,8.14,4.3,12.47c0.34,3.91-2.06,7.57-4.95,10
			c-2.57,2.23-6.71,2.81-9.53,0.75c-2.05-1.68-2.54-4.44-3.53-6.76c-1.78-5.07-5.45-9.44-6.03-14.92c-0.42-3.4,1.32-6.58,1.46-9.93
			c-0.28-3.98-3.96-6.96-3.59-11.04C787.94,166.22,789.01,163.18,791.46,161.58z"/>
		<path fill="#FF3C04" stroke="#FF3C04" stroke-width="0.0938" d="M748.04,196.09c5.71-1.24,11.84-4.3,17.6-1.56
			c6.98,3.16,9.82,10.77,12.42,17.42c2.3,6.28,8.46,9.61,12.55,14.53c3.7,4.48,4.11,10.5,6.34,15.68c1.58,3.7,3.37,7.31,4.72,11.11
			c-6.24,2.9-5.92,12.12-0.74,15.93c-1.66,2.24-3.74,4.13-5.32,6.42c-2.33,4.49-1.21,9.92-3.48,14.44c-1.15,2.5-2.53,5-2.64,7.82
			c-0.69,9.37-0.67,18.86,1,28.13c0.33,2.4,0.85,5-0.29,7.28c-1.76,3.67-5.26,6.02-7.56,9.3c-1.82,2.73-0.4,6.17,0.97,8.78
			c1.95,3.49,5.05,7.14,9.39,7.24c3.94,0.19,6.87-3.92,6.44-7.62c-0.43-4.18-3.3-7.47-5.71-10.71c2.54-1.94,5.39-3.72,7.08-6.52
			c2.64-4.54,0.9-10.47,4.08-14.78c3.35-4.6,8.65-7.53,11.41-12.61c2.49-4.59,0.28-9.87-1.3-14.37c-1.19-3.84-5.07-5.59-7.43-8.52
			c-1.59-3.28-2.86-6.82-3.18-10.46c-0.25-2.16,1.76-3.37,3.02-4.76c6.2,5.91,12.6801,11.56,18.61,17.75
			c3.36,3.57,6.2,7.92,6.66,12.92c0.58,5.82,1.33,11.61,2.11,17.4c0.82,5.27-1.08,10.37-3.55,14.93
			c-4.37,6.81-4.29,15.16-7.76,22.34c-2.3,5.1-3.13,10.86-6.34,15.53c-5.19,6.6-12.38,12.53-21.11,13.06
			c-5.7,1-9.25-4.49-14.16-6.19c-9.6-3.72-19.98-7.44-30.4-5.23c-6.53,1.06-12.05,4.95-18.3199,6.81c-4.64,1.56-4.08,8.78-9.11,9.83
			c-4.4-0.16-8.67-1.71-13.1-1.84c-7.76-0.32-11.14-8.46-16.11-13.06l-1.16-0.82c6.23-1.6,12.22-6.1,13.61-12.66
			c1.62-7.87-4.55-15.89-12.27-17.28c-6.34-1.09-12.69,0.79-19.05,0.55c-7.03-0.14-15.12,1.11-19.65,7.07
			c-3.49,4.38-3.51,10.36-2.29,15.57c-4.66-3.14-8.29-7.8-10.26-13.04c-2.16-6.93,1.72-13.72,1.8-20.65
			c-0.27-4.82,1.64-9.22,3.92-13.33c3.08-5.9,5.81-12.02,7.86-18.36c1.3799-4.26,2.22-8.77,4.59-12.64
			c2.61-4.29,6.36-7.74,9.13-11.93c2.1-3.19,4.29-6.31,6.71-9.26c3.46-4.24,3.81-10.28,7.85-14.14c5.01-5.02,12.46-5.64,18.7-8.38
			c3.17,0.94,6.58,0.7,9.73,1.71c1.84,2.24,1.51,5.55,3.08,7.97c0.89,1.1,3.3,1.87,3.81-0.02c1.54-3.49-1.92-7.07-0.49-10.53
			c3.04-5.98,11.2-8.2,12.46-15.27c1-3.63-0.85-7.06-2.25-10.28l0.1-0.47c1.35-3.81,3.63-7.22,4.65-11.17
			C736.99,199.6,742.97,197.36,748.04,196.09 M766.37,253.53c-3.31,1.24-6.83,2.93-8.77,6.01c-1.36,3.29-0.9,7.05-0.1,10.42
			c1.54,5.18,8.17,6.84,12.85,5.38c3.37-1.85,4.89-5.76,5.65-9.33c0.66-3.71,0.67-8.06-1.86-11.1
			C772.25,252.66,768.93,252.76,766.37,253.53 M712.66,263.3c-2.48-2.47-5.91-4.7-9.5699-3.72c-6.59,1.5-10.82,7.61-12.4301,13.84
			c-1.29,5.16-5.24,8.83-8.06,13.11c-2.1,3.99-2.42,10.26,1.88,12.93c4.57,2.28,10.26,0.18,13.62-3.31
			c3.32-3.38,2.52-8.87,5.72-12.31c2.41-2.01,5.93-2.37,7.96-4.94c3.31-1.58,5.55-4.65,8.81-6.31c2.75-1.7,6.49-3.17,7.23-6.68
			c-0.66-3.72-4.61-5.82-7.88-6.95C716.67,257.9,714.53,261.25,712.66,263.3 M706.23,293.11c-3.32,2.29-6.57,5.67-6.81,9.9
			c0.81,3.59,2.01,7.09,3.1,10.61c1.43,4.42,5.19,7.76,6.04,12.41c0.36,4.7-7.62,4.13-7.07,8.9c0.91,3.68,5.04,7.95,8.97,5.45
			c3.85-2.44,3.69-7.4,4.99-11.27c2.85-7.57,7.18-14.93,7.52-23.19c-0.1299-4.28-5.58-3.18-8.28-4.61c-2.2-1.96-1.9-5.29-3.25-7.75
			C710.02,292.46,707.76,292.11,706.23,293.11 M732.48,301.7c-1.27,0.39-2.22,2.04-1.58,3.31c1.44,5.31,6.23,8.79,8.16,13.86
			c1.45,3.69,3.75,7.12,6.95,9.52c2.31,0.03,3.52-2.53,4.01-4.46c-1.12-2.65-3.86-4.28-4.98-6.96c-2.08-4.41,0.18-9.58-1.79-13.99
			C740.85,299.55,735.89,300.95,732.48,301.7 M757.24,325.97c1.47,2.47,3.74,4.66,6.68,5.14c4.44-0.39,7.99-4.08,9.44-8.11
			c0.61-2.42-0.2-6.21-3.32-6.1C765.07,318.7,760.66,321.96,757.24,325.97 M738.39,347.49c-10.04,2.15-10.03,17.76-1.27,21.63
			c7.12,3.42,18.64-2.5,17.1-11.11C752.11,351.65,745.33,346.11,738.39,347.49z"/>
		<path fill="#FF3C04" stroke="#FF3C04" stroke-width="0.0938" d="M606.06,248.3c5.04-1.46,10.27-3.55,15.6-2.81
			c4.34,1.79,8.39,5.54,8.72,10.49c-4.2,14.51-19.64,21.23-26.57,34.05c-0.57,2.02,0.31,4.07,0.53,6.09
			c0.64,2.65-0.96,5.25-0.55,7.89c1.59,3.23,5.9901,5,5.89,9.01c-0.6,3.55-1.71,7.18-3.81,10.14c-0.49,0.11-1.47,0.33-1.97,0.44
			c-1.76-2.64-1.98-6.01-3.89-8.6c-2.34-3.34-0.04-7.3-0.32-10.93c-0.49-2.12-2.96-2.62-4.62-3.48c-5.75-2.08-9.96-7.03-15.88-8.7
			c-4.99-1.42-10.25,0.14-15.26-1.08c-3.89-0.97-6.75-4.82-10.96-4.57c-2.92,1.16-5.65,2.78-8.85,3.06
			c-2.28,2.18-5.64,3.54-8.67,2.06c-2.38-1.49-5.14-3.35-5.61-6.33c-0.01-3.54,2.66-6.61,6.03-7.47c2.59-1.26,5.36,0.03,8.06-0.01
			c3.6-0.75,6.59-3.16,10.18-3.95c3.36-0.89,7.3-0.98,9.87-3.64c2.37-2.3,4.6-4.86,7.61-6.35c4.9-2.68,10.87-2.95,15.36-6.45
			c3.56-2.86,7.73-4.79,12.05-6.21c-3.57,3.74-6.38,8.75-5.88,14.08c0.22,1.88,0.96,4.27,3.03,4.82c3.41,0.68,6.47-1.56,8.92-3.66
			c2.95-2.76,5.85-6.08,6.52-10.19C611.86,252.44,608.96,249.79,606.06,248.3z"/>
		<path fill="#FF3C04" stroke="#FF3C04" stroke-width="0.0938" d="M887.13,267.08c1.53-2.58,4.88-4.25,7.75-2.84
			c2.02,0.85,1.92,3.29,2.08,5.12C894.13,267.3,890.61,266.1,887.13,267.08z"/>
		<path fill="#FF3C04" stroke="#FF3C04" stroke-width="0.0938" d="M902.03,281.22c1.96-1.38,4.45-2.18,6.73-0.97
			c6.03,2.87,10.38,9.21,11.1,15.79c0.26,5.94-6.76,10.65-12.03,7.68c-0.27-0.2-0.8-0.59-1.07-0.78c0-3.5,0.58-7.08-0.31-10.51
			C905.41,288.53,903.45,284.97,902.03,281.22z"/>
		<path fill="#FF3C04" stroke="#FF3C04" stroke-width="0.0938" d="M932.57,300.08c0.73-3,2.99-6.72,6.52-6.41
			c2.77,1.25,6.35,2.9,6.81,6.29c-0.03,2.81-0.91,5.59-0.42,8.41c2,0.41,4.07,0.65,6.03,1.33c2.28,1.63,2.76,5.21,5.62,6.2
			c4.4,1.68,9.25,2.84,12.6,6.4c4.44,4.46,10.25,8.05,12.68,14.1c1.88,5.42-2,11.04-7,12.99c-4.21,1.63-8.87,3.82-13.41,2.32
			c-4.74-1.4-8.31-5.1-12.86-6.88c-4.77-1.9-10.22-2.29-14.35-5.58c-2.42-1.7-4.58-4.43-7.79-4.37c-2.73,0.69-5.08,2.73-7.96,2.74
			c-3.22-0.42-5.77-2.77-8.93-3.37c-3.55-0.89-7.76-1.08-10.17-4.22c-1.25-1.32-2.12-3.98,0.08-4.8c4.28-1.18,8.93,0.47,13.18-1.02
			c3.74-1.02,3.54-6.71,7.75-6.96c3.57-0.36,3.7,4.21,4.96,6.53c2.75-0.67,5.31-1.95,8.06-2.68c3.2401-0.55,5.19,2.94,8.14,3.6
			c2.46,0.32,4.46-2.86,3.13-4.94c-1.76-3.06-0.5-6.81-2.01-9.9c-2.28-1.38-5.39-0.7-7.38-2.64
			C933.82,305.47,931.64,302.98,932.57,300.08z"/>
		<path fill="#FF3C04" stroke="#FF3C04" stroke-width="0.0938" d="M533.69,421.34c4.92-1.66,9.75-3.58,14.79-4.87h0.01
			c6.65-0.32,14.06,1.11,18.49,6.53c3.3,3.77,3.62,9.08,2.77,13.8c-2.02,4.77-5.82,8.52-10.15,11.25
			c-5.67,3.46-12.5,2.03-18.64,1.02c-4.51-0.62-8.65-2.56-12.94-3.94c-3.56-1.24-7.37-0.79-11.04-1.26l-0.84-0.57
			c4.75-0.34,6.62-4.99,9.88-7.63c2.66,0.33,5.03,2.03,7.73,2.03c3.6-1.14,6.64-4.82,6.37-8.7
			C539.43,425.54,536.3,423.36,533.69,421.34z"/>
		<path fill="#FF3C04" stroke="#FF3C04" stroke-width="0.0938" d="M520.08,425.3c3.57,0.06,6.89-1.44,10.17-2.67
			c-2.89,2.21-4.67,5.39-6.5,8.45c-2.25,0.02-4.47-0.45-6.7-0.46c-2.92,0.38-4.97,2.79-6.13,5.31c0.49-2.82,0.12-5.95,1.55-8.51
			C514.16,424.89,517.48,425.45,520.08,425.3z"/>
		<path fill="#FF3C04" stroke="#FF3C04" stroke-width="0.0938" d="M769.34,432.73c3.29,3.39,7.06-0.63,8.84-3.54
			c-0.1,2.93-0.62,5.85-0.5,8.79c1.53,3.53,4.66,6.34,5.07,10.35c-0.69,5.65-5.46,9.55-9.97,12.4c-2.19,0.51-4.51,1.16-6.73,0.5
			c-3.68-1.22-6.25-4.65-10.1-5.45c-2.82,0.33-4.49,2.94-6.55,4.58c-3.6,3.5-8.66,4.44-13.31,5.73c-3.11,0.81-4.59,4.05-7.23,5.63
			c-1.07,0.2-1.87-0.16-2.41-1.09c-1.63-2.57-2.18-5.66-2.56-8.63c0.86-2.34,1.71-4.68,2.44-7.06c3.49-5.65,9.8-8.83,13.01-14.7
			c1.58-3.17,5.06-5.38,8.67-4.67c4.14,1.26,4.12,7.17,8.15,8.47c3.8-1.07,7.22-3.25,10.47-5.45
			C768.73,437.38,768.88,434.84,769.34,432.73z"/>
		<path fill="#FF3C04" stroke="#FF3C04" stroke-width="0.0938" d="M711.83,483.53c4.62-3.19,7.3-8.3,9.09-13.48
			c1.4,1.24,3.79,2.58,3.03,4.87C722.47,480.02,717.28,484.14,711.83,483.53z"/>
		<path fill="#FF3C04" stroke="#FF3C04" stroke-width="0.0938" d="M698.96,498.1c2.27-2.3,4.0099-5.04,5.64-7.81
			c0.25,1.5,1.51,3.28,0.37,4.69C703.41,496.7,701.05,497.3,698.96,498.1z"/>
		<path fill="#FF3C04" stroke="#FF3C04" stroke-width="0.0938" d="M549.4,516.52c2.18-0.58,4.4,0.26,6.59,0.45
			c3.67,0.66,7.71-1.23,11.13,0.79c1.42,1.65,0.43,4.14-0.85,5.57c-2.29,1.97-5.79,1.74-7.9,4.01c-2.25,2.16-4.69,4.14-7.42,5.68
			c-2.54,1.66-5.7,2.96-6.98,5.93c-1.49,3-2.68,6.47-5.74,8.28c-4.62,3.29-10.71,1.83-15.64,4.31c-2.8701,1.58-6.3,1.51-9.22,2.85
			c-1.93,2.28-1.04,5.77-2.68,8.24c-1.58,2.19-3.9,4-6.59,4.55c-3.29,0.02-6.07-2.98-6.29-6.18c0.96-2.88,2.83-5.36,4.32-7.98
			c1.58-2.79,5.59-2.72,7.15-5.54c1.7-2.61,3.35-5.41,6.16-6.97c3.53-2.51,8.32-2.54,11.49-5.63c3.3-3.01,7.19-5.34,10.16-8.71
			C540.65,522.38,544.18,517.99,549.4,516.52z"/>
		<path fill="#FF3C04" stroke="#FF3C04" stroke-width="0.0938" d="M639.66,531.77c3.53-1.29,7.39-0.93,11.05-0.48
			c-0.28,5.41-4.71,9.05-6.58,13.85c-2.11,5.34-4.97,10.85-10.05,13.92c-2.6,0.96-5.46,0.67-8.16,1.09
			c-5.75,0.5-11.04,3.41-16.84,3.55c-2.98,0.1-6.21-2.43-5.27-5.66c1.16-5.36,4.83-9.7599,8.51-13.65
			c4.92-5.32,12.33-6.8,19.04-8.57C635.06,537.51,636.8,533.14,639.66,531.77z"/>
		<path fill="#FF3C04" stroke="#FF3C04" stroke-width="0.0938" d="M576.48,557.5c1.64-0.68,3.9-0.41,4.85,1.28
			c2.01,3.91-0.76,9.64-5.34,9.83c-1.88,0.25-4.55-0.43-4.66-2.68C571.12,562.46,573.44,559.04,576.48,557.5z"/>
		<path fill="#FF3C04" stroke="#FF3C04" stroke-width="0.0938" d="M478.5,561.68c2.92-0.88,6.26-0.61,8.95,0.89
			c2.3,2.22,1.93,6.04,0.84,8.78c-1.7,3.67-6,4.6-8.94,6.95c-3.95,2.79-5.32,8.09-9.75,10.34c-3.05,1.62-6.2,3.35-9.64,3.88
			c-3.77-0.06-8.26-1.8-9.62-5.6c-1.22-5.04,2.93-9.19,6.65-11.89c3.84-3,9.37-1.05,13.31-3.72
			C473.1,568.19,474.58,563.66,478.5,561.68z"/>
		<path fill="#FF3C04" stroke="#FF3C04" stroke-width="0.0938" d="M711.34,568.47c5.2-2.92,9.89,4.5,6.93,8.77
			c-2.91,2.44-7.44,0.77-9.72-1.79C706.25,572.96,708.87,569.59,711.34,568.47z"/>
		<path fill="#FF3C04" stroke="#FF3C04" stroke-width="0.0938" d="M535.32,584.51c3.58-1.47,9.05-2.16,11.35,1.74
			c2.88,5.98-2.17,13.73-8.69,14.07c-5.08,0.56-9.76-4.36-9.36-9.34C529.48,587.79,532.43,585.73,535.32,584.51z"/>
		<path fill="#FF3C04" stroke="#FF3C04" stroke-width="0.0938" d="M515.34,593.56c4.44-1.19,11.35,0.28,12.39,5.45
			c-1.57,4.47-5.48,9.35-10.68,9.21c-3.53-0.89-7.71-3.28-8.22-7.22C510.16,598.01,511.99,594.6,515.34,593.56z"/>
		<path fill="#FF3C04" stroke="#FF3C04" stroke-width="0.0938" d="M504.37,623.43c2.16-1.42,4.94-0.01,6.46,1.74
			c2.68,3.21,3.85,7.95,2.3,11.92c-1.93,4.37-8.43,4.2-11.51,1.22C497.25,634.08,498.9,625.92,504.37,623.43z"/>
		<path fill="#FF3C04" stroke="#FF3C04" stroke-width="0.0938" d="M477.83,645.68c0.98-1.3,1.89-2.64,2.79-3.98
			c3.22-1.98,9.54-1.4,9.69,3.32C490.53,651.98,478.07,652.96,477.83,645.68z"/>
		<path fill="#FF3C04" stroke="#FF3C04" stroke-width="0.0938" d="M311.11,643.96c3.25-2.54,7.57-2.21,11.34-1.19l-1.14,0.73
			c-1.66,0.94-3.29,2.21-5.27,2.31C314.3,645.47,312.72,644.62,311.11,643.96z"/>
		<path fill="#FF3C04" stroke="#FF3C04" stroke-width="0.0938" d="M414.86,646.02c1.55-0.97,3.34-1.44,5.04-2.06
			c1.67,0.96,3.95,1.66,4.21,3.91c-0.41,3.28-4.33,4.27-7.11,4.06C414.35,651.66,413.38,647.95,414.86,646.02z"/>
		<path fill="#FF3C04" stroke="#FF3C04" stroke-width="0.0938" d="M322.65,657.59c4.56-1.61,10.04-3.42,14.7-1.26
			c0.85,2.54-0.89,5.52-3.03,7c-4.52,3.07-10.21,3.27-15.43,4.17c-4.85,0.69-9.97,3.05-14.69,0.52
			C310.83,665.43,316.98,661.87,322.65,657.59z"/>
		<path fill="#FF3C04" stroke="#FF3C04" stroke-width="0.0938" d="M251.53,665.87c2.19-3.73,8.79-3.52,9.74,1.05
			c1.07,3.66-2.59,6.61-6.04,5.92C259.15,670.2,254,667.05,251.53,665.87z"/>
		<path fill="#FF3C04" stroke="#FF3C04" stroke-width="0.0938" d="M234.5,664.58c2.93-0.89,6.61,0.35,8.06,3.1
			c0.02,2.66,0.36,5.43,2.3,7.44c-1.91,4.55-6.52,6.9-10.99,8.24c-2.88-1.13-5.71-2.97-8.89-2.82c-2.97,1.02-5.77,3.02-9.07,2.55
			c-2.93-0.13-6.44-1.84-6.79-5.06c0.11-2.79,2.48-4.86,4.69-6.22c3.38-2.03,7.41-1.19,11.13-1.37
			C228.57,669.27,230.85,665.73,234.5,664.58z"/>
		<path fill="#FF3C04" stroke="#FF3C04" stroke-width="0.0938" d="M275.44,665.85c1.5-0.53,2.96-1.17,4.52-1.5
			c1.19,0.32,2,1.4,2.98,2.11c-1.19,0.69-2.23,2-3.74,1.87C277.52,668.44,276.61,666.74,275.44,665.85z"/>
		<path fill="#FF3C04" stroke="#FF3C04" stroke-width="0.0938" d="M161.98,675.47c2.79-0.67,5.04-2.96,8-2.96
			c1.75,1.58,2.6,3.83,3.82,5.79c1.43,2.53,3.96,4.21,5.37,6.75c-0.53,4.9-3.49,9.17-6.56,12.88c-6.39,7.3-16.54,8.26-24.75,12.51
			c-4.99,2.14-10.41,2.87-15.77,3.39c-2.7,0.14-6.4,0.69-8.06-2.03c-0.89-2.51-0.23-5.25-0.23-7.85c5.49-0.89,11.82-0.03,16.42-3.75
			c4.33-4.02,2.19-11.56-2.85-13.95c4.65-3.26,8.28-8.08,13.77-10.02C154.6,674.82,158.38,675.82,161.98,675.47z"/>
		<path fill="#FF3C04" stroke="#FF3C04" stroke-width="0.0938" d="M95.4,711.37c2.12-0.36,4.74,1.23,4.41,3.62
			c-0.38,4.21-3.86,7.19-5.18,11.06c-0.93,4.99,2.07,9.89,0.89,14.88c-1.09,3.68-5.84,3.89-7.72,6.92
			c-1.16,2.78,0.09,6.09-1.38,8.78c-1.84,1.85-6.43,1.56-6.71-1.54c-0.22-3.45,2.66-5.92,3.43-9.06
			c-0.39-3.4301-2.76-6.85-1.38-10.32c2.45-4.63,8.63-6.95,9.18-12.63C91.85,719.19,91.14,713.36,95.4,711.37z"/>
		<path fill="#FF3C04" stroke="#FF3C04" stroke-width="0.0938" d="M81.95,785.33c4.95-1.06,8.63-5.01,11.21-9.15
			c1.54,1.97,2.81,4.23,2.66,6.84c0,5.04,1.22,9.96,1.59,14.96c0.42,5.29-4.32,9.03-5.01,14.05c0.38,2.9,2.27,5.29,3.14,8.05
			c0.63,2.76,0.28,5.69,1.19,8.42c1.33,4.06,3.45,8.04,3.08,12.47c-0.29,5.3701-0.94,11.21-4.35,15.6
			c-2.42,3.04-6.97,1.68-9.22-0.85c-4.29-4.6-3.94-11.47-7.17-16.65c-1.08-1.93-2.69-3.72-2.84-6.01
			c-0.51-6.11,3.57-11.28,4.18-17.2c-1.76-1.68-4.37-2.43-5.61-4.63c-2.2-3.67-2.05-8.16-1.72-12.27
			c0.48-5.06,0.65-10.21,2.22-15.08C77.34,784.89,79.62,785.91,81.95,785.33z"/>
		<path fill="#FF3C04" stroke="#FF3C04" stroke-width="0.0938" d="M124.13,835.95c0.86-4.72,4.81-9.13,9.84-9.18
			c4.56,0.05,8.06,3.34,11.11,6.33c3.81,4.44,7.33,9.23,9.3,14.79c1.4,5.17,1.11,10.68,3.26,15.67c2.73,6.86,1.75,14.41,3.55,21.47
			c0.58,2.96,1.65,5.9399,1.17,9c-0.63,3.27-3.82,5.14-5.07,8.11c-0.6,3.86,3.35,6.93,2.5,10.86c-0.3,2.17-1.39,4.72-3.75,5.27
			c-3.1-0.21-5.64-2.55-7.38-4.94c-3.3-4.37,3.9-8.84,1.47-13.51c-1.92-3.62-6.19-4.58-9.77-5.76c-0.92-3.23-2-6.58-4.34-9.09
			c-2.52-2.68-6.22-3.71-9.04-5.99c-1.75-1.46-2.92-3.47-3.94-5.47C121.74,861.03,121.63,848.29,124.13,835.95z"/>
		<path fill="#FF3C04" stroke="#FF3C04" stroke-width="0.0938" d="M105.64,856.69c1.57-0.43,3.53-1.66,4.93-0.19
			c0.93,1.01,1.64,2.21,2.45,3.34c-1.87-1.47-4.19-2.08-6.5-2.44c-0.01,5.78,1.85,11.33,4.2,16.54c-2.98,0.67-6.41,1.31-9.09-0.6
			c-3.38-2.4301-3.75-7.19-3.09-10.96C99.63,859.34,102.86,857.85,105.64,856.69z"/>
	</g>
</g>
</svg>
