<svg xmlns="http://www.w3.org/2000/svg" version="1.1" xmlns:xlink="http://www.w3.org/1999/xlink" xmlns:svgjs="http://svgjs.dev/svgjs" width="300" height="800" preserveAspectRatio="none" viewBox="0 0 300 800"><g mask="url(&quot;#SvgjsMask1116&quot;)" fill="none"><rect width="300" height="800" x="0" y="0" fill="rgba(72, 79, 193, 0.1)"></rect><path d="M300 0L177.63 0L300 127.69z" fill="rgba(255, 255, 255, .1)"></path><path d="M177.63 0L300 127.69L300 467.92L85.86 0z" fill="rgba(255, 255, 255, .075)"></path><path d="M85.86000000000001 0L300 467.92L300 659.48L49.13000000000002 0z" fill="rgba(255, 255, 255, .05)"></path><path d="M49.130000000000024 0L300 659.48L300 745.4L44.43000000000002 0z" fill="rgba(255, 255, 255, .025)"></path><path d="M0 800L52.11 800L0 644.53z" fill="rgba(0, 0, 0, .1)"></path><path d="M0 644.53L52.11 800L106.05 800L0 520.11z" fill="rgba(0, 0, 0, .075)"></path><path d="M0 520.11L106.05 800L204.55 800L0 246.64z" fill="rgba(0, 0, 0, .05)"></path><path d="M0 246.64L204.55 800L214.34 800L0 125.60999999999999z" fill="rgba(0, 0, 0, .025)"></path></g><defs><mask id="SvgjsMask1116"><rect width="300" height="800" fill="#ffffff"></rect></mask></defs></svg>